<svg width="666" height="817" viewBox="0 0 666 817" fill="none" xmlns="http://www.w3.org/2000/svg">
<path d="M531.373 273.884C531.373 235.345 531.185 196.994 531.373 158.455C533.063 156.011 535.504 154.131 537.569 151.875C535.128 149.243 530.059 144.355 530.059 144.355L527.806 146.799L458.333 51.11L461.713 47.7261L454.578 40.7703L449.883 45.2822L339.102 8.99924L340.041 8.05927L333.094 0.915466L325.208 7.87127L326.335 9.18723C326.335 9.18723 252.355 33.4385 215.554 45.0942C214.052 43.5902 210.672 40.5823 210.672 40.5823L203.349 47.9141C203.349 47.9141 205.602 50.1701 206.729 51.298C203.724 55.8099 200.345 60.1338 197.153 64.6456C177.25 91.9048 157.534 119.164 137.631 146.423C136.88 145.671 136.129 144.919 135.378 143.979C132.937 146.611 130.121 148.867 127.868 151.687C130.121 153.755 132.186 156.011 134.252 158.267C134.064 196.618 134.252 273.508 134.252 273.508L128.243 279.711L127.868 280.087C127.868 280.087 132.937 285.163 135.378 287.607C136.129 286.855 137.068 286.103 137.819 285.539C159.412 315.242 181.005 344.946 202.598 374.837C203.912 376.717 206.729 380.665 206.729 380.665L203.161 384.236C203.161 384.236 208.231 389.124 210.672 391.756C212.174 390.252 215.366 387.056 215.366 387.056C215.366 387.056 230.199 391.756 237.71 394.2C267.001 403.788 325.584 422.775 325.584 422.775L324.832 423.527L332.719 431.235L339.854 424.091L338.915 422.963C338.915 422.963 408.012 400.592 442.373 389.5C444.814 388.748 447.255 387.808 449.696 387.244C451.573 388.56 452.888 390.252 454.578 391.756C457.018 389.124 459.835 386.868 462.088 384.048C460.962 382.92 459.835 381.793 458.708 380.665C481.616 349.269 504.523 317.686 527.43 286.103C528.557 285.727 529.308 287.231 530.247 287.795C532.688 285.351 535.128 282.907 537.569 280.275C535.692 278.019 533.626 275.952 531.373 273.884ZM447.443 217.297H493.445L496.449 220.305L459.272 304.151L457.957 303.023L456.831 304.151L438.618 258.656L437.491 261.1C437.491 261.1 449.508 290.615 455.329 305.467C454.39 306.407 452.324 308.287 452.324 308.287C452.324 308.287 442.185 307.911 437.303 307.347C425.662 306.783 401.065 305.467 401.065 305.467L398.248 307.159L451.761 310.355C451.761 310.355 452.888 311.483 453.639 312.046C430.919 332.35 408.2 352.841 385.48 373.333C384.541 372.393 383.79 371.641 382.852 370.701C382.476 370.889 381.913 371.077 381.537 371.265C376.468 356.413 371.21 341.75 366.141 327.086C365.765 327.274 364.826 327.65 364.451 327.838C369.52 343.066 374.966 358.105 380.035 373.333C379.096 374.273 378.345 375.025 377.406 375.965C347.927 373.145 287.092 366.941 287.092 366.941L285.026 365.437C285.026 365.437 307.558 346.637 318.636 337.614C322.204 334.794 330.465 328.026 330.465 328.026L328.024 327.65L326.898 328.59L283.712 364.309L280.708 362.053C280.708 362.053 270.381 325.018 265.499 307.347C265.311 305.843 263.809 305.091 262.682 304.151C267.564 323.702 278.83 363.557 278.83 363.557L277.891 364.685L199.218 317.31L200.532 315.43L198.092 313.174L238.649 282.907L237.71 281.779C237.71 281.779 212.549 300.391 199.594 310.167C198.843 310.731 196.777 312.234 196.777 312.234L193.773 309.603C193.773 309.603 180.629 250.008 174.058 220.869C174.621 220.305 174.997 219.741 175.56 219.365C192.646 230.457 209.545 241.737 226.632 252.828C226.444 251.7 226.256 250.572 225.13 250.196C208.982 239.669 192.834 228.953 176.686 218.425C177.25 217.673 178.001 216.921 178.564 216.169C178.001 215.417 177.25 214.665 176.686 214.101C193.21 203.386 209.545 192.67 225.881 181.954C226.068 181.39 226.444 180.262 226.819 179.698C209.733 190.79 192.646 202.07 175.372 213.161C174.809 212.597 174.433 212.033 173.87 211.657C180.442 182.518 193.21 124.052 193.21 124.052L196.965 120.668L238.649 151.687L239.212 150.371L197.904 119.54L200.345 117.096C200.345 117.096 199.218 115.968 198.655 115.592C223.252 101.117 247.849 86.829 272.258 72.5414C273.948 71.6014 276.953 69.9095 276.953 69.9095L278.267 71.7894C278.267 71.7894 267.94 109.388 262.682 128C263.434 127.624 264.372 127.06 265.123 126.496C269.817 108.636 279.769 73.1054 279.769 73.1054L283.712 69.9095L324.645 103.937L327.461 104.125L285.214 68.5935C285.214 68.5935 286.716 66.7136 288.031 66.5256C288.031 66.5256 347.364 60.5098 377.031 57.5018C377.97 58.4418 378.721 59.1938 379.66 60.1338C374.402 75.7373 363.512 106.944 363.512 106.944L365.577 107.132C365.577 107.132 367.455 101.493 368.394 98.6726C372.525 86.453 381.349 61.4497 381.349 61.4497L382.476 62.3897C382.476 62.3897 384.166 60.6977 385.105 59.7578C407.824 80.0612 453.263 121.044 453.263 121.044L451.386 122.924C451.386 122.924 416.274 124.804 398.999 125.932C399.563 126.308 400.689 127.248 401.253 127.812C418.339 126.872 435.238 125.744 452.324 124.992C453.263 125.932 454.014 126.684 454.953 127.624C449.883 140.783 444.438 153.755 439.181 166.915C438.054 169.923 435.989 172.931 437.303 176.314C443.687 160.899 456.267 129.128 456.267 129.128L457.206 129.88L458.708 128.752L495.886 212.597L492.694 215.605L446.128 215.793L447.443 217.297ZM460.962 127.06L460.774 126.684L461.713 125.744C461.713 125.744 491.943 137.776 506.964 143.603C512.597 145.859 524.05 150.371 524.05 150.371L522.736 151.687C522.736 151.687 525.552 154.507 527.055 155.823C518.605 173.682 500.955 210.717 500.955 210.717L499.453 209.213L498.139 210.341C498.139 210.529 473.354 154.883 460.962 127.06ZM456.643 52.99L457.018 52.614L458.896 55.2459L526.304 148.303L525.74 148.867L463.215 124.052L464.529 122.736C464.529 122.736 460.774 118.976 459.084 117.284C458.333 101.493 457.77 85.889 457.018 70.0975C457.018 64.4576 456.08 58.8178 456.643 52.99ZM454.014 53.742C454.014 53.742 455.892 96.7927 457.018 117.472C456.455 118.036 455.892 118.6 455.516 119.164C432.797 98.8607 410.077 78.3692 387.358 57.8778C388.109 57.1259 388.672 56.3739 389.423 55.8099C409.326 53.742 449.508 49.6061 449.508 49.6061L454.014 53.742ZM373.463 22.7228C396.934 30.4306 420.592 38.1384 444.063 45.6582C445.377 46.2222 448.757 47.3501 448.757 47.3501C448.757 47.3501 408.2 51.674 388.109 53.742C386.419 52.05 382.852 48.4781 382.852 48.4781L379.66 51.298C379.66 51.298 351.119 24.4148 337.037 10.8792C349.43 14.6391 361.446 18.775 373.463 22.7228ZM332.906 15.767C332.906 15.767 335.159 13.6991 336.286 12.5711C350.181 25.7308 378.909 52.614 378.909 52.614L376.655 54.8699C376.655 54.8699 316.759 61.0737 286.716 63.8937C286.341 63.5177 285.777 62.9537 285.402 62.5777C300.235 46.0342 330.09 12.7591 330.09 12.7591L332.906 15.767ZM217.243 46.9741C217.243 46.9741 289.908 23.4748 325.959 11.6312L327.649 10.8792L328.4 11.6312C328.4 11.6312 308.497 34.0025 298.358 45.2822C293.476 50.546 288.782 56.1859 283.712 61.4497C282.961 60.6978 281.271 59.0058 281.271 59.0058L276.014 63.3297L216.492 48.4781L217.431 47.5381L217.243 46.9741ZM210.484 54.4939L215.178 49.9821C215.178 49.9821 255.172 59.9458 274.699 64.8336C275.263 65.5856 275.826 66.5256 276.389 67.2776C250.29 82.5051 197.904 113.336 197.904 113.336L196.402 112.208C196.402 112.208 205.602 74.6093 210.296 55.9979L210.484 54.4939ZM208.043 53.742C205.79 65.0216 202.786 75.9253 200.157 87.205C198.279 94.7248 194.336 110.892 194.336 110.892L193.961 110.516L187.201 117.096C187.201 117.096 188.516 118.224 189.079 118.788C172.556 128.752 156.22 138.528 139.697 148.303C162.416 116.532 185.324 85.137 208.043 53.742ZM142.889 151.875C142.326 151.123 141.574 150.371 141.011 149.431C157.534 139.655 173.87 129.692 190.393 119.916C190.769 120.292 191.332 120.856 191.708 121.232C185.511 150.559 178.94 179.698 172.556 209.025C171.805 209.589 171.053 210.341 170.302 210.905C159.788 192.482 149.461 174.058 138.946 155.823C140.26 154.507 141.574 153.191 142.889 151.875ZM136.88 274.824C136.505 272.38 136.505 269.936 136.505 267.492C136.505 231.397 136.505 195.49 136.505 159.395C136.693 158.643 136.317 157.139 137.444 157.703C147.958 175.938 158.473 194.174 168.8 212.597C167.486 213.725 166.359 215.041 165.233 216.357C166.359 217.485 167.486 218.613 168.8 219.741C159.224 236.473 149.461 253.204 139.885 269.936C139.321 271.628 138.383 273.508 136.88 274.824ZM170.302 221.245C171.053 221.809 171.805 222.561 172.556 223.125C178.94 251.7 191.708 311.107 191.708 311.107L190.581 312.422C190.581 312.422 157.534 292.495 141.011 282.531C141.762 281.779 142.326 281.027 143.077 280.463C141.762 279.147 140.448 277.831 139.134 276.516C149.273 257.716 159.975 239.481 170.302 221.245ZM139.509 283.659C156.032 293.435 172.743 303.587 189.267 313.55C188.703 314.114 187.389 315.242 187.389 315.242L194.712 321.822C194.712 321.822 204.1 359.797 208.419 378.409C185.324 347.013 162.416 315.242 139.509 283.659ZM210.108 376.341C210.108 376.341 200.908 338.93 196.214 320.318C196.589 319.942 197.153 319.19 197.34 318.814C223.627 334.042 276.765 365.061 276.765 365.061L274.887 367.317L215.741 381.792L210.108 376.341ZM321.265 418.639C286.716 407.36 217.243 384.8 217.243 384.8L218.182 383.86L217.619 383.296L276.953 368.821C278.455 370.325 279.957 371.829 281.459 373.333C282.21 372.393 282.961 371.641 283.9 370.889C293.664 381.417 303.052 392.32 312.816 402.848C318.073 408.864 323.706 414.692 328.775 420.895C326.147 420.519 323.706 419.391 321.265 418.639ZM333.094 416.384L329.902 419.203C329.902 419.203 300.048 386.116 285.214 369.573L286.341 368.257C286.341 368.257 347.176 374.461 376.468 377.281C377.219 378.221 379.096 379.161 377.782 380.477C364.263 393.072 336.098 419.391 336.098 419.391L333.094 416.384ZM373.839 409.24C361.634 413.188 349.617 417.323 337.413 420.895C351.495 407.36 365.765 394.2 379.847 380.852C380.974 381.792 381.725 382.92 383.039 383.484C384.917 381.98 386.419 380.101 388.109 378.409C402.191 379.913 416.461 381.228 430.544 382.732C436.552 383.484 442.561 383.484 448.381 384.8C423.596 393.072 398.624 400.968 373.839 409.24ZM454.014 376.905C452.888 378.973 450.822 380.477 449.132 381.98C446.691 382.168 444.251 381.793 441.81 381.605C424.348 379.913 406.698 378.221 389.236 376.529C388.485 375.777 387.921 375.025 387.17 374.461C409.89 354.157 432.609 333.666 455.329 313.174C455.892 313.738 456.455 314.302 456.831 314.678C455.892 335.358 455.141 356.225 454.014 376.905ZM494.759 327.086C482.179 344.382 469.599 361.677 457.206 378.973C455.892 377.657 456.455 375.965 456.455 374.273C457.394 354.533 458.145 334.794 459.084 315.054C460.962 313.174 464.717 309.603 464.717 309.603L463.59 308.099C463.59 308.099 503.772 291.931 523.487 284.035C524.426 283.659 525.365 283.471 526.491 283.283C516.164 297.947 505.274 312.422 494.759 327.086ZM522.736 280.087C523.112 280.463 523.675 281.215 524.05 281.403C503.396 289.675 482.93 298.135 462.276 306.219C462.088 305.843 461.525 305.279 461.149 304.903C473.542 277.079 485.746 249.256 498.327 221.433C498.702 221.809 499.265 222.185 499.829 222.749C500.204 222.373 500.955 221.621 501.331 221.245C509.968 239.293 518.605 257.34 527.242 275.388C525.552 277.267 524.05 278.771 522.736 280.087ZM529.12 196.994C529.12 216.733 529.12 236.473 529.12 256.024C529.12 262.04 529.308 268.244 528.932 274.26C527.242 271.816 526.116 268.996 524.801 266.364C517.479 250.76 509.78 235.533 502.457 219.929C503.772 218.801 505.086 217.485 506.4 215.981C505.086 214.665 503.772 213.537 502.457 212.221C508.278 199.438 514.474 186.842 520.483 174.246C523.299 168.607 525.552 162.779 528.744 157.515C529.308 170.675 528.932 183.834 529.12 196.994Z" fill="black" fill-opacity="0.05"/>
<path d="M339.666 109.764C329.151 107.509 318.448 105.441 307.933 103.185C306.244 102.621 304.929 103.937 303.615 104.689C295.916 109.764 288.03 114.652 280.332 119.916C289.908 118.788 299.296 116.72 308.684 115.216C319.011 113.336 329.339 111.832 339.666 109.764Z" fill="black" fill-opacity="0.05"/>
<path d="M344.923 106.568C345.299 107.508 345.674 108.26 346.05 109.2C354.124 108.448 362.197 108.824 370.271 107.696C354.687 106.568 339.102 105.065 323.518 103.937C320.889 103.749 318.261 103.373 315.632 103.561C323.706 105.253 331.967 106.944 340.041 108.636C341.731 107.884 343.233 107.32 344.923 106.568Z" fill="black" fill-opacity="0.05"/>
<path d="M375.716 120.48C384.917 123.488 393.93 127.06 403.13 129.88C394.681 122.736 386.419 115.78 377.97 108.824C367.83 109.576 357.691 109.764 347.552 110.328C356.752 114.088 366.14 117.096 375.716 120.48Z" fill="black" fill-opacity="0.05"/>
<path d="M300.798 153.567L301.55 154.507C301.55 154.507 328.4 125.368 341.356 111.08C336.286 111.456 331.216 112.772 326.147 113.524C310.562 116.156 295.166 118.788 279.581 121.42C279.393 121.608 278.83 122.36 278.642 122.548C285.59 133.076 299.484 154.319 299.484 154.319L300.798 153.567Z" fill="black" fill-opacity="0.05"/>
<path d="M343.797 111.832C342.294 112.396 341.356 113.712 340.417 114.84C329.902 126.308 319.387 137.776 309.06 149.243C306.995 151.499 304.554 153.755 302.864 156.387C306.995 157.139 311.313 157.139 315.444 157.515C334.033 159.019 377.219 162.591 377.219 162.591L377.031 162.215L378.345 161.839C378.158 161.651 355.062 128.376 343.797 111.832Z" fill="black" fill-opacity="0.05"/>
<path d="M352.809 113.712C350.368 112.96 348.115 111.832 345.487 111.644C356.752 128.188 379.66 161.087 379.66 161.087L382.101 160.335C382.101 160.335 398.061 141.159 405.196 132.324C402.567 131.008 399.75 130.256 397.122 129.316C382.101 124.24 367.455 118.976 352.809 113.712Z" fill="black" fill-opacity="0.05"/>
<path d="M238.836 173.307C258.176 168.231 297.794 157.139 297.794 157.139L297.043 156.011L298.17 155.259C298.17 155.259 284.275 133.828 277.516 123.3C276.389 123.864 275.45 124.616 274.699 125.744C266.813 136.272 258.927 146.611 251.041 157.139C246.91 162.215 242.591 167.479 238.836 173.307Z" fill="black" fill-opacity="0.05"/>
<path d="M274.323 123.488C264.935 128.564 255.923 133.828 246.534 139.092C245.032 139.656 244.469 141.159 244.281 142.475C242.404 152.063 239.775 161.651 238.085 171.427C250.29 155.447 262.494 139.656 274.323 123.488Z" fill="black" fill-opacity="0.05"/>
<path d="M383.603 164.095C383.603 164.095 402.003 173.119 411.204 177.63C419.653 181.578 427.915 185.902 436.364 189.662C431.67 180.826 426.976 171.991 422.282 163.155C417.025 153.379 412.143 143.415 406.51 133.828L383.039 162.215L383.603 164.095Z" fill="black" fill-opacity="0.05"/>
<path d="M435.426 176.878C434.487 170.111 433.548 163.531 432.421 156.763C432.234 155.259 430.919 154.507 429.981 153.567C422.846 147.551 416.086 140.971 408.951 134.956C418.151 152.627 427.54 169.923 436.74 187.594C436.552 184.022 435.801 180.45 435.426 176.878Z" fill="black" fill-opacity="0.05"/>
<path d="M233.579 173.306C233.579 173.306 235.645 172.367 236.583 171.991C238.273 165.223 239.775 158.267 241.277 151.311C241.653 149.619 242.029 147.927 242.216 146.423C240.714 149.243 239.588 152.439 238.273 155.447C232.077 170.299 225.693 185.15 219.685 200.19C224.754 193.046 234.893 176.69 234.893 176.69L233.579 173.306Z" fill="black" fill-opacity="0.05"/>
<path d="M239.212 174.81L238.273 176.126C238.273 176.126 256.111 207.522 265.123 223.125C266.25 225.193 267.189 227.449 268.879 228.953C272.634 221.057 275.638 212.973 279.018 205.078C285.026 190.602 291.035 176.126 297.231 161.651C297.606 160.711 297.794 159.583 297.982 158.643C292.161 159.771 286.528 161.651 280.708 163.155C267.376 166.915 239.212 174.81 239.212 174.81Z" fill="black" fill-opacity="0.05"/>
<path d="M312.064 174.623C319.95 187.406 335.535 212.785 335.535 212.785L337.976 212.221L377.97 165.223L377.594 164.283C377.594 164.283 335.159 160.711 313.942 158.831C310.562 158.831 302.864 157.891 302.864 157.891L302.488 158.267L312.064 174.623Z" fill="black" fill-opacity="0.05"/>
<path d="M297.419 166.163C288.969 186.278 280.52 206.394 272.071 226.697C271.695 227.637 271.32 228.765 271.132 229.893C275.45 229.141 279.769 228.013 283.9 227.073C300.235 223.313 333.845 215.229 333.845 215.229L333.282 213.537L333.845 213.349C333.845 213.349 311.689 177.254 300.611 159.583C299.109 161.463 298.358 163.907 297.419 166.163Z" fill="black" fill-opacity="0.05"/>
<path d="M401.628 237.789C413.27 222.561 424.911 207.334 436.552 192.294C436.177 192.106 435.614 191.542 435.238 191.166C418.152 182.894 384.166 166.351 384.166 166.351L383.227 165.975L382.101 166.351C387.922 190.602 393.554 214.853 399.187 239.105C399.938 238.729 401.065 238.541 401.628 237.789Z" fill="black" fill-opacity="0.05"/>
<path d="M340.229 216.357C340.229 216.357 378.533 232.713 397.497 240.609C396.371 233.841 394.493 227.261 392.991 220.681C388.86 202.822 380.411 166.915 380.411 166.915L379.284 167.291C365.953 182.706 339.666 213.725 339.666 213.725L340.229 216.357Z" fill="black" fill-opacity="0.05"/>
<path d="M440.683 191.542C440.683 191.542 440.119 187.406 439.556 185.338C438.054 179.322 436.927 173.119 435.05 167.103C435.801 174.059 438.054 188.346 438.054 188.346L440.683 191.542Z" fill="black" fill-opacity="0.05"/>
<path d="M236.959 177.254C234.142 196.994 230.95 216.921 228.134 236.661C227.946 237.789 228.134 238.917 228.134 240.045C232.077 239.481 235.832 238.353 239.775 237.601C248.6 235.533 257.237 233.653 266.062 231.585C266.062 231.209 265.874 230.457 265.874 230.081C266.25 229.705 267.376 229.329 266.625 228.577C257.237 212.033 247.849 195.49 238.461 178.946C237.897 178.194 237.522 177.63 236.959 177.254Z" fill="black" fill-opacity="0.05"/>
<path d="M235.269 178.006C229.448 186.654 224.003 195.678 218.182 204.514C217.243 205.642 217.431 206.958 217.806 208.274C220.247 217.109 222.876 225.757 225.505 234.593C225.693 235.533 226.256 236.473 226.631 237.413C229.448 217.673 232.828 197.934 235.269 178.006Z" fill="black" fill-opacity="0.05"/>
<path d="M445.94 214.665C445.189 207.334 442.748 200.378 441.434 193.046C440.871 193.234 439.932 193.798 439.369 193.986C441.622 200.942 443.875 207.71 445.94 214.665Z" fill="black" fill-opacity="0.05"/>
<path d="M437.115 194.174C424.911 209.401 413.457 225.193 401.252 240.609C401.44 241.361 401.816 241.925 402.191 242.676C413.269 247.376 424.347 252.452 435.426 257.34C435.989 248.88 435.989 240.421 436.364 231.961C436.364 219.365 437.303 206.77 437.115 194.174Z" fill="black" fill-opacity="0.05"/>
<path d="M438.618 195.678C438.055 215.417 437.491 235.157 437.116 254.708C441.059 245.12 444.814 235.345 448.569 225.757C447.818 222.373 446.504 218.989 445.377 215.605C443.124 209.026 441.247 202.258 438.618 195.678Z" fill="black" fill-opacity="0.05"/>
<path d="M330.278 270.312C331.78 253.956 334.972 219.177 334.972 219.177L334.409 217.109C334.409 217.109 292.537 226.885 271.883 231.773C272.446 232.525 272.634 233.465 273.385 234.217C291.974 250.196 310.375 266.176 328.776 282.155C329.902 278.208 329.714 274.26 330.278 270.312Z" fill="black" fill-opacity="0.05"/>
<path d="M366.141 261.288C376.092 255.084 386.231 249.256 396.183 243.052C396.183 242.864 396.183 242.488 396.183 242.488C377.782 234.405 340.041 218.425 340.041 218.425L337.225 218.989C335.347 237.789 333.657 256.776 331.967 275.576C331.78 277.643 331.404 279.899 331.967 281.967C343.421 275.2 354.687 268.244 366.141 261.288Z" fill="black" fill-opacity="0.05"/>
<path d="M221.186 224.629C222.313 229.517 223.252 234.593 224.754 239.481C225.88 238.353 224.942 236.661 224.566 235.345C223.439 231.773 222.688 228.013 221.186 224.629Z" fill="black" fill-opacity="0.05"/>
<path d="M264.56 293.999C265.687 274.448 266.813 254.896 267.94 235.345C267.376 234.405 267.001 233.465 266.438 232.525C254.045 235.345 241.465 238.353 229.073 240.985C228.885 241.361 228.697 242.113 228.509 242.488C235.644 252.828 242.967 263.168 250.102 273.508C254.984 280.463 259.49 287.419 264.56 293.999Z" fill="black" fill-opacity="0.05"/>
<path d="M272.446 293.999C290.471 290.615 308.684 287.231 326.898 283.847C326.71 283.283 326.522 282.719 326.334 282.155C309.436 267.68 292.725 253.204 275.826 238.541C273.948 236.849 272.07 234.969 270.005 233.841C268.503 254.144 267.752 274.448 266.25 294.751C268.315 295.127 270.381 294.375 272.446 293.999Z" fill="black" fill-opacity="0.05"/>
<path d="M226.068 243.805C225.88 245.684 226.444 247.376 226.819 249.256C227.57 252.264 228.133 255.272 228.885 258.28C228.885 255.084 227.946 252.076 227.57 249.068C227.195 247.188 227.382 245.12 226.068 243.805Z" fill="black" fill-opacity="0.05"/>
<path d="M252.919 279.712C244.657 267.868 236.396 255.836 227.946 244.181C229.448 254.144 231.514 263.92 233.204 273.884C233.391 275.2 233.955 276.704 235.269 277.268C244.47 282.907 253.482 288.547 262.683 293.999C259.678 289.111 256.111 284.411 252.919 279.712Z" fill="black" fill-opacity="0.05"/>
<path d="M399.375 245.12C396.558 264.86 393.366 284.411 390.926 304.151C392.615 302.835 394.305 301.331 395.62 299.639C408.575 286.103 421.719 272.756 434.675 259.22C423.597 253.956 412.331 249.444 401.065 244.368C400.689 244.556 399.938 244.932 399.375 245.12Z" fill="black" fill-opacity="0.05"/>
<path d="M337.601 286.103C354.687 292.495 371.586 299.075 388.673 305.467C389.987 302.459 389.799 299.075 390.55 295.691C392.991 279.148 395.432 262.604 397.685 246.248C397.497 245.872 396.934 245.12 396.746 244.745C375.529 257.716 354.124 270.5 332.906 283.659C334.033 285.163 335.911 285.351 337.601 286.103Z" fill="black" fill-opacity="0.05"/>
<path d="M418.339 278.02C410.077 287.043 401.065 295.503 392.991 304.527C402.003 300.391 410.828 296.255 419.841 292.307C421.155 291.743 421.531 290.239 422.282 289.111C426.225 280.088 430.356 271.064 434.299 262.04C428.666 267.116 423.784 272.756 418.339 278.02Z" fill="black" fill-opacity="0.05"/>
<path d="M263.997 299.639C263.433 298.135 262.87 296.631 262.119 295.315C261.18 294.375 260.054 293.811 258.927 293.059C252.167 288.923 245.596 284.787 238.836 280.839C241.089 283.283 243.906 285.351 246.347 287.607C256.486 296.443 266.813 305.279 276.952 314.115C279.206 315.994 281.083 317.874 283.524 319.378C277.891 312.423 272.258 305.655 266.438 298.699C265.499 298.887 264.748 299.263 263.997 299.639Z" fill="black" fill-opacity="0.05"/>
<path d="M327.461 285.163C307.558 288.923 287.655 292.495 267.564 296.443C268.879 297.383 270.193 298.323 271.695 299.075C282.21 304.339 292.912 309.415 303.427 314.866C310.374 318.25 316.946 321.822 324.081 324.83C325.583 312.986 326.898 301.143 328.212 289.487C328.775 287.795 328.024 286.479 327.461 285.163Z" fill="black" fill-opacity="0.05"/>
<path d="M386.983 306.971C383.791 305.091 380.035 304.151 376.656 302.835C362.01 297.195 347.365 291.743 332.719 286.103C332.343 286.291 331.405 286.667 331.029 286.855C330.09 293.247 329.527 299.451 328.588 305.843C327.837 312.235 326.898 318.626 326.523 325.018C331.217 323.89 335.535 322.386 340.229 321.07C355.626 316.182 371.398 311.671 386.983 306.971Z" fill="black" fill-opacity="0.05"/>
<path d="M392.991 308.099C391.489 308.663 389.987 309.415 388.297 309.979C388.109 309.791 387.546 309.415 387.17 309.227C380.786 314.302 374.027 318.814 367.831 324.266C383.227 315.054 398.624 305.655 414.021 296.255C406.698 299.075 399.563 302.835 392.428 305.843C392.615 306.595 392.803 307.347 392.991 308.099Z" fill="black" fill-opacity="0.05"/>
<path d="M287.092 321.822C288.031 323.514 290.096 322.95 291.786 323.326C301.737 323.702 311.501 325.018 321.453 325.018C303.615 316.37 285.965 307.347 268.315 298.699C274.324 306.595 280.896 314.115 287.092 321.822Z" fill="black" fill-opacity="0.05"/>
<path d="M368.769 313.739C355.25 317.874 341.731 321.634 328.4 325.958C338.164 327.086 347.928 328.026 357.691 329.154C359.757 329.53 361.071 328.026 362.573 326.898C370.459 320.694 378.533 314.866 386.419 308.663C380.411 310.167 374.59 312.047 368.769 313.739Z" fill="black" fill-opacity="0.05"/>
<path d="M21.9685 232.149C53.7007 175.938 84.8696 119.54 116.414 63.3297C109.091 86.453 100.454 109.012 92.7557 131.948C79.0489 170.863 65.5298 209.777 51.823 248.692C41.8715 243.053 31.7322 237.789 21.9685 232.149Z" fill="black" fill-opacity="0.05"/>
<path d="M545.643 63.3297C567.048 124.616 588.829 185.526 609.858 246.812C597.654 241.361 585.637 235.721 573.432 230.269C564.419 174.622 554.656 119.164 545.643 63.3297Z" fill="black" fill-opacity="0.05"/>
<path d="M113.222 84.3851C115.663 77.6173 118.104 71.0375 120.169 64.2697C119.981 67.4656 119.794 70.6615 119.23 73.8574C110.218 126.12 101.956 178.382 92.7556 230.457C80.551 235.721 68.534 241.549 56.3293 247C75.1058 192.67 94.2577 138.528 113.222 84.3851Z" fill="black" fill-opacity="0.05"/>
<path d="M550.337 64.0817C579.253 115.404 607.793 166.727 636.521 218.237C639.15 222.937 641.966 227.637 644.219 232.525C634.268 237.601 624.692 243.24 614.74 248.504C597.466 199.438 580.379 150.559 563.105 101.493C558.787 89.0849 553.717 76.8653 550.337 64.0817Z" fill="black" fill-opacity="0.05"/>
<path d="M55.9539 251.512C67.783 245.308 80.1754 240.421 92.1923 234.593C97.262 268.244 102.332 302.083 107.401 335.734C109.842 352.653 112.846 369.573 114.724 386.68C95.7599 341.374 75.2936 296.631 55.9539 251.512Z" fill="black" fill-opacity="0.05"/>
<path d="M558.974 335.17C564.044 301.707 568.738 268.056 574.183 234.593C586.2 240.421 598.404 245.684 610.421 251.136C591.269 296.067 571.366 340.622 551.839 385.364C553.341 368.633 556.533 351.901 558.974 335.17Z" fill="black" fill-opacity="0.05"/>
<path d="M21.0296 236.285C30.9811 240.985 40.3693 246.624 50.1331 251.888C33.422 300.015 16.3355 347.954 0 396.268C1.50211 377.845 4.6941 359.421 6.94727 340.998C11.6414 306.031 16.1477 271.252 21.0296 236.285Z" fill="black" fill-opacity="0.05"/>
<path d="M616.618 251.512C626.194 246.436 635.77 240.985 645.346 235.909C651.167 280.651 657.363 325.206 663.184 369.761C664.122 377.845 665.812 385.928 665.624 394.2C655.297 363.745 644.595 333.478 634.08 303.211C628.447 286.103 621.875 268.996 616.618 251.512Z" fill="black" fill-opacity="0.05"/>
<path d="M562.166 367.317C578.877 329.342 595.4 291.367 612.111 253.392C612.299 307.159 611.173 361.113 610.797 414.879C590.331 409.428 569.865 403.6 549.21 398.336C552.215 387.62 557.848 377.657 562.166 367.317Z" fill="black" fill-opacity="0.05"/>
<path d="M54.0759 253.58C74.73 298.887 94.0697 344.758 114.348 390.252C115.663 392.884 116.414 395.704 116.601 398.524C96.1351 403.6 75.8566 409.992 55.2025 414.88C55.0148 361.113 54.6392 307.347 54.0759 253.58Z" fill="black" fill-opacity="0.05"/>
<path d="M615.679 315.054C615.867 295.879 615.679 276.704 616.242 257.528C632.202 304.151 648.538 350.397 664.685 397.02C648.162 402.66 631.451 407.924 614.74 413.564C615.116 380.665 614.552 347.953 615.679 315.054Z" fill="black" fill-opacity="0.05"/>
<path d="M50.6966 256.4C50.6966 256.4 50.8844 362.241 51.8232 413.564C35.1122 408.3 18.589 402.472 1.87793 397.208L50.6966 256.4Z" fill="black" fill-opacity="0.05"/>
<path d="M1.87793 401.156C18.4012 406.42 34.7367 411.684 51.0722 417.512C56.3296 429.167 60.4604 441.199 65.3423 453.043C75.4815 479.362 85.9963 505.305 95.9478 531.812C64.2157 488.385 33.0468 444.771 1.87793 401.156Z" fill="black" fill-opacity="0.05"/>
<path d="M614.928 417.324C631.451 411.872 647.975 406.232 664.498 400.968C634.643 442.703 604.601 484.25 574.747 525.984C573.432 527.864 571.93 529.744 570.616 531.436C584.886 493.273 600.283 455.486 614.928 417.324Z" fill="black" fill-opacity="0.05"/>
<path d="M55.9539 418.827C76.6079 413.188 97.0742 407.36 117.728 402.096C112.095 445.335 106.087 488.385 100.078 531.624C85.0573 494.213 70.7872 456.426 55.9539 418.827Z" fill="black" fill-opacity="0.05"/>
<path d="M548.272 401.72C568.926 407.548 589.58 413 610.234 418.639C595.964 456.05 581.131 493.273 566.673 530.496C564.983 526.36 564.795 521.848 564.232 517.525C558.975 478.986 553.717 440.447 548.272 401.72Z" fill="black" fill-opacity="0.05"/>
<path d="M120.169 403.412C134.439 433.491 148.71 463.758 162.98 493.837C142.889 506.057 122.798 518.465 102.707 530.496C108.34 488.197 113.973 445.711 120.169 403.412Z" fill="black" fill-opacity="0.05"/>
<path d="M571.367 535.008C602.723 490.829 634.456 447.027 666 402.848C660.743 432.739 654.171 462.442 648.538 492.333C643.656 516.397 639.337 540.648 634.08 564.523C613.238 554.56 592.209 544.784 571.367 535.008Z" fill="black" fill-opacity="0.05"/>
<path d="M0.375488 403.224C30.7933 444.583 60.2723 486.505 90.3146 528.052C92.0044 530.308 93.5066 532.752 94.821 535.196C73.7914 544.596 53.1373 555.311 31.9199 564.523C21.5929 510.569 10.7025 456.99 0.375488 403.224Z" fill="black" fill-opacity="0.05"/>
<path d="M503.584 494.213C517.478 463.758 531.936 433.491 546.394 403.224C552.027 445.711 558.035 488.009 563.668 530.308C543.39 518.84 523.675 506.057 503.584 494.213Z" fill="black" fill-opacity="0.05"/>
<path d="M158.098 501.169C160.163 499.853 162.228 498.537 164.482 497.597C185.887 521.097 207.667 544.22 229.072 567.719C186.638 557.38 144.579 545.912 102.144 535.196C120.732 523.728 139.697 512.637 158.098 501.169Z" fill="black" fill-opacity="0.05"/>
<path d="M436.928 567.907C458.333 544.22 480.489 521.097 501.894 497.409C515.977 505.869 530.059 514.517 544.329 523.164C550.713 527.3 557.66 530.684 563.481 535.384C521.234 546.288 479.175 557.379 436.928 567.907Z" fill="black" fill-opacity="0.05"/>
<path d="M33.9851 567.907C55.0147 557.943 75.8565 548.168 96.8861 538.204C108.715 600.43 120.169 662.656 131.623 724.883C130.684 723.755 129.745 722.627 128.806 721.311C97.0739 670.176 65.5295 619.042 33.9851 567.907Z" fill="black" fill-opacity="0.05"/>
<path d="M438.054 569.975C479.362 559.259 520.483 548.544 561.791 538.204C546.394 553.996 531.373 569.787 515.976 585.579C501.331 600.618 487.061 616.034 472.227 630.509C467.721 623.93 464.341 616.598 460.21 609.83C452.888 596.482 445.001 583.511 438.054 569.975Z" fill="black" fill-opacity="0.05"/>
<path d="M531.936 728.455C531.936 728.455 493.257 665.664 473.917 634.269C504.898 602.31 536.067 570.163 567.048 538.016C562.354 566.215 556.721 594.414 551.464 622.614" fill="black" fill-opacity="0.05"/>
<path d="M569.489 538.204C590.518 547.98 611.36 557.943 632.202 567.907C603.474 615.094 574.183 661.904 545.267 709.091C541.887 714.731 538.132 720.183 535.128 726.011L569.489 538.204Z" fill="black" fill-opacity="0.05"/>
<path d="M99.1396 538.204C129.182 569.035 159.036 600.054 189.079 631.073C190.205 632.577 193.022 634.269 191.144 636.149C172.368 666.98 153.404 697.811 134.439 728.455C122.61 664.912 110.969 601.558 99.1396 538.204Z" fill="black" fill-opacity="0.05"/>
<path d="M104.585 538.204C145.893 548.544 187.201 559.259 228.321 569.975C217.056 590.091 205.602 610.394 194.336 630.509C188.703 625.81 184.009 619.982 178.752 614.718C154.154 589.527 129.37 563.959 104.585 538.204Z" fill="black" fill-opacity="0.05"/>
<path d="M231.701 571.667C242.592 585.203 252.356 599.49 262.87 613.214C284.088 641.977 305.493 670.552 326.522 699.315C283.337 677.508 240.526 655.137 197.528 633.141C208.794 612.462 220.436 592.159 231.701 571.667Z" fill="black" fill-opacity="0.05"/>
<path d="M335.722 604.942C367.455 594.226 398.999 582.947 430.731 572.231C413.269 596.67 395.056 620.734 377.218 644.985C363.512 663.22 350.18 682.02 336.286 700.067C336.473 689.54 336.286 679.012 336.849 668.484C336.286 647.241 335.722 625.998 335.722 604.942Z" fill="black" fill-opacity="0.05"/>
<path d="M432.421 573.923C432.984 572.983 434.862 571.103 435.425 573.171C446.503 593.286 457.957 613.026 468.847 633.141C425.849 655.325 382.851 677.508 339.666 699.503C370.459 657.58 401.628 615.846 432.421 573.923Z" fill="black" fill-opacity="0.05"/>
<path d="M235.269 572.043C267.189 582.947 299.109 594.038 331.029 605.13C330.841 622.801 329.902 640.285 329.714 657.768C329.339 671.868 330.09 685.78 329.902 699.879C298.358 657.392 266.813 614.718 235.269 572.043Z" fill="black" fill-opacity="0.05"/>
<path d="M137.256 731.65C156.408 699.503 176.123 667.92 195.651 636.149C239.963 659.273 284.839 681.832 329.151 705.143C265.123 713.979 201.283 722.815 137.256 731.65Z" fill="black" fill-opacity="0.05"/>
<path d="M374.778 685.592C406.698 669.048 438.805 652.693 470.725 636.149C490.253 667.92 509.78 699.879 529.308 731.65C465.468 722.815 401.44 714.167 337.6 705.143C349.617 697.999 362.385 692.172 374.778 685.592Z" fill="black" fill-opacity="0.05"/>
<path d="M335.91 707.399C363.699 710.595 391.301 714.919 419.09 718.679C455.328 723.567 491.379 728.83 527.618 733.53C518.981 738.23 509.78 741.426 500.955 745.562C445.94 769.437 390.737 793.312 335.723 817C335.91 780.529 335.347 743.87 335.91 707.399Z" fill="black" fill-opacity="0.05"/>
<path d="M276.952 714.543C294.79 712.287 312.627 709.091 330.465 707.587C330.841 744.058 330.465 780.529 330.465 817C266.437 789.553 202.597 761.354 138.382 734.095C155.656 730.711 173.494 729.019 190.956 726.387C219.684 722.439 248.412 718.491 276.952 714.543Z" fill="black" fill-opacity="0.05"/>
</svg>
