<svg width="19" height="23" viewBox="0 0 19 23" fill="none" xmlns="http://www.w3.org/2000/svg">
<path d="M17.5 18.4904C17.8852 18.4907 18.2556 18.6867 18.5344 19.0378C18.8132 19.3889 18.979 19.8682 18.9975 20.3763C19.016 20.8845 18.8858 21.3826 18.6338 21.7675C18.3818 22.1523 18.0274 22.3943 17.644 22.4434L17.5 22.4527H1.5C1.11478 22.4524 0.744405 22.2564 0.465613 21.9053C0.186821 21.5542 0.020988 21.0749 0.00247574 20.5668C-0.0160365 20.0586 0.114192 19.5605 0.366175 19.1756C0.618159 18.7908 0.972581 18.5488 1.356 18.4997L1.5 18.4904H17.5ZM17.5 9.24522C17.8978 9.24522 18.2794 9.45394 18.5607 9.82547C18.842 10.197 19 10.7009 19 11.2263C19 11.7518 18.842 12.2557 18.5607 12.6272C18.2794 12.9987 17.8978 13.2075 17.5 13.2075H1.5C1.10218 13.2075 0.720644 12.9987 0.43934 12.6272C0.158035 12.2557 0 11.7518 0 11.2263C0 10.7009 0.158035 10.197 0.43934 9.82547C0.720644 9.45394 1.10218 9.24522 1.5 9.24522H17.5ZM17.5 0C17.8978 0 18.2794 0.208724 18.5607 0.580256C18.842 0.951788 19 1.45569 19 1.98112C19 2.50654 18.842 3.01045 18.5607 3.38198C18.2794 3.75351 17.8978 3.96224 17.5 3.96224H1.5C1.10218 3.96224 0.720644 3.75351 0.43934 3.38198C0.158035 3.01045 0 2.50654 0 1.98112C0 1.45569 0.158035 0.951788 0.43934 0.580256C0.720644 0.208724 1.10218 0 1.5 0H17.5Z" fill="#1E356F"/>
</svg>
