<svg width="83" height="85" viewBox="0 0 83 85" fill="none" xmlns="http://www.w3.org/2000/svg">
<g clip-path="url(#clip0_1134_89)">
<mask id="mask0_1134_89" style="mask-type:luminance" maskUnits="userSpaceOnUse" x="0" y="0" width="83" height="85">
<path d="M83 0H0V85H83V0Z" fill="white"/>
</mask>
<g mask="url(#mask0_1134_89)">
<path d="M25.566 71.1164V79.0911C25.566 81.3595 24.4468 82.5571 22.4183 82.5571C20.3758 82.5571 19.2567 81.3172 19.2567 78.9925V71.1305H16.4588V79.0911C16.4588 83.008 18.6132 85.2482 22.3903 85.2482C26.1955 85.2482 28.3779 82.9657 28.3779 78.9643V71.1023L25.566 71.1164ZM35.8763 71.1164L29.7908 85.0369H32.6587L33.8338 82.3458L33.9178 82.1485H40.2411L41.4861 85.051H44.4239L38.3944 71.215L38.3385 71.1305L35.8763 71.1164ZM52.5519 71.1164L49.4182 80.6973L46.3685 71.1305H43.3747L48.1871 85.051H50.5094L53.6571 75.9068L56.8047 85.051H59.141L63.9394 71.1305H61.0296L57.9659 80.6973L54.8322 71.1164H52.5519ZM79.9995 71.1164V85.0228H82.7694V71.1164H79.9995ZM0.622559 71.1164V85.0369H3.42048V79.387H9.75776V85.0369H12.5696V71.1164H9.75776V76.7381H3.42048V71.1164H0.622559ZM66.2057 71.1305V85.0369H76.642V82.5008H68.9757V79.0488H74.0819V76.5127H68.9757V73.6666H76.3901V71.1305H66.2057ZM37.0654 74.6388L39.0659 79.3024H39.0519L39.1918 79.6265H34.953L35.0929 79.3024L37.0654 74.6388Z" fill="white"/>
<path d="M35.5546 -0.0356445C34.4355 0.0629822 31.4417 0.75337 31.4417 0.75337C24.6707 2.51456 23.0619 8.71396 23.0619 8.71396C22.7262 9.75658 22.5863 10.8274 22.5303 11.8277V13.1944C22.6143 15.3079 23.0899 16.8859 23.0899 16.8859C25.3562 27.0022 36.478 43.6137 38.8702 47.0939C39.038 47.2629 39.1779 47.2066 39.1779 47.2066C39.4298 47.1361 39.4158 46.8825 39.4158 46.8825C43.109 9.79885 35.5546 -0.0356445 35.5546 -0.0356445ZM47.7256 -0.0356445C47.7256 -0.0356445 40.1432 9.79885 43.8225 46.9107C43.8505 47.1502 44.0183 47.1925 44.0183 47.1925C44.2702 47.2911 44.3961 47.0516 44.3961 47.0516C46.8442 43.4728 57.91 26.9599 60.1623 16.8859C60.1623 16.8859 61.3794 12.0109 60.2043 8.71396C60.2043 8.71396 58.5255 2.43003 51.7406 0.767461C51.7546 0.767461 49.81 0.260236 47.7256 -0.0356445ZM12.7516 11.1092C12.7516 11.1092 6.28842 17.2804 5.98065 23.8179V24.8042C5.98065 24.8747 5.99464 24.9592 5.99464 25.0296C6.27443 30.2991 10.2195 33.427 10.2195 33.427C16.5568 39.6687 31.9313 47.5306 35.4987 49.32C35.5546 49.3341 35.7365 49.4045 35.8484 49.2636C35.8484 49.2636 35.9044 49.2214 35.9324 49.1368V48.9678C35.9324 48.9537 35.9184 48.9537 35.9184 48.9396C26.1396 27.4249 12.7516 11.0951 12.7516 11.1092ZM70.5146 11.1092C70.5146 11.1092 57.1686 27.3826 47.3898 48.8691C47.3898 48.8691 47.2779 49.1227 47.4598 49.2777C47.4598 49.2777 47.5157 49.32 47.5857 49.3341H47.7256C47.7536 49.32 47.7815 49.32 47.7955 49.3059C51.4608 47.4743 66.7234 39.6546 73.0467 33.4552C73.0467 33.4552 77.0478 30.2146 77.2576 25.0156C77.7332 17.7876 70.5146 11.0951 70.5146 11.1092ZM82.5317 32.4689C82.5317 32.4689 60.7779 44.2337 49.5302 51.8702C49.5302 51.8702 49.3204 52.0111 49.4043 52.2506C49.4043 52.2506 49.5162 52.4479 49.6701 52.4479C53.6991 52.462 68.9478 52.4761 69.3255 52.4056C69.3255 52.4056 71.298 52.3211 73.7322 51.3771C73.7322 51.3771 79.1602 49.6441 81.9721 43.4447C81.9721 43.4447 83.2591 40.8522 83.2731 37.203V37.048C83.2591 35.6531 83.0633 34.0892 82.5317 32.4689ZM0.734558 32.5253C-1.25197 38.6965 1.42005 43.6701 1.42005 43.6842C4.20397 49.5877 9.49204 51.3912 9.49204 51.3912C11.9402 52.4056 14.3884 52.4761 14.3884 52.4761C14.7661 52.5465 29.6091 52.4901 33.5821 52.462C33.75 52.462 33.8479 52.2929 33.8479 52.2929C33.8619 52.2788 33.8759 52.2506 33.8759 52.2365V52.0815C33.8479 51.9829 33.75 51.8984 33.75 51.8984C22.5163 44.2619 0.734558 32.5253 0.734558 32.5253ZM33.1344 54.35L7.5335 55.2517C10.3034 60.2394 14.9899 64.114 19.8583 62.9164C23.2158 62.071 30.8262 56.717 33.3443 54.9135L33.3303 54.8995C33.5261 54.7163 33.4562 54.5754 33.4562 54.5754C33.4002 54.3641 33.1344 54.3641 33.1344 54.35ZM50.0898 54.3641C50.0898 54.3781 49.866 54.4063 49.796 54.5754C49.796 54.5754 49.7401 54.8008 49.894 54.9276C52.3421 56.7029 59.7706 61.9301 63.3519 62.9446C63.3519 62.9446 63.8975 63.1277 64.8069 63.17H65.3525C67.7447 63.0855 71.9276 61.8456 75.7187 55.2799L50.0898 54.3641Z" fill="white"/>
</g>
</g>
<defs>
<clipPath id="clip0_1134_89">
<rect width="83" height="85" fill="white"/>
</clipPath>
</defs>
</svg>
