<svg width="587" height="201" viewBox="0 0 587 201" fill="none" xmlns="http://www.w3.org/2000/svg">
<path d="M419.683 112.182C418.428 113.52 416.904 114.59 415.202 115.214C413.32 115.927 411.348 116.195 409.287 116.195C405.702 116.195 402.834 115.036 400.863 112.806C398.891 110.577 397.816 107.277 397.726 102.997V97.379C397.726 93.0094 398.712 89.7099 400.594 87.3914C402.476 85.0728 405.254 83.9136 408.928 83.9136C412.334 83.9136 414.933 84.7162 416.725 86.4105C418.518 88.1048 419.503 90.78 419.772 94.347H413.589C413.409 92.3852 412.961 90.9584 412.334 90.245C410.273 88.5507 407.226 88.8182 405.613 90.8692C405.613 90.9584 405.523 90.9584 405.523 91.0476C404.716 92.296 404.358 94.2579 404.268 97.0223V102.729C404.268 105.583 404.716 107.634 405.523 108.972C406.509 110.309 408.122 111.112 409.735 110.934C410.81 111.023 411.886 110.755 412.782 110.22L413.32 109.863V104.067H408.839V99.2516H419.683V112.182Z" fill="#FFD100"/>
<path d="M438.234 104.335H435.097V115.838H428.734V84.3594H438.951C442.177 84.3594 444.597 85.162 446.389 86.8563C448.092 88.4614 448.988 90.8691 448.988 93.9011C448.988 98.0923 447.464 101.035 444.417 102.64L449.974 115.481V115.749H443.163L438.234 104.335ZM435.007 98.984H438.592C439.668 99.0732 440.743 98.6273 441.46 97.7356C442.177 96.7547 442.446 95.5954 442.446 94.347C442.446 91.2258 441.191 89.6207 438.771 89.6207H435.007V98.984Z" fill="#FFD100"/>
<path d="M479.01 102.908C479.01 107.099 478.024 110.399 476.053 112.717C474.081 115.036 471.303 116.195 467.718 116.195C464.581 116.373 461.445 115.125 459.384 112.717C457.322 110.399 456.337 107.188 456.337 102.997V97.6466C456.337 93.3662 457.322 89.9775 459.384 87.5698C463.685 82.9327 470.855 82.6652 475.515 86.9456C475.694 87.1239 475.873 87.3023 476.053 87.4806C478.114 89.8883 479.1 93.1878 479.1 97.4682V102.908H479.01ZM472.647 97.6466C472.647 94.793 472.199 92.7419 471.392 91.3151C470.048 89.2641 467.27 88.6399 465.209 89.8883C464.671 90.245 464.223 90.6909 463.864 91.226C463.058 92.5636 462.61 94.6146 462.61 97.2899V102.908C462.61 105.672 463.058 107.723 463.864 108.972C464.671 110.309 466.105 111.023 467.718 110.934C469.242 111.023 470.675 110.309 471.392 109.061C472.199 107.812 472.647 105.851 472.647 103.086V97.6466Z" fill="#FFD100"/>
<path d="M507.777 84.3594V106.118C507.777 109.417 506.881 111.914 505.089 113.609C503.297 115.392 500.698 116.195 497.382 116.195C493.976 116.195 491.377 115.303 489.585 113.52C487.793 111.736 486.896 109.239 486.896 105.85V84.3594H493.349V106.029C493.259 107.366 493.528 108.704 494.245 109.863C494.783 110.666 495.858 111.023 497.382 111.023C498.905 111.023 499.891 110.666 500.518 109.863C501.235 108.704 501.504 107.456 501.415 106.118V84.3594H507.777Z" fill="#FFD100"/>
<path d="M521.668 104.691V115.749H515.305V84.3596H526.06C528.838 84.1812 531.616 85.2513 533.498 87.2132C535.38 89.2642 536.366 91.9394 536.276 94.7038C536.455 97.3791 535.38 100.054 533.498 102.016C531.616 103.8 529.107 104.691 525.88 104.691H521.668ZM521.668 99.4301H526.06C527.135 99.5193 528.21 99.0734 528.927 98.2708C529.644 97.2899 530.003 96.0415 529.913 94.793C530.003 93.4554 529.644 92.1178 528.927 91.0477C528.3 90.1559 527.225 89.6209 526.149 89.6209H521.668V99.4301Z" fill="#FFD100"/>
<path d="M215.801 110.488H227.003V115.749H209.438V84.3594H215.801V110.488Z" fill="#FFD100"/>
<path d="M252.365 102.194H242.418V110.488H254.158V115.749H236.055V84.3594H254.158V89.6207H242.418V97.0222H252.365V102.194Z" fill="#FFD100"/>
<path d="M274.142 107.188L279.43 84.3594H286.51L277.369 115.838H270.737L261.686 84.3594H268.765L274.142 107.188Z" fill="#FFD100"/>
<path d="M310.527 102.194H300.58V110.488H312.32V115.749H294.217V84.3594H312.32V89.6207H300.58V97.0222H310.527V102.194Z" fill="#FFD100"/>
<path d="M330.96 104.335H327.824V115.838H321.461V84.3594H331.588C334.814 84.3594 337.234 85.162 339.026 86.8563C340.818 88.4614 341.625 90.8691 341.625 93.9011C341.625 98.0923 340.102 100.946 337.055 102.64L342.611 115.481V115.749H335.8L330.96 104.335ZM327.734 98.984H331.319C332.394 99.0732 333.47 98.6273 334.187 97.7356C334.904 96.7547 335.173 95.5954 335.173 94.347C335.173 91.2258 333.918 89.6207 331.498 89.6207H327.734V98.984Z" fill="#FFD100"/>
<path d="M361.162 95.1495L365.464 84.3594H372.812L365.374 99.965L372.991 115.838H365.643L361.251 104.87L356.95 115.838H349.511L357.129 99.965L349.691 84.3594H357.039L361.162 95.1495Z" fill="#FFD100"/>
<path d="M536.276 50.4731H209.438V52.2566H536.276V50.4731Z" fill="#FFD100"/>
<path d="M536.276 148.744H209.438V150.527H536.276V148.744Z" fill="#FFD100"/>
<path d="M114.443 137.419V148.566L146.078 120.386L177.713 148.566V137.419L146.078 109.15L114.443 137.419Z" fill="#FFD100"/>
<path d="M114.443 108.169V119.405L146.078 91.1369L177.713 119.405V108.169L146.078 79.9009L114.443 108.169Z" fill="#FFD100"/>
<path d="M114.443 79.1874V88.1048L116.504 88.5507L146.078 62.0658L177.713 90.3342V79.1874L146.078 50.9189L114.443 79.1874Z" fill="#FFD100"/>
<path d="M166.063 50.4731L177.713 60.9066V50.4731H166.063Z" fill="#FFD100"/>
<path d="M135.234 150.26H158.266L146.078 139.38L135.234 149.1V150.26Z" fill="#FFD100"/>
<path d="M63.8083 137.329C63.8979 139.113 63.1809 140.807 61.9263 141.966C60.4028 143.126 58.4312 143.661 56.4596 143.572H54.7568V150.26H50.724V131.444H56.818C58.7 131.355 60.4924 131.8 62.0159 132.871C63.2706 134.03 63.8979 135.635 63.8083 137.329ZM54.7568 140.361H56.1011C57.0869 140.45 58.0727 140.183 58.8793 139.648C59.5066 139.113 59.8651 138.31 59.7754 137.508C59.8651 136.705 59.5962 135.992 58.9689 135.457C58.2519 134.922 57.4454 134.743 56.5492 134.743H54.7568V140.361Z" fill="#FFD100"/>
<path d="M78.2368 150.26H67.393V131.444H78.3265V134.654H71.4258V138.756H77.8784V142.056H71.4258V146.871H78.3265V150.26H78.2368Z" fill="#FFD100"/>
<path d="M99.3867 140.807C99.3867 143.928 98.5802 146.336 97.0567 148.03C95.5332 149.724 93.2927 150.527 90.3353 150.527C87.3779 150.527 85.2271 149.724 83.7035 148.03C82.18 146.336 81.3735 143.928 81.3735 140.807C81.3735 137.686 82.18 135.278 83.7035 133.584C85.2271 131.889 87.4675 131.087 90.4249 131.087C93.3823 131.087 95.5332 131.889 97.0567 133.584C98.5802 135.278 99.3867 137.686 99.3867 140.807ZM85.5855 140.807C85.4959 142.501 85.8544 144.106 86.7506 145.533C87.6468 146.603 88.991 147.228 90.3353 147.138C93.5616 147.138 95.1747 144.998 95.1747 140.807C95.1747 136.616 93.5616 134.476 90.4249 134.476C89.0806 134.386 87.7364 135.011 86.8402 136.081C85.8544 137.418 85.4959 139.113 85.5855 140.807Z" fill="#FFD100"/>
<path d="M116.414 137.33C116.504 139.113 115.787 140.807 114.532 141.967C113.009 143.126 111.037 143.661 109.066 143.572H107.363V150.26H103.33V131.355H109.334C111.216 131.266 113.009 131.712 114.532 132.782C115.877 134.03 116.504 135.635 116.414 137.33ZM107.363 140.361H108.707C109.693 140.451 110.679 140.183 111.485 139.648C112.113 139.113 112.471 138.31 112.381 137.508C112.471 136.705 112.202 135.992 111.575 135.457C110.858 134.922 110.051 134.743 109.155 134.743H107.363V140.361Z" fill="#FFD100"/>
<path d="M119.999 150.26V131.444H124.032V146.96H131.739V150.26H119.999Z" fill="#FFD100"/>
<path d="M145.809 150.26H134.876V131.444H145.809V134.654H138.908V138.756H145.271V142.056H138.908V146.871H145.809V150.26Z" fill="#FFD100"/>
<path d="M87.109 80.9707V109.507C87.1987 112.539 86.3921 115.481 84.9582 118.067C83.4347 120.564 81.2838 122.526 78.5953 123.685C75.4587 125.023 72.1428 125.736 68.7373 125.647C63.0017 125.647 58.6104 124.22 55.4738 121.278C52.3371 118.335 50.724 114.411 50.724 109.328V80.9707H60.1339V107.991C60.1339 111.379 60.8509 113.876 62.1951 115.481C63.5394 117.086 65.8695 117.889 69.0061 117.889C72.0532 117.889 74.2936 117.086 75.7275 115.481C77.1614 113.876 77.7887 111.379 77.7887 107.991V80.9707H87.109Z" fill="#FFD100"/>
<path d="M128.692 94.7036C128.692 99.4299 127.168 103.086 124.211 105.583C121.254 108.08 116.952 109.328 111.485 109.328H107.452V125.023H98.0425V80.9707H112.202C117.579 80.9707 121.702 82.13 124.48 84.4485C127.258 86.7671 128.692 90.1557 128.692 94.7036ZM107.452 101.748H110.589C113.457 101.748 115.608 101.213 117.042 100.054C118.475 98.8057 119.282 97.0222 119.192 95.0603C119.192 92.8309 118.565 91.2258 117.4 90.1557C116.235 89.0856 114.353 88.5506 111.754 88.5506H107.452V101.748Z" fill="#FFD100"/>
<path d="M135.055 120.832C134.965 119.405 135.413 117.978 136.399 116.997C137.475 116.106 138.908 115.571 140.342 115.749C141.776 115.66 143.21 116.106 144.286 117.086C146.168 119.227 146.168 122.437 144.286 124.666C143.21 125.647 141.866 126.093 140.432 126.093C138.998 126.182 137.564 125.736 136.489 124.756C135.413 123.596 134.965 122.169 135.055 120.832ZM144.106 110.488H136.668L135.144 80.9707H145.63L144.106 110.488Z" fill="#FFD100"/>
<path d="M50.724 74.9961V50.6514H55.9219V70.8049H65.8695V75.0853H50.724V74.9961Z" fill="#FFD100"/>
<path d="M84.2412 74.9961H70.0815V50.6514H84.2412V54.9318H75.2794V60.2822H83.6139V64.5626H75.2794V70.8049H84.2412V74.9961Z" fill="#FFD100"/>
<path d="M103.33 50.6514H108.617L100.283 75.0853H94.637L86.3025 50.6514H91.5003L96.1605 65.0977C96.4294 65.9894 96.6982 66.9704 96.9671 68.1296C97.2359 69.2889 97.4152 70.0915 97.5048 70.5373C97.7736 68.7539 98.2217 66.9704 98.7594 65.1869L103.33 50.6514Z" fill="#FFD100"/>
<path d="M125.735 74.9961H111.575V50.6514H125.735V54.9318H116.773V60.2822H125.107V64.5626H116.773V70.8049H125.735V74.9961Z" fill="#FFD100"/>
<path d="M130.843 74.9961V50.6514H136.041V70.8049H145.988V75.0853H130.843V74.9961Z" fill="#FFD100"/>
</svg>
