<svg width="732" height="732" viewBox="0 0 732 732" fill="none" xmlns="http://www.w3.org/2000/svg">
<path fill-rule="evenodd" clip-rule="evenodd" d="M584.834 447.625L585.025 447.362L585.025 447.037L585.026 377.798L585.027 308.559L585.027 308.234L584.836 307.971L528.366 230.239L527.145 231.961L577.54 301.33L532.439 260.458L522.44 238.187L521.048 239.97L528.742 257.108L516.4 245.923L515.166 247.504L529.317 260.328L501.464 263.686L499.491 265.938L529.95 262.266L482.345 364.934C482.875 365.433 483.38 365.918 483.871 366.399L531.597 263.467L582.481 376.798L488.934 376.795C488.558 377.405 488.106 378.079 487.566 378.795L582.481 378.798L531.594 492.126L481.777 384.676C481.221 385.146 480.689 385.585 480.183 385.993L529.946 493.327L466.223 485.641L464.456 486.627L464.529 487.451L529.313 495.265L469.946 549.062L470.165 551.562L528.738 498.485L501.902 558.252L471.618 568.091L471.798 570.135L502.942 560.017L503.251 559.916L503.442 559.653L584.834 447.625ZM448.314 577.766L447.975 575.773L440.917 578.066L447.209 572.364L446.635 570.185L437.26 578.681L405.299 480.306L423.549 482.508L423.001 480.427L405.674 478.337L417.988 461.388L417.33 458.89L404.209 476.95L375.968 390.022L374.379 391.604L402.307 477.568L316.145 449.569L315.36 450.35L314.499 451.137L401.937 479.551L310.205 564.723L291.929 471.762L291.247 472.385L290.186 473.262L308.166 564.72L254.716 534.082L254.852 536.465L304.927 565.168L256.19 559.888L256.306 561.912L309.255 567.649L362.06 597.917L256.401 563.581L256.506 565.424L256.406 565.686L370.63 602.805L370.939 602.905L371.248 602.805L437.095 581.411L448.314 577.766ZM177.909 476.327L180.479 476.462L158.928 446.796L172.347 382.67L192.098 477.074L194.164 477.183L173.775 379.727L267.345 431.865L267.853 431.237L268.731 430.347L174.402 377.787L282.651 317.477L282.11 317.2L280.028 316.649L173.775 375.847L191.09 293.099L189.154 292.586L172.347 372.904L158.93 308.777L173.672 288.486L171.599 287.937L157.052 307.96L156.861 308.223L156.861 308.548L156.86 377.787L156.859 447.025L156.859 447.35L157.05 447.613L177.909 476.327ZM190.022 262.579L192.34 262.792L196.622 256.898L195.331 263.067L197.336 263.251L199.219 254.251L213.67 264.751L217.565 265.109L200.395 252.633L308.172 190.861L292.601 270.051L293.924 270.13L294.618 270.159L310.211 190.858L400.314 274.525L403.39 274.652L311.863 189.662L435.364 176.289L403.404 274.652L405.479 274.738L437.266 176.907L482.843 218.211L484.393 216.917L440.923 177.522L501.908 197.34L504.056 202.126L506.601 200.279L503.447 195.938L503.256 195.676L502.947 195.575L437.101 174.177L371.255 152.78L370.946 152.679L370.637 152.78L238.944 195.568L238.635 195.668L238.444 195.931L197.748 251.946L190.022 262.579ZM425.129 272.89L408.696 274.871L421.14 275.385L422.84 275.18L425.129 272.89ZM458.327 349.724L458.478 353.333L469.501 368.507C469.523 368.485 469.545 368.463 469.567 368.441C470.042 367.961 470.504 367.516 470.952 367.102L458.327 349.724ZM462.897 376.795L459.455 376.795L459.538 378.795L462.679 378.795L462.17 378.143C462.17 378.143 462.385 377.659 462.897 376.795ZM460.692 399.207L461.516 398.073L467.02 393.9L460.822 402.431L460.692 399.207ZM283.75 318.037L283.748 415.136L285.748 413.11L285.75 319.058L283.75 318.037ZM294.695 323.625L340.927 357.218L341.116 357.027L342.337 355.771L306.136 329.466L294.695 323.625ZM534.482 265.008L583.027 309.002L583.026 373.13L534.482 265.008ZM371.059 154.819L432.044 174.637L314.22 187.395L371.059 154.819ZM362.067 157.667L309.261 187.932L248.75 194.485L362.067 157.667ZM304.933 190.413L239.801 197.466L202.11 249.344L304.933 190.413ZM158.861 318.21L171.325 377.787L158.859 437.364L158.86 377.787L158.861 318.21ZM314.214 568.186L371.052 600.766L432.037 580.951L314.214 568.186ZM403.397 480.924L435.357 579.299L311.857 565.919L403.397 480.924ZM507.503 550.661L532.435 495.136L577.537 454.266L507.503 550.661ZM534.478 490.585L583.025 446.594L583.026 382.467L534.478 490.585Z" fill="white"/>
<path fill-rule="evenodd" clip-rule="evenodd" d="M286.864 476.009L291.86 482.886L331.398 495.732L370.936 508.579L410.476 495.732L425.841 490.74L425.091 487.876L417.795 491.984C419.79 487.948 421.163 486.084 423.84 483.498L418.041 461.499L412.225 464.793L416.735 457.379L415.005 450.06L401.685 424.055L395.137 427.822L395.537 426.862L396.311 425.234L399.835 420.444L392.287 405.707L384.818 409.96L386.965 405.994L390.242 401.716L381.455 384.56L315.359 450.35L291.247 472.385L286.864 476.009ZM464.845 462.476L474.453 449.253L498.891 415.621L498.894 332.477L474.46 298.844L471.405 294.64L456.641 309.259L459.723 383.241L462.923 379.108L462.169 378.143C462.169 378.143 463.982 374.079 469.566 368.441C475.151 362.802 478.993 361.881 478.993 361.881C483.876 366.214 486.361 368.799 490.554 373.553C490.554 373.553 489.021 378.279 483.478 383.201C477.935 388.123 474.178 390.32 474.178 390.32L473.036 389.338L460.672 398.713L462.389 441.456L464.845 462.476ZM437.024 260.988L370.948 239.519L360.311 242.975L370.009 252.907C366.751 259.361 364.39 262.456 354.13 270.029L352.557 268.985L348.952 272.201L422.575 275.444L437.024 260.988ZM352.176 245.618L331.408 252.366L291.869 265.212L288.529 269.809L293.923 270.13L333.134 271.323L342.864 258.777L341.699 257.885C345.899 251.774 348.937 248.185 352.176 245.618ZM258.665 310.909L242.993 332.477L242.992 374.049L242.99 415.621L260.729 440.038L267.852 431.237L341.115 357.027L347.417 350.542L330.264 341.748L326.805 344.869L321.509 347.616L326.805 339.467L311.856 332.204L303.887 337.014L307.565 329.941L282.109 317.2L274.861 315.206L267.046 320.168L270.119 313.933L258.665 310.909Z" fill="white"/>
<path d="M291.86 482.886L290.646 483.767L290.933 484.162L291.396 484.312L291.86 482.886ZM286.864 476.009L285.908 474.853L284.822 475.751L285.65 476.891L286.864 476.009ZM331.398 495.732L330.935 497.159L331.398 495.732ZM370.936 508.579L370.473 510.005L370.936 510.156L371.4 510.005L370.936 508.579ZM410.476 495.732L410.939 497.159L410.476 495.732ZM425.841 490.74L426.304 492.167L427.651 491.729L427.292 490.36L425.841 490.74ZM425.091 487.876L426.542 487.496L426.05 485.614L424.355 486.569L425.091 487.876ZM417.795 491.984L416.45 491.319L414.297 495.675L418.531 493.291L417.795 491.984ZM423.84 483.498L424.883 484.576L425.515 483.966L425.291 483.115L423.84 483.498ZM418.041 461.499L419.492 461.117L418.996 459.235L417.302 460.194L418.041 461.499ZM412.225 464.793L410.943 464.013L407.947 468.939L412.964 466.098L412.225 464.793ZM416.735 457.379L418.017 458.158L418.337 457.632L418.195 457.033L416.735 457.379ZM415.005 450.06L416.465 449.715L416.423 449.538L416.34 449.376L415.005 450.06ZM401.685 424.055L403.02 423.371L402.302 421.97L400.937 422.755L401.685 424.055ZM395.137 427.822L393.753 427.245L392.052 431.328L395.885 429.122L395.137 427.822ZM395.537 426.862L394.183 426.217L394.167 426.251L394.153 426.285L395.537 426.862ZM396.311 425.234L395.103 424.345L395.018 424.461L394.956 424.59L396.311 425.234ZM399.835 420.444L401.043 421.332L401.593 420.585L401.17 419.76L399.835 420.444ZM392.287 405.707L393.622 405.023L392.907 403.628L391.545 404.404L392.287 405.707ZM384.818 409.96L383.499 409.245L381.001 413.859L385.56 411.263L384.818 409.96ZM386.965 405.994L385.774 405.081L385.702 405.175L385.646 405.279L386.965 405.994ZM390.242 401.716L391.433 402.628L392.01 401.875L391.577 401.032L390.242 401.716ZM381.455 384.56L382.79 383.876L381.853 382.047L380.397 383.497L381.455 384.56ZM315.359 450.35L316.371 451.457L316.395 451.436L316.418 451.413L315.359 450.35ZM291.247 472.385L292.203 473.541L292.231 473.517L292.259 473.492L291.247 472.385ZM474.453 449.253L473.24 448.372L474.453 449.253ZM464.845 462.476L463.355 462.65L463.801 466.465L466.059 463.358L464.845 462.476ZM498.891 415.621L500.104 416.503L500.391 416.108L500.391 415.621L498.891 415.621ZM498.894 332.477L500.394 332.477L500.395 331.99L500.108 331.595L498.894 332.477ZM474.46 298.844L473.246 299.726L474.46 298.844ZM471.405 294.64L472.618 293.758L471.591 292.345L470.35 293.574L471.405 294.64ZM456.641 309.259L455.586 308.193L455.115 308.659L455.142 309.321L456.641 309.259ZM459.723 383.241L458.224 383.303L458.395 387.406L460.909 384.159L459.723 383.241ZM462.923 379.108L464.109 380.026L464.823 379.104L464.105 378.185L462.923 379.108ZM462.169 378.143L460.799 377.532L460.432 378.355L460.987 379.066L462.169 378.143ZM469.566 368.441L470.632 369.496V369.496L469.566 368.441ZM478.993 361.881L479.989 360.759L479.404 360.24L478.643 360.422L478.993 361.881ZM490.554 373.553L491.981 374.015L492.244 373.202L491.679 372.561L490.554 373.553ZM474.178 390.32L473.199 391.457L474.011 392.155L474.935 391.615L474.178 390.32ZM473.036 389.338L474.014 388.201L473.096 387.41L472.13 388.143L473.036 389.338ZM460.672 398.713L459.766 397.517L459.142 397.99L459.173 398.773L460.672 398.713ZM462.389 441.456L460.891 441.516L460.893 441.574L460.9 441.63L462.389 441.456ZM370.948 239.519L371.411 238.092L370.948 237.942L370.484 238.092L370.948 239.519ZM437.024 260.988L438.085 262.048L439.815 260.318L437.488 259.561L437.024 260.988ZM360.311 242.975L359.847 241.549L357.55 242.295L359.237 244.023L360.311 242.975ZM370.009 252.907L371.348 253.583L371.831 252.626L371.082 251.859L370.009 252.907ZM354.13 270.029L353.3 271.278L354.175 271.859L355.02 271.236L354.13 270.029ZM352.557 268.985L353.386 267.735L352.422 267.095L351.558 267.866L352.557 268.985ZM348.952 272.201L347.953 271.082L345.202 273.538L348.886 273.7L348.952 272.201ZM422.575 275.444L422.509 276.943L423.169 276.972L423.636 276.505L422.575 275.444ZM331.408 252.366L330.945 250.939L331.408 252.366ZM352.176 245.618L353.107 246.794L351.712 244.192L352.176 245.618ZM291.869 265.212L291.405 263.785L290.942 263.936L290.655 264.33L291.869 265.212ZM288.529 269.809L287.315 268.927L285.705 271.143L288.44 271.306L288.529 269.809ZM293.923 270.13L293.834 271.628L293.856 271.629L293.878 271.63L293.923 270.13ZM333.134 271.323L333.089 272.822L333.852 272.845L334.319 272.242L333.134 271.323ZM342.864 258.777L344.05 259.696L344.975 258.503L343.776 257.586L342.864 258.777ZM341.699 257.885L340.463 257.036L339.656 258.21L340.787 259.077L341.699 257.885ZM242.993 332.477L241.78 331.595L241.493 331.989L241.493 332.477L242.993 332.477ZM258.665 310.909L259.048 309.459L258.055 309.197L257.451 310.028L258.665 310.909ZM242.992 374.049L241.492 374.049L242.992 374.049ZM242.99 415.621L241.49 415.621L241.49 416.108L241.776 416.503L242.99 415.621ZM260.729 440.038L259.516 440.92L260.665 442.502L261.895 440.982L260.729 440.038ZM267.852 431.237L266.785 430.183L266.733 430.236L266.686 430.293L267.852 431.237ZM341.115 357.027L342.183 358.081L342.191 358.073L341.115 357.027ZM347.417 350.542L348.493 351.588L349.907 350.133L348.102 349.207L347.417 350.542ZM330.264 341.748L330.949 340.413L330.028 339.941L329.259 340.634L330.264 341.748ZM326.805 344.869L327.495 346.201L327.667 346.112L327.81 345.983L326.805 344.869ZM321.509 347.616L320.251 346.799L317.155 351.565L322.2 348.948L321.509 347.616ZM326.805 339.467L328.063 340.284L328.988 338.86L327.46 338.117L326.805 339.467ZM311.856 332.204L312.512 330.855L311.779 330.499L311.081 330.92L311.856 332.204ZM303.887 337.014L302.556 336.322L300.095 341.055L304.662 338.299L303.887 337.014ZM307.565 329.941L308.896 330.633L309.599 329.281L308.236 328.6L307.565 329.941ZM282.109 317.2L282.781 315.859L282.649 315.793L282.507 315.754L282.109 317.2ZM274.861 315.206L275.259 313.76L274.619 313.584L274.058 313.94L274.861 315.206ZM267.046 320.168L265.7 319.505L263.337 324.299L267.85 321.434L267.046 320.168ZM270.119 313.933L271.465 314.596L272.276 312.951L270.502 312.483L270.119 313.933ZM331.398 495.732L330.391 496.844L330.89 497.296L331.56 497.224L331.398 495.732ZM474.453 449.253L475.199 450.555L475.783 450.22L475.921 449.561L474.453 449.253ZM474.46 298.844L475.928 298.537L475.79 297.878L475.205 297.543L474.46 298.844ZM331.408 252.366L331.57 250.874L330.9 250.802L330.401 251.254L331.408 252.366ZM242.992 374.049L241.623 373.434L241.347 374.049L241.623 374.663L242.992 374.049ZM293.073 482.004L288.077 475.127L285.65 476.891L290.646 483.767L293.073 482.004ZM331.862 494.306L292.323 481.459L291.396 484.312L330.935 497.159L331.862 494.306ZM371.4 507.152L331.862 494.306L330.935 497.159L370.473 510.005L371.4 507.152ZM410.012 494.306L370.473 507.152L371.4 510.005L410.939 497.159L410.012 494.306ZM425.377 489.314L410.012 494.306L410.939 497.159L426.304 492.167L425.377 489.314ZM427.292 490.36L426.542 487.496L423.64 488.256L424.39 491.12L427.292 490.36ZM424.355 486.569L417.059 490.677L418.531 493.291L425.827 489.183L424.355 486.569ZM419.14 492.648C421.067 488.75 422.342 487.031 424.883 484.576L422.798 482.419C419.984 485.137 418.513 487.146 416.45 491.319L419.14 492.648ZM425.291 483.115L419.492 461.117L416.591 461.882L422.39 483.88L425.291 483.115ZM417.302 460.194L411.486 463.487L412.964 466.098L418.78 462.804L417.302 460.194ZM413.506 465.572L418.017 458.158L415.454 456.599L410.943 464.013L413.506 465.572ZM418.195 457.033L416.465 449.715L413.545 450.405L415.276 457.724L418.195 457.033ZM416.34 449.376L403.02 423.371L400.35 424.739L413.67 450.744L416.34 449.376ZM400.937 422.755L394.389 426.522L395.885 429.122L402.433 425.355L400.937 422.755ZM396.522 428.399L396.922 427.438L394.153 426.285L393.753 427.245L396.522 428.399ZM396.892 427.506L397.666 425.878L394.956 424.59L394.183 426.217L396.892 427.506ZM397.52 426.123L401.043 421.332L398.627 419.555L395.103 424.345L397.52 426.123ZM401.17 419.76L393.622 405.023L390.952 406.391L398.5 421.127L401.17 419.76ZM391.545 404.404L384.076 408.656L385.56 411.263L393.029 407.011L391.545 404.404ZM386.137 410.674L388.284 406.708L385.646 405.279L383.499 409.245L386.137 410.674ZM388.156 406.906L391.433 402.628L389.052 400.803L385.774 405.081L388.156 406.906ZM391.577 401.032L382.79 383.876L380.12 385.244L388.907 402.399L391.577 401.032ZM380.397 383.497L314.301 449.287L316.418 451.413L382.513 385.623L380.397 383.497ZM314.348 449.243L290.235 471.278L292.259 473.492L316.371 451.457L314.348 449.243ZM290.291 471.229L285.908 474.853L287.819 477.165L292.203 473.541L290.291 471.229ZM473.24 448.372L463.632 461.594L466.059 463.358L475.667 450.135L473.24 448.372ZM497.677 414.739L473.24 448.372L475.667 450.135L500.104 416.503L497.677 414.739ZM497.394 332.477L497.391 415.621L500.391 415.621L500.394 332.477L497.394 332.477ZM473.246 299.726L497.681 333.359L500.108 331.595L475.673 297.963L473.246 299.726ZM470.191 295.522L473.246 299.726L475.673 297.963L472.618 293.758L470.191 295.522ZM470.35 293.574L455.586 308.193L457.697 310.324L472.46 295.706L470.35 293.574ZM455.142 309.321L458.224 383.303L461.222 383.178L458.14 309.196L455.142 309.321ZM460.909 384.159L464.109 380.026L461.737 378.19L458.537 382.322L460.909 384.159ZM464.105 378.185L463.351 377.22L460.987 379.066L461.74 380.031L464.105 378.185ZM462.169 378.143C463.539 378.754 463.539 378.754 463.539 378.754C463.539 378.755 463.538 378.755 463.538 378.755C463.538 378.756 463.538 378.756 463.538 378.756C463.538 378.757 463.537 378.757 463.537 378.757C463.537 378.758 463.538 378.757 463.538 378.755C463.54 378.752 463.543 378.745 463.548 378.734C463.559 378.712 463.576 378.674 463.602 378.623C463.654 378.519 463.736 378.357 463.855 378.141C464.092 377.709 464.47 377.063 465.02 376.24C466.121 374.595 467.91 372.245 470.632 369.496L468.501 367.385C465.638 370.275 463.729 372.775 462.527 374.572C461.926 375.47 461.502 376.192 461.224 376.698C461.085 376.952 460.983 377.151 460.914 377.291C460.879 377.362 460.852 377.417 460.833 377.458C460.824 377.478 460.816 377.494 460.811 377.506C460.808 377.513 460.805 377.518 460.804 377.522C460.803 377.524 460.802 377.526 460.801 377.528C460.801 377.528 460.8 377.529 460.8 377.53C460.8 377.53 460.8 377.531 460.8 377.531C460.799 377.531 460.799 377.532 462.169 378.143ZM470.632 369.496C473.331 366.771 475.578 365.217 477.111 364.353C477.878 363.92 478.469 363.659 478.851 363.51C479.042 363.436 479.181 363.389 479.264 363.363C479.306 363.35 479.334 363.342 479.347 363.339C479.354 363.337 479.357 363.336 479.356 363.336C479.356 363.336 479.355 363.337 479.352 363.337C479.351 363.337 479.35 363.338 479.348 363.338C479.348 363.338 479.347 363.338 479.346 363.339C479.346 363.339 479.345 363.339 479.345 363.339C479.344 363.339 479.343 363.339 478.993 361.881C478.643 360.422 478.643 360.422 478.642 360.422C478.641 360.423 478.641 360.423 478.64 360.423C478.639 360.423 478.638 360.423 478.637 360.424C478.634 360.424 478.631 360.425 478.628 360.426C478.622 360.427 478.616 360.429 478.608 360.431C478.592 360.435 478.573 360.44 478.55 360.446C478.505 360.459 478.444 360.476 478.37 360.5C478.221 360.546 478.017 360.615 477.761 360.715C477.248 360.915 476.529 361.237 475.637 361.74C473.853 362.746 471.386 364.472 468.501 367.385L470.632 369.496ZM477.998 363.003C482.827 367.288 485.269 369.827 489.429 374.545L491.679 372.561C487.454 367.77 484.926 365.14 479.989 360.759L477.998 363.003ZM490.554 373.553C489.127 373.09 489.127 373.089 489.127 373.089C489.127 373.089 489.127 373.088 489.127 373.088C489.128 373.087 489.128 373.087 489.128 373.087C489.128 373.086 489.128 373.085 489.128 373.085C489.129 373.084 489.128 373.085 489.128 373.087C489.127 373.09 489.124 373.098 489.12 373.11C489.111 373.134 489.097 373.175 489.075 373.233C489.031 373.348 488.96 373.526 488.856 373.761C488.648 374.229 488.311 374.919 487.808 375.76C486.8 377.443 485.125 379.732 482.482 382.079L484.474 384.323C487.373 381.748 489.237 379.213 490.381 377.302C490.953 376.346 491.346 375.547 491.599 374.976C491.726 374.69 491.817 374.461 491.879 374.298C491.91 374.217 491.934 374.152 491.95 374.104C491.959 374.08 491.965 374.061 491.97 374.046C491.973 374.039 491.975 374.032 491.977 374.027C491.977 374.025 491.978 374.023 491.979 374.021C491.979 374.02 491.979 374.019 491.98 374.018C491.98 374.017 491.98 374.017 491.98 374.017C491.98 374.016 491.981 374.015 490.554 373.553ZM482.482 382.079C479.753 384.502 477.47 386.249 475.878 387.385C475.082 387.953 474.458 388.368 474.039 388.639C473.829 388.774 473.67 388.873 473.565 388.937C473.513 388.969 473.475 388.993 473.45 389.007C473.438 389.014 473.43 389.02 473.425 389.023C473.422 389.024 473.42 389.025 473.42 389.025C473.419 389.026 473.419 389.026 473.419 389.026C473.419 389.026 473.42 389.025 473.42 389.025C473.42 389.025 473.42 389.025 473.42 389.025C473.42 389.025 473.42 389.025 474.178 390.32C474.935 391.615 474.935 391.615 474.935 391.614C474.935 391.614 474.936 391.614 474.936 391.614C474.936 391.614 474.937 391.614 474.937 391.613C474.938 391.613 474.939 391.612 474.941 391.611C474.944 391.609 474.948 391.607 474.952 391.604C474.962 391.599 474.975 391.591 474.992 391.581C475.025 391.561 475.073 391.532 475.134 391.494C475.257 391.419 475.435 391.308 475.664 391.16C476.122 390.865 476.784 390.424 477.62 389.827C479.292 388.634 481.659 386.822 484.474 384.323L482.482 382.079ZM475.156 389.183L474.014 388.201L472.058 390.475L473.199 391.457L475.156 389.183ZM472.13 388.143L459.766 397.517L461.578 399.908L473.942 390.533L472.13 388.143ZM459.173 398.773L460.891 441.516L463.888 441.396L462.171 398.652L459.173 398.773ZM460.9 441.63L463.355 462.65L466.335 462.302L463.879 441.282L460.9 441.63ZM370.484 240.946L436.56 262.415L437.488 259.561L371.411 238.092L370.484 240.946ZM360.774 244.402L371.411 240.946L370.484 238.092L359.847 241.549L360.774 244.402ZM359.237 244.023L368.936 253.955L371.082 251.859L361.384 241.927L359.237 244.023ZM368.67 252.231C367.068 255.405 365.733 257.659 363.581 260.044C361.405 262.455 358.349 265.05 353.239 268.822L355.02 271.236C360.17 267.434 363.425 264.696 365.809 262.053C368.217 259.384 369.692 256.863 371.348 253.583L368.67 252.231ZM354.959 268.779L353.386 267.735L351.727 270.234L353.3 271.278L354.959 268.779ZM351.558 267.866L347.953 271.082L349.951 273.321L353.555 270.104L351.558 267.866ZM348.886 273.7L422.509 276.943L422.641 273.946L349.018 270.703L348.886 273.7ZM423.636 276.505L438.085 262.048L435.963 259.928L421.514 274.384L423.636 276.505ZM331.872 253.792L352.639 247.045L351.712 244.192L330.945 250.939L331.872 253.792ZM292.332 266.639L331.872 253.792L330.945 250.939L291.405 263.785L292.332 266.639ZM289.742 270.69L293.082 266.094L290.655 264.33L287.315 268.927L289.742 270.69ZM288.44 271.306L293.834 271.628L294.013 268.633L288.618 268.311L288.44 271.306ZM293.878 271.63L333.089 272.822L333.18 269.824L293.969 268.631L293.878 271.63ZM334.319 272.242L344.05 259.696L341.679 257.858L331.949 270.404L334.319 272.242ZM343.776 257.586L342.611 256.694L340.787 259.077L341.953 259.968L343.776 257.586ZM342.935 258.735C347.11 252.659 350.047 249.219 353.107 246.794L351.244 244.443C347.827 247.151 344.687 250.888 340.463 257.036L342.935 258.735ZM244.207 333.359L259.878 311.791L257.451 310.028L241.78 331.595L244.207 333.359ZM244.492 374.049L244.493 332.477L241.493 332.477L241.492 374.049L244.492 374.049ZM244.49 415.621L244.492 374.049L241.492 374.049L241.49 415.621L244.49 415.621ZM261.943 439.156L244.203 414.739L241.776 416.503L259.516 440.92L261.943 439.156ZM261.895 440.982L269.018 432.18L266.686 430.293L259.563 439.094L261.895 440.982ZM268.92 432.291L342.183 358.081L340.048 355.973L266.785 430.183L268.92 432.291ZM342.191 358.073L348.493 351.588L346.342 349.497L340.039 355.982L342.191 358.073ZM348.102 349.207L330.949 340.413L329.58 343.082L346.733 351.877L348.102 349.207ZM329.259 340.634L325.8 343.756L327.81 345.983L331.269 342.861L329.259 340.634ZM326.114 343.538L320.818 346.285L322.2 348.948L327.495 346.201L326.114 343.538ZM322.767 348.434L328.063 340.284L325.547 338.649L320.251 346.799L322.767 348.434ZM327.46 338.117L312.512 330.855L311.201 333.554L326.149 340.816L327.46 338.117ZM311.081 330.92L303.112 335.73L304.662 338.299L312.631 333.489L311.081 330.92ZM305.218 337.706L308.896 330.633L306.234 329.249L302.556 336.322L305.218 337.706ZM308.236 328.6L282.781 315.859L281.438 318.542L306.894 331.282L308.236 328.6ZM282.507 315.754L275.259 313.76L274.464 316.653L281.712 318.647L282.507 315.754ZM274.058 313.94L266.242 318.902L267.85 321.434L275.665 316.473L274.058 313.94ZM268.391 320.831L271.465 314.596L268.774 313.27L265.7 319.505L268.391 320.831ZM270.502 312.483L259.048 309.459L258.282 312.36L269.737 315.383L270.502 312.483ZM359.44 404.59L349.744 434.427L352.597 435.354L362.293 405.517L359.44 404.59ZM349.744 434.427L329.971 495.269L332.825 496.196L352.597 435.354L349.744 434.427ZM461.468 441.673L473.571 450.467L475.335 448.04L463.231 439.246L461.468 441.673ZM351.634 436.317L399.699 420.701L398.772 417.847L350.707 433.464L351.634 436.317ZM457.625 312.929L475.341 300.058L473.578 297.631L455.862 310.501L457.625 312.929ZM329.982 252.829L334.832 267.758L337.685 266.831L332.835 251.902L329.982 252.829ZM324.311 372.549H306.967V375.549H324.311V372.549ZM306.967 372.549H242.992V375.549H306.967V372.549ZM329.177 340.931L305.753 373.167L308.18 374.931L331.604 342.694L329.177 340.931ZM305.753 374.931L313.106 385.051L315.533 383.287L308.18 373.167L305.753 374.931ZM341.446 424.058L349.957 435.772L352.384 434.009L343.873 422.295L341.446 424.058ZM330.401 251.254L310.214 269.545L312.229 271.768L332.416 253.477L330.401 251.254ZM263.955 311.46L241.986 331.365L244.001 333.588L265.969 313.683L263.955 311.46ZM244.36 374.663L268.614 320.655L265.878 319.426L241.623 373.434L244.36 374.663ZM270.022 317.52L271.371 314.517L268.634 313.288L267.286 316.291L270.022 317.52ZM291.14 270.497L293.237 265.827L290.501 264.597L288.403 269.268L291.14 270.497ZM308.328 373.418L281.75 316.096L279.029 317.358L305.606 374.68L308.328 373.418ZM475.205 297.543L470.581 294.893L469.089 297.496L473.714 300.146L475.205 297.543ZM427.348 270.114L408.544 259.337L407.052 261.94L425.856 272.717L427.348 270.114ZM408.544 259.337L371.694 238.218L370.202 240.82L407.052 261.94L408.544 259.337ZM331.247 253.857L344.457 255.288L344.78 252.305L331.57 250.874L331.247 253.857ZM367.986 257.836L407.636 262.13L407.959 259.147L368.309 254.853L367.986 257.836ZM407.636 262.13L434.323 265.02L434.646 262.038L407.959 259.147L407.636 262.13ZM394.263 275.252L408.818 261.738L406.777 259.539L392.221 273.053L394.263 275.252ZM406.326 260.928L409.133 275.206L412.077 274.628L409.27 260.349L406.326 260.928ZM475.921 449.561L491.51 375.079L488.574 374.464L472.985 448.946L475.921 449.561ZM491.815 373.625L500.363 332.784L497.426 332.17L488.878 373.011L491.815 373.625ZM472.991 299.152L488.478 373.172L491.414 372.558L475.928 298.537L472.991 299.152ZM488.781 374.625L497.423 415.928L500.359 415.314L491.718 374.011L488.781 374.625ZM457.877 357.761L472.929 366.147L474.389 363.527L459.337 355.141L457.877 357.761ZM421.346 484.482L407.626 485.968L407.949 488.95L421.669 487.465L421.346 484.482ZM407.626 485.968L331.237 494.241L331.56 497.224L407.949 488.95L407.626 485.968ZM473.707 447.952L463.254 453.942L464.746 456.545L475.199 450.555L473.707 447.952ZM421.895 477.646L407.042 486.158L408.534 488.761L423.387 480.248L421.895 477.646ZM407.042 486.158L370.191 507.277L371.682 509.88L408.534 488.761L407.042 486.158ZM413.609 450.091L410.784 464.452L413.728 465.031L416.552 450.67L413.609 450.091ZM410.777 464.49L406.316 487.17L409.26 487.749L413.72 465.069L410.777 464.49ZM408.809 486.36L352.191 433.791L350.149 435.99L406.767 488.558L408.809 486.36ZM332.405 494.621L299.417 464.728L297.402 466.951L330.391 496.844L332.405 494.621ZM265.632 434.114L243.997 414.509L241.983 416.732L263.617 436.337L265.632 434.114ZM293.228 482.271L289.624 474.244L286.887 475.473L290.491 483.5L293.228 482.271ZM269.782 430.054L244.36 373.434L241.623 374.663L267.045 431.282L269.782 430.054ZM350.991 433.401L327.916 436.184L328.275 439.162L351.35 436.38L350.991 433.401ZM292.964 407.81L308.328 374.68L305.606 373.418L290.242 406.548L292.964 407.81Z" fill="#1E356F"/>
<path d="M536.839 184.269L542.3 189.729" stroke="white" stroke-width="2" stroke-miterlimit="10" stroke-linecap="round" stroke-linejoin="round"/>
<path d="M203.457 528.571C203.361 528.475 203.204 528.511 203.049 528.566" stroke="white" stroke-width="2" stroke-miterlimit="10" stroke-linecap="round" stroke-linejoin="round"/>
<path d="M203.049 528.566C202.629 528.715 202.222 529 201.851 529.268" stroke="white" stroke-width="2" stroke-miterlimit="10" stroke-linecap="round" stroke-linejoin="round"/>
<path d="M201.851 529.268C200.849 529.991 200.109 530.591 199.467 531.13" stroke="white" stroke-width="2" stroke-miterlimit="10" stroke-linecap="round" stroke-linejoin="round"/>
<path d="M199.466 531.13C198.324 532.088 197.492 532.85 196.663 533.644" stroke="white" stroke-width="2" stroke-miterlimit="10" stroke-linecap="round" stroke-linejoin="round"/>
<path d="M196.664 533.644C192.359 537.763 188.104 542.729 183.295 548.735" stroke="white" stroke-width="2" stroke-miterlimit="10" stroke-linecap="round" stroke-linejoin="round"/>
<path d="M203.457 528.572C203.554 528.668 203.517 528.824 203.462 528.979" stroke="white" stroke-width="2" stroke-miterlimit="10" stroke-linecap="round" stroke-linejoin="round"/>
<path d="M203.461 528.979C203.312 529.399 203.028 529.806 202.76 530.178" stroke="white" stroke-width="2" stroke-miterlimit="10" stroke-linecap="round" stroke-linejoin="round"/>
<path d="M202.761 530.178C202.038 531.179 201.438 531.92 200.899 532.562" stroke="white" stroke-width="2" stroke-miterlimit="10" stroke-linecap="round" stroke-linejoin="round"/>
<path d="M200.898 532.562C199.94 533.705 199.178 534.536 198.384 535.366" stroke="white" stroke-width="2" stroke-miterlimit="10" stroke-linecap="round" stroke-linejoin="round"/>
<path d="M198.384 535.365C194.266 539.67 189.299 543.925 183.294 548.735" stroke="white" stroke-width="2" stroke-miterlimit="10" stroke-linecap="round" stroke-linejoin="round"/>
<path d="M152.387 259.121L130.952 280.556" stroke="white" stroke-width="2" stroke-miterlimit="10" stroke-linecap="round" stroke-linejoin="round"/>
<path d="M129.54 280.358L158.665 284.439" stroke="white" stroke-width="2" stroke-miterlimit="10" stroke-linecap="round" stroke-linejoin="round"/>
<path d="M158.664 284.439L282 316.997" stroke="white" stroke-width="2" stroke-miterlimit="10" stroke-linecap="round" stroke-linejoin="round"/>
<path d="M282.001 316.997L347.668 350.581" stroke="white" stroke-width="2" stroke-miterlimit="10" stroke-linecap="round" stroke-linejoin="round"/>
<path d="M124.447 276.998L116.848 284.596" stroke="white" stroke-width="2" stroke-miterlimit="10" stroke-linecap="round" stroke-linejoin="round"/>
<path d="M116.848 284.596L129.696 280.344" stroke="white" stroke-width="2" stroke-miterlimit="10" stroke-linecap="round" stroke-linejoin="round"/>
<path d="M149.368 258.921L141.27 267.018" stroke="white" stroke-width="2" stroke-miterlimit="10" stroke-linecap="round" stroke-linejoin="round"/>
<path d="M141.27 267.018L124.447 276.997" stroke="white" stroke-width="2" stroke-miterlimit="10" stroke-linecap="round" stroke-linejoin="round"/>
<path d="M141.27 267.018L129.54 280.359" stroke="white" stroke-width="2" stroke-miterlimit="10" stroke-linecap="round" stroke-linejoin="round"/>
<path d="M409.136 289.114L147.046 264.462" stroke="white" stroke-width="2" stroke-miterlimit="10" stroke-linecap="round" stroke-linejoin="round"/>
<path d="M149.367 258.92L252.509 268.151" stroke="white" stroke-width="2" stroke-miterlimit="10" stroke-linecap="round" stroke-linejoin="round"/>
<path d="M252.509 268.151L422.842 275.408" stroke="white" stroke-width="2" stroke-miterlimit="10" stroke-linecap="round" stroke-linejoin="round"/>
<path d="M149.367 258.92L252.509 268.151" stroke="white" stroke-width="2" stroke-miterlimit="10" stroke-linecap="round" stroke-linejoin="round"/>
<path d="M378.497 319.751L138.688 272.82" stroke="white" stroke-width="2" stroke-miterlimit="10" stroke-linecap="round" stroke-linejoin="round"/>
<path d="M293.735 322.999L309.107 307.626" stroke="white" stroke-width="2" stroke-miterlimit="10" stroke-linecap="round" stroke-linejoin="round"/>
<path d="M302.364 314.37L356.297 341.953" stroke="white" stroke-width="2" stroke-miterlimit="10" stroke-linecap="round" stroke-linejoin="round"/>
<path d="M309.107 307.627L313.126 309.682L363.04 335.209" stroke="white" stroke-width="2" stroke-miterlimit="10" stroke-linecap="round" stroke-linejoin="round"/>
<path d="M226.105 478.807L142.314 474.207" stroke="white" stroke-width="2" stroke-miterlimit="10" stroke-linecap="round" stroke-linejoin="round"/>
<path d="M142.314 474.208L129.194 487.328" stroke="white" stroke-width="2" stroke-miterlimit="10" stroke-linecap="round" stroke-linejoin="round"/>
<path d="M197.939 526.713L129.194 487.327" stroke="white" stroke-width="2" stroke-miterlimit="10" stroke-linecap="round" stroke-linejoin="round"/>
<path d="M226.049 478.804C229.043 478.985 231.87 476.324 233.554 473.843" stroke="white" stroke-width="2" stroke-miterlimit="10" stroke-linecap="round" stroke-linejoin="round"/>
<path d="M145.567 474.386L131.376 488.577" stroke="white" stroke-width="2" stroke-miterlimit="10" stroke-linecap="round" stroke-linejoin="round"/>
<path d="M227.131 483.945L142.641 477.312" stroke="white" stroke-width="2" stroke-miterlimit="10" stroke-linecap="round" stroke-linejoin="round"/>
<path d="M138.694 492.77L143.345 488.119" stroke="white" stroke-width="2" stroke-miterlimit="10" stroke-linecap="round" stroke-linejoin="round"/>
<path d="M143.346 488.12L208.416 512.424" stroke="white" stroke-width="2" stroke-miterlimit="10" stroke-linecap="round" stroke-linejoin="round"/>
<path d="M176.695 514.542L184.578 506.66" stroke="white" stroke-width="2" stroke-miterlimit="10" stroke-linecap="round" stroke-linejoin="round"/>
<path d="M184.578 506.659L185.607 503.904" stroke="white" stroke-width="2" stroke-miterlimit="10" stroke-linecap="round" stroke-linejoin="round"/>
<path d="M354.012 270.01L349.446 265.444" stroke="white" stroke-width="2" stroke-miterlimit="10" stroke-linecap="round" stroke-linejoin="round"/>
<path d="M348.547 272.243L352.899 268.896" stroke="white" stroke-width="2" stroke-miterlimit="10" stroke-linecap="round" stroke-linejoin="round"/>
<path d="M333.111 271.585L342.88 258.878" stroke="white" stroke-width="2" stroke-miterlimit="10" stroke-linecap="round" stroke-linejoin="round"/>
<path d="M354.012 270.01C359.903 266.599 369.215 257.918 370.209 253.147" stroke="white" stroke-width="2" stroke-miterlimit="10" stroke-linecap="round" stroke-linejoin="round"/>
<path d="M367.57 258.012L353.765 244.208" stroke="white" stroke-width="2" stroke-miterlimit="10" stroke-linecap="round" stroke-linejoin="round"/>
<path d="M360.702 265.102L355.245 259.645" stroke="white" stroke-width="2" stroke-miterlimit="10" stroke-linecap="round" stroke-linejoin="round"/>
<path d="M347.051 272.179L344.881 270.009" stroke="white" stroke-width="2" stroke-miterlimit="10" stroke-linecap="round" stroke-linejoin="round"/>
<path d="M370.203 253.158C370.354 253.007 367.883 250.291 364.684 247.092C361.485 243.893 358.769 241.423 358.618 241.574" stroke="white" stroke-width="2" stroke-miterlimit="10" stroke-linecap="round" stroke-linejoin="round"/>
<path d="M370.212 253.148L370.207 253.146" stroke="white" stroke-width="2" stroke-miterlimit="10" stroke-linecap="round" stroke-linejoin="round"/>
<path d="M341.768 257.765C345.18 251.874 353.86 242.562 358.632 241.568" stroke="white" stroke-width="2" stroke-miterlimit="10" stroke-linecap="round" stroke-linejoin="round"/>
<path d="M265.692 266.204L261.126 261.638" stroke="white" stroke-width="2" stroke-miterlimit="10" stroke-linecap="round" stroke-linejoin="round"/>
<path d="M260.172 268.478L264.578 265.09" stroke="white" stroke-width="2" stroke-miterlimit="10" stroke-linecap="round" stroke-linejoin="round"/>
<path d="M245.02 267.481L254.56 255.072" stroke="white" stroke-width="2" stroke-miterlimit="10" stroke-linecap="round" stroke-linejoin="round"/>
<path d="M265.693 266.204C271.584 262.792 280.896 254.112 281.889 249.34" stroke="white" stroke-width="2" stroke-miterlimit="10" stroke-linecap="round" stroke-linejoin="round"/>
<path d="M279.249 254.206L265.445 240.402" stroke="white" stroke-width="2" stroke-miterlimit="10" stroke-linecap="round" stroke-linejoin="round"/>
<path d="M272.383 261.296L266.926 255.838" stroke="white" stroke-width="2" stroke-miterlimit="10" stroke-linecap="round" stroke-linejoin="round"/>
<path d="M258.775 268.419L256.56 266.203" stroke="white" stroke-width="2" stroke-miterlimit="10" stroke-linecap="round" stroke-linejoin="round"/>
<path d="M281.882 249.352C282.033 249.201 279.562 246.485 276.363 243.286C273.164 240.087 270.449 237.617 270.298 237.768" stroke="white" stroke-width="2" stroke-miterlimit="10" stroke-linecap="round" stroke-linejoin="round"/>
<path d="M281.892 249.341L281.887 249.339" stroke="white" stroke-width="2" stroke-miterlimit="10" stroke-linecap="round" stroke-linejoin="round"/>
<path d="M253.446 253.958C256.858 248.067 265.538 238.755 270.31 237.762" stroke="white" stroke-width="2" stroke-miterlimit="10" stroke-linecap="round" stroke-linejoin="round"/>
<path d="M266.924 320.146C269.795 318.88 272.452 317.177 274.802 315.097" stroke="white" stroke-width="2" stroke-miterlimit="10" stroke-linecap="round" stroke-linejoin="round"/>
<path d="M270.566 313.979C269.113 315.884 267.89 317.954 266.924 320.146" stroke="white" stroke-width="2" stroke-miterlimit="10" stroke-linecap="round" stroke-linejoin="round"/>
<path d="M239.755 314.361C243.113 312.88 246.175 310.804 248.792 308.231" stroke="white" stroke-width="2" stroke-miterlimit="10" stroke-linecap="round" stroke-linejoin="round"/>
<path d="M244.315 307.049C242.456 309.257 240.92 311.719 239.755 314.361" stroke="white" stroke-width="2" stroke-miterlimit="10" stroke-linecap="round" stroke-linejoin="round"/>
<path d="M303.89 337.147C306.725 335.897 309.352 334.221 311.679 332.176" stroke="white" stroke-width="2" stroke-miterlimit="10" stroke-linecap="round" stroke-linejoin="round"/>
<path d="M308.05 330.32C306.368 332.402 304.969 334.698 303.889 337.147" stroke="white" stroke-width="2" stroke-miterlimit="10" stroke-linecap="round" stroke-linejoin="round"/>
<path d="M322.03 347.139C325.074 345.797 327.877 343.964 330.327 341.713" stroke="white" stroke-width="2" stroke-miterlimit="10" stroke-linecap="round" stroke-linejoin="round"/>
<path d="M326.606 339.809C324.739 342.022 323.198 344.49 322.03 347.139" stroke="white" stroke-width="2" stroke-miterlimit="10" stroke-linecap="round" stroke-linejoin="round"/>
<path d="M356.67 258.221L342.889 272.002" stroke="white" stroke-width="2" stroke-miterlimit="10" stroke-linecap="round" stroke-linejoin="round"/>
<path d="M356.669 258.221C358.647 256.243 359.553 253.943 358.694 253.083C357.834 252.224 355.534 253.13 353.556 255.108" stroke="white" stroke-width="2" stroke-miterlimit="10" stroke-linecap="round" stroke-linejoin="round"/>
<path d="M352.132 256.531L346.675 251.074" stroke="white" stroke-width="2" stroke-miterlimit="10" stroke-linecap="round" stroke-linejoin="round"/>
<path d="M346.333 262.331L341.766 257.764" stroke="white" stroke-width="2" stroke-miterlimit="10" stroke-linecap="round" stroke-linejoin="round"/>
<path d="M341.769 266.896L338.913 264.04" stroke="white" stroke-width="2" stroke-miterlimit="10" stroke-linecap="round" stroke-linejoin="round"/>
<path d="M355.113 256.664L339.972 271.806" stroke="white" stroke-width="2" stroke-miterlimit="10" stroke-linecap="round" stroke-linejoin="round"/>
<path d="M268.348 254.414L254.525 268.237" stroke="white" stroke-width="2" stroke-miterlimit="10" stroke-linecap="round" stroke-linejoin="round"/>
<path d="M268.349 254.414C270.326 252.437 271.233 250.137 270.373 249.277C269.513 248.417 267.213 249.324 265.236 251.301" stroke="white" stroke-width="2" stroke-miterlimit="10" stroke-linecap="round" stroke-linejoin="round"/>
<path d="M266.792 252.858L251.813 267.837" stroke="white" stroke-width="2" stroke-miterlimit="10" stroke-linecap="round" stroke-linejoin="round"/>
<path d="M336.917 271.747L353.557 255.108" stroke="white" stroke-width="2" stroke-miterlimit="10" stroke-linecap="round" stroke-linejoin="round"/>
<path d="M248.725 267.812L265.236 251.301" stroke="white" stroke-width="2" stroke-miterlimit="10" stroke-linecap="round" stroke-linejoin="round"/>
<path d="M263.812 252.726L258.355 247.268" stroke="white" stroke-width="2" stroke-miterlimit="10" stroke-linecap="round" stroke-linejoin="round"/>
<path d="M258.012 258.525L253.446 253.959" stroke="white" stroke-width="2" stroke-miterlimit="10" stroke-linecap="round" stroke-linejoin="round"/>
<path d="M253.448 263.09L250.592 260.234" stroke="white" stroke-width="2" stroke-miterlimit="10" stroke-linecap="round" stroke-linejoin="round"/>
<path d="M479.951 220.602L479.815 220.466" stroke="white" stroke-width="2" stroke-miterlimit="10" stroke-linecap="round" stroke-linejoin="round"/>
<path d="M388.437 343.677L386.382 345.653" stroke="white" stroke-width="2" stroke-miterlimit="10" stroke-linecap="round" stroke-linejoin="round"/>
<path d="M326.75 371.928L327.362 372.539" stroke="white" stroke-width="2" stroke-miterlimit="10" stroke-linecap="round" stroke-linejoin="round"/>
<path d="M327.362 372.54C328.093 373.27 328.093 374.454 327.362 375.184" stroke="white" stroke-width="2" stroke-miterlimit="10" stroke-linecap="round" stroke-linejoin="round"/>
<path d="M327.362 375.184L324.623 377.922" stroke="white" stroke-width="2" stroke-miterlimit="10" stroke-linecap="round" stroke-linejoin="round"/>
<path d="M324.625 377.922C323.895 378.653 322.711 378.653 321.981 377.922" stroke="white" stroke-width="2" stroke-miterlimit="10" stroke-linecap="round" stroke-linejoin="round"/>
<path d="M321.98 377.922L321.851 377.794" stroke="white" stroke-width="2" stroke-miterlimit="10" stroke-linecap="round" stroke-linejoin="round"/>
<path d="M254.905 446.422L255.054 446.57" stroke="white" stroke-width="2" stroke-miterlimit="10" stroke-linecap="round" stroke-linejoin="round"/>
<path d="M255.053 446.57C255.783 447.3 255.783 448.484 255.053 449.214" stroke="white" stroke-width="2" stroke-miterlimit="10" stroke-linecap="round" stroke-linejoin="round"/>
<path d="M255.054 449.215L252.603 452.241" stroke="white" stroke-width="2" stroke-miterlimit="10" stroke-linecap="round" stroke-linejoin="round"/>
<path d="M252.601 452.24C252.114 452.95 251.156 453.154 250.421 452.704" stroke="white" stroke-width="2" stroke-miterlimit="10" stroke-linecap="round" stroke-linejoin="round"/>
<path d="M250.422 452.704L250.077 452.359" stroke="white" stroke-width="2" stroke-miterlimit="10" stroke-linecap="round" stroke-linejoin="round"/>
<path d="M321.98 377.922L321.153 377.096" stroke="white" stroke-width="2" stroke-miterlimit="10" stroke-linecap="round" stroke-linejoin="round"/>
<path d="M288.995 302.236L234.864 291.642" stroke="white" stroke-width="2" stroke-miterlimit="10" stroke-linecap="round" stroke-linejoin="round"/>
<path d="M547.754 195.184L542.294 189.723" stroke="white" stroke-width="2" stroke-miterlimit="10" stroke-linecap="round" stroke-linejoin="round"/>
<path d="M472.902 579.636L451.467 601.071" stroke="white" stroke-width="2" stroke-miterlimit="10" stroke-linecap="round" stroke-linejoin="round"/>
<path d="M451.665 602.483L447.584 573.358" stroke="white" stroke-width="2" stroke-miterlimit="10" stroke-linecap="round" stroke-linejoin="round"/>
<path d="M447.583 573.358L415.024 450.022" stroke="white" stroke-width="2" stroke-miterlimit="10" stroke-linecap="round" stroke-linejoin="round"/>
<path d="M415.027 450.022L381.442 384.355" stroke="white" stroke-width="2" stroke-miterlimit="10" stroke-linecap="round" stroke-linejoin="round"/>
<path d="M455.026 607.576L447.427 615.175" stroke="white" stroke-width="2" stroke-miterlimit="10" stroke-linecap="round" stroke-linejoin="round"/>
<path d="M447.427 615.175L451.68 602.328" stroke="white" stroke-width="2" stroke-miterlimit="10" stroke-linecap="round" stroke-linejoin="round"/>
<path d="M473.103 582.656L465.006 590.753" stroke="white" stroke-width="2" stroke-miterlimit="10" stroke-linecap="round" stroke-linejoin="round"/>
<path d="M465.005 590.753L455.025 607.576" stroke="white" stroke-width="2" stroke-miterlimit="10" stroke-linecap="round" stroke-linejoin="round"/>
<path d="M465.004 590.754L451.664 602.484" stroke="white" stroke-width="2" stroke-miterlimit="10" stroke-linecap="round" stroke-linejoin="round"/>
<path d="M442.909 322.887L467.56 584.977" stroke="white" stroke-width="2" stroke-miterlimit="10" stroke-linecap="round" stroke-linejoin="round"/>
<path d="M473.103 582.656L463.872 479.514" stroke="white" stroke-width="2" stroke-miterlimit="10" stroke-linecap="round" stroke-linejoin="round"/>
<path d="M463.873 479.514L456.616 309.181" stroke="white" stroke-width="2" stroke-miterlimit="10" stroke-linecap="round" stroke-linejoin="round"/>
<path d="M473.103 582.656L463.872 479.514" stroke="white" stroke-width="2" stroke-miterlimit="10" stroke-linecap="round" stroke-linejoin="round"/>
<path d="M412.271 353.525L459.202 593.334" stroke="white" stroke-width="2" stroke-miterlimit="10" stroke-linecap="round" stroke-linejoin="round"/>
<path d="M409.024 438.288L424.396 422.915" stroke="white" stroke-width="2" stroke-miterlimit="10" stroke-linecap="round" stroke-linejoin="round"/>
<path d="M417.653 429.66L390.07 375.727" stroke="white" stroke-width="2" stroke-miterlimit="10" stroke-linecap="round" stroke-linejoin="round"/>
<path d="M424.396 422.915L422.341 418.897L396.813 368.982" stroke="white" stroke-width="2" stroke-miterlimit="10" stroke-linecap="round" stroke-linejoin="round"/>
<path d="M253.216 505.918L257.816 589.709" stroke="white" stroke-width="2" stroke-miterlimit="10" stroke-linecap="round" stroke-linejoin="round"/>
<path d="M257.816 589.709L244.696 602.829" stroke="white" stroke-width="2" stroke-miterlimit="10" stroke-linecap="round" stroke-linejoin="round"/>
<path d="M205.31 534.084L244.696 602.829" stroke="white" stroke-width="2" stroke-miterlimit="10" stroke-linecap="round" stroke-linejoin="round"/>
<path d="M253.218 505.973C253.037 502.979 255.698 500.152 258.179 498.468" stroke="white" stroke-width="2" stroke-miterlimit="10" stroke-linecap="round" stroke-linejoin="round"/>
<path d="M257.637 586.456L243.446 600.647" stroke="white" stroke-width="2" stroke-miterlimit="10" stroke-linecap="round" stroke-linejoin="round"/>
<path d="M248.078 504.892L254.712 589.382" stroke="white" stroke-width="2" stroke-miterlimit="10" stroke-linecap="round" stroke-linejoin="round"/>
<path d="M239.252 593.328L243.903 588.677" stroke="white" stroke-width="2" stroke-miterlimit="10" stroke-linecap="round" stroke-linejoin="round"/>
<path d="M243.904 588.677L219.6 523.607" stroke="white" stroke-width="2" stroke-miterlimit="10" stroke-linecap="round" stroke-linejoin="round"/>
<path d="M217.481 555.328L225.364 547.446" stroke="white" stroke-width="2" stroke-miterlimit="10" stroke-linecap="round" stroke-linejoin="round"/>
<path d="M225.364 547.446L228.119 546.417" stroke="white" stroke-width="2" stroke-miterlimit="10" stroke-linecap="round" stroke-linejoin="round"/>
<path d="M547.173 184.862C537.448 175.137 486.39 211.866 458.389 239.868M273.518 458.517C267.999 452.997 209.14 514.955 183.3 548.735M192.807 536.818C193.653 534.559 195.434 531.082 197.946 526.713C210.128 510.689 221.387 493.916 231.559 476.547C244.477 459.025 262.08 436.177 283.536 414.721L458.389 239.868M547.168 184.856C556.892 194.581 520.163 245.64 492.162 273.641M273.513 458.511C279.032 464.031 217.075 522.889 183.295 548.729C188.105 542.723 192.36 537.757 196.664 533.638C197.494 532.845 198.325 532.082 199.468 531.124M203.458 528.566C203.554 528.662 203.518 528.819 203.463 528.974M203.463 528.974C203.314 529.393 203.03 529.801 202.762 530.172M202.761 530.172C202.038 531.174 201.438 531.914 200.899 532.556M200.9 532.556C199.942 533.699 199.18 534.53 198.386 535.36C194.267 539.664 189.3 543.919 183.295 548.729M203.458 528.566C203.362 528.47 203.206 528.506 203.051 528.561M203.05 528.561C202.631 528.71 202.223 528.995 201.852 529.263M201.852 529.263C200.851 529.985 200.11 530.586 199.468 531.124M195.212 539.223C197.471 538.377 200.948 536.596 205.317 534.084C221.341 521.902 238.114 510.643 255.483 500.471C273.005 487.553 295.853 469.95 317.309 448.494L492.162 273.641" stroke="white" stroke-width="2" stroke-miterlimit="10" stroke-linecap="round" stroke-linejoin="round"/>
<path d="M462.013 378.011L466.579 382.577" stroke="white" stroke-width="2" stroke-miterlimit="10" stroke-linecap="round" stroke-linejoin="round"/>
<path d="M459.78 383.476L463.126 379.124" stroke="white" stroke-width="2" stroke-miterlimit="10" stroke-linecap="round" stroke-linejoin="round"/>
<path d="M460.439 398.912L473.146 389.142" stroke="white" stroke-width="2" stroke-miterlimit="10" stroke-linecap="round" stroke-linejoin="round"/>
<path d="M462.012 378.01C465.424 372.119 474.104 362.807 478.876 361.814" stroke="white" stroke-width="2" stroke-miterlimit="10" stroke-linecap="round" stroke-linejoin="round"/>
<path d="M474.011 364.454L487.815 378.258" stroke="white" stroke-width="2" stroke-miterlimit="10" stroke-linecap="round" stroke-linejoin="round"/>
<path d="M466.922 371.32L472.379 376.778" stroke="white" stroke-width="2" stroke-miterlimit="10" stroke-linecap="round" stroke-linejoin="round"/>
<path d="M459.844 384.972L462.014 387.142" stroke="white" stroke-width="2" stroke-miterlimit="10" stroke-linecap="round" stroke-linejoin="round"/>
<path d="M478.865 361.82C479.016 361.669 481.732 364.139 484.931 367.338C488.13 370.537 490.601 373.253 490.45 373.404" stroke="white" stroke-width="2" stroke-miterlimit="10" stroke-linecap="round" stroke-linejoin="round"/>
<path d="M478.875 361.81L478.877 361.815" stroke="white" stroke-width="2" stroke-miterlimit="10" stroke-linecap="round" stroke-linejoin="round"/>
<path d="M474.259 390.256C480.15 386.845 489.462 378.165 490.455 373.393" stroke="white" stroke-width="2" stroke-miterlimit="10" stroke-linecap="round" stroke-linejoin="round"/>
<path d="M465.82 466.331L470.387 470.897" stroke="white" stroke-width="2" stroke-miterlimit="10" stroke-linecap="round" stroke-linejoin="round"/>
<path d="M463.545 471.851L466.932 467.445" stroke="white" stroke-width="2" stroke-miterlimit="10" stroke-linecap="round" stroke-linejoin="round"/>
<path d="M464.543 487.003L476.952 477.463" stroke="white" stroke-width="2" stroke-miterlimit="10" stroke-linecap="round" stroke-linejoin="round"/>
<path d="M465.818 466.331C469.23 460.44 477.91 451.128 482.682 450.134" stroke="white" stroke-width="2" stroke-miterlimit="10" stroke-linecap="round" stroke-linejoin="round"/>
<path d="M477.816 452.775L491.621 466.579" stroke="white" stroke-width="2" stroke-miterlimit="10" stroke-linecap="round" stroke-linejoin="round"/>
<path d="M470.728 459.641L476.185 465.098" stroke="white" stroke-width="2" stroke-miterlimit="10" stroke-linecap="round" stroke-linejoin="round"/>
<path d="M463.605 473.247L465.82 475.463" stroke="white" stroke-width="2" stroke-miterlimit="10" stroke-linecap="round" stroke-linejoin="round"/>
<path d="M482.671 450.14C482.822 449.989 485.538 452.46 488.737 455.659C491.936 458.858 494.407 461.574 494.255 461.725" stroke="white" stroke-width="2" stroke-miterlimit="10" stroke-linecap="round" stroke-linejoin="round"/>
<path d="M482.682 450.131L482.684 450.136" stroke="white" stroke-width="2" stroke-miterlimit="10" stroke-linecap="round" stroke-linejoin="round"/>
<path d="M478.065 478.577C483.956 475.165 493.268 466.485 494.261 461.713" stroke="white" stroke-width="2" stroke-miterlimit="10" stroke-linecap="round" stroke-linejoin="round"/>
<path d="M411.877 465.099C413.143 462.227 414.846 459.57 416.926 457.221" stroke="white" stroke-width="2" stroke-miterlimit="10" stroke-linecap="round" stroke-linejoin="round"/>
<path d="M418.044 461.456C416.139 462.91 414.069 464.132 411.877 465.099" stroke="white" stroke-width="2" stroke-miterlimit="10" stroke-linecap="round" stroke-linejoin="round"/>
<path d="M417.662 492.268C419.143 488.91 421.22 485.849 423.792 483.232" stroke="white" stroke-width="2" stroke-miterlimit="10" stroke-linecap="round" stroke-linejoin="round"/>
<path d="M424.975 487.708C422.767 489.568 420.305 491.103 417.663 492.268" stroke="white" stroke-width="2" stroke-miterlimit="10" stroke-linecap="round" stroke-linejoin="round"/>
<path d="M394.877 428.133C396.127 425.298 397.803 422.672 399.848 420.344" stroke="white" stroke-width="2" stroke-miterlimit="10" stroke-linecap="round" stroke-linejoin="round"/>
<path d="M401.703 423.973C399.621 425.654 397.325 427.053 394.876 428.133" stroke="white" stroke-width="2" stroke-miterlimit="10" stroke-linecap="round" stroke-linejoin="round"/>
<path d="M384.884 409.993C386.226 406.949 388.059 404.146 390.311 401.696" stroke="white" stroke-width="2" stroke-miterlimit="10" stroke-linecap="round" stroke-linejoin="round"/>
<path d="M392.214 405.418C390.001 407.285 387.533 408.825 384.884 409.993" stroke="white" stroke-width="2" stroke-miterlimit="10" stroke-linecap="round" stroke-linejoin="round"/>
<path d="M473.802 375.354L460.021 389.135" stroke="white" stroke-width="2" stroke-miterlimit="10" stroke-linecap="round" stroke-linejoin="round"/>
<path d="M473.802 375.353C475.78 373.376 478.08 372.469 478.939 373.329C479.799 374.189 478.893 376.489 476.915 378.466" stroke="white" stroke-width="2" stroke-miterlimit="10" stroke-linecap="round" stroke-linejoin="round"/>
<path d="M475.492 379.891L480.949 385.348" stroke="white" stroke-width="2" stroke-miterlimit="10" stroke-linecap="round" stroke-linejoin="round"/>
<path d="M469.693 385.69L474.259 390.256" stroke="white" stroke-width="2" stroke-miterlimit="10" stroke-linecap="round" stroke-linejoin="round"/>
<path d="M465.128 390.255L467.984 393.111" stroke="white" stroke-width="2" stroke-miterlimit="10" stroke-linecap="round" stroke-linejoin="round"/>
<path d="M475.36 376.91L460.218 392.052" stroke="white" stroke-width="2" stroke-miterlimit="10" stroke-linecap="round" stroke-linejoin="round"/>
<path d="M477.608 463.674L463.785 477.497" stroke="white" stroke-width="2" stroke-miterlimit="10" stroke-linecap="round" stroke-linejoin="round"/>
<path d="M477.609 463.674C479.587 461.696 481.887 460.79 482.746 461.65C483.606 462.509 482.7 464.809 480.722 466.787" stroke="white" stroke-width="2" stroke-miterlimit="10" stroke-linecap="round" stroke-linejoin="round"/>
<path d="M479.166 465.231L464.187 480.21" stroke="white" stroke-width="2" stroke-miterlimit="10" stroke-linecap="round" stroke-linejoin="round"/>
<path d="M460.276 395.106L476.916 378.466" stroke="white" stroke-width="2" stroke-miterlimit="10" stroke-linecap="round" stroke-linejoin="round"/>
<path d="M464.21 483.298L480.722 466.787" stroke="white" stroke-width="2" stroke-miterlimit="10" stroke-linecap="round" stroke-linejoin="round"/>
<path d="M479.297 468.211L484.755 473.668" stroke="white" stroke-width="2" stroke-miterlimit="10" stroke-linecap="round" stroke-linejoin="round"/>
<path d="M473.499 474.01L478.065 478.577" stroke="white" stroke-width="2" stroke-miterlimit="10" stroke-linecap="round" stroke-linejoin="round"/>
<path d="M468.934 478.576L471.79 481.432" stroke="white" stroke-width="2" stroke-miterlimit="10" stroke-linecap="round" stroke-linejoin="round"/>
<path d="M511.421 252.072L511.557 252.209" stroke="white" stroke-width="2" stroke-miterlimit="10" stroke-linecap="round" stroke-linejoin="round"/>
<path d="M388.345 343.586L386.369 345.641" stroke="white" stroke-width="2" stroke-miterlimit="10" stroke-linecap="round" stroke-linejoin="round"/>
<path d="M360.095 405.272L359.483 404.66" stroke="white" stroke-width="2" stroke-miterlimit="10" stroke-linecap="round" stroke-linejoin="round"/>
<path d="M359.483 404.66C358.753 403.93 357.569 403.93 356.839 404.66" stroke="white" stroke-width="2" stroke-miterlimit="10" stroke-linecap="round" stroke-linejoin="round"/>
<path d="M356.84 404.66L354.101 407.399" stroke="white" stroke-width="2" stroke-miterlimit="10" stroke-linecap="round" stroke-linejoin="round"/>
<path d="M354.1 407.399C353.37 408.129 353.37 409.313 354.1 410.043" stroke="white" stroke-width="2" stroke-miterlimit="10" stroke-linecap="round" stroke-linejoin="round"/>
<path d="M354.102 410.043L354.23 410.172" stroke="white" stroke-width="2" stroke-miterlimit="10" stroke-linecap="round" stroke-linejoin="round"/>
<path d="M285.601 477.118L285.453 476.969" stroke="white" stroke-width="2" stroke-miterlimit="10" stroke-linecap="round" stroke-linejoin="round"/>
<path d="M285.454 476.969C284.723 476.239 283.54 476.239 282.809 476.969" stroke="white" stroke-width="2" stroke-miterlimit="10" stroke-linecap="round" stroke-linejoin="round"/>
<path d="M282.809 476.97L279.783 479.421" stroke="white" stroke-width="2" stroke-miterlimit="10" stroke-linecap="round" stroke-linejoin="round"/>
<path d="M279.783 479.421C279.073 479.909 278.869 480.867 279.319 481.601" stroke="white" stroke-width="2" stroke-miterlimit="10" stroke-linecap="round" stroke-linejoin="round"/>
<path d="M279.319 481.602L279.663 481.946" stroke="white" stroke-width="2" stroke-miterlimit="10" stroke-linecap="round" stroke-linejoin="round"/>
<path d="M354.101 410.043L354.927 410.87" stroke="white" stroke-width="2" stroke-miterlimit="10" stroke-linecap="round" stroke-linejoin="round"/>
</svg>
