<svg width="455" height="557" viewBox="0 0 455 557" fill="none" xmlns="http://www.w3.org/2000/svg">
<path d="M14.9932 157.791C36.6498 119.434 57.9221 80.9482 79.4506 42.5908C74.4529 58.3699 68.5582 73.7642 63.3042 89.415C53.9495 115.97 44.723 142.525 35.3684 169.08C28.5766 165.232 21.6567 161.64 14.9932 157.791Z" fill="#27265A"/>
<path d="M77.272 56.9588C78.9379 52.3406 80.6039 47.8506 82.0135 43.2323C81.8853 45.4132 81.7572 47.594 81.3727 49.7749C75.2217 85.4382 69.5833 121.102 63.3042 156.637C54.9747 160.229 46.7733 164.205 38.4438 167.926C51.2584 130.851 64.3293 93.9051 77.272 56.9588Z" fill="#442259"/>
<path d="M38.1875 171.005C46.2607 166.771 54.7183 163.436 62.9196 159.459C66.3796 182.422 69.8395 205.513 73.2995 228.476C74.9654 240.022 77.0157 251.568 78.2971 263.242C65.3544 232.325 51.3865 201.793 38.1875 171.005Z" fill="#442259"/>
<path d="M14.3523 160.613C21.1441 163.821 27.5514 167.669 34.2149 171.261C22.81 204.102 11.1487 236.815 0 269.784C1.02517 257.212 3.20364 244.64 4.74139 232.068C7.94504 208.207 11.0205 184.475 14.3523 160.613Z" fill="#27265A"/>
<path d="M36.906 172.416C51.0021 203.333 64.2011 234.634 78.0408 265.679C78.9379 267.475 79.4504 269.4 79.5786 271.324C65.6107 274.787 51.7709 279.149 37.6749 282.485C37.5467 245.795 37.2904 209.105 36.906 172.416Z" fill="#442259"/>
<path d="M34.5994 174.34C34.5994 174.34 34.7276 246.565 35.3683 281.587C23.9633 277.995 12.6865 274.018 1.28149 270.426L34.5994 174.34Z" fill="#27265A"/>
<path d="M1.28149 273.12C12.5583 276.712 23.707 280.304 34.8557 284.281C38.4438 292.234 41.263 300.445 44.5948 308.527C51.5147 326.487 58.6908 344.19 65.4826 362.278C43.8259 332.644 22.5537 302.882 1.28149 273.12Z" fill="#27265A"/>
<path d="M38.1875 285.179C52.2835 281.33 66.2514 277.353 80.3475 273.761C76.5031 303.267 72.4024 332.644 68.3018 362.15C58.0501 336.621 48.311 310.836 38.1875 285.179Z" fill="#442259"/>
<path d="M82.0133 274.659C91.7524 295.185 101.491 315.839 111.231 336.364C97.5189 344.703 83.8073 353.17 70.0957 361.38C73.9401 332.516 77.7845 303.523 82.0133 274.659Z" fill="#442259"/>
<path d="M0.256348 274.531C21.016 302.754 41.1349 331.361 61.6382 359.712C62.7915 361.252 63.8167 362.92 64.7137 364.587C50.3614 371.002 36.2653 378.314 21.7849 384.6C14.7368 347.782 7.30437 311.221 0.256348 274.531Z" fill="#27265A"/>
<path d="M107.899 341.368C109.308 340.47 110.718 339.572 112.256 338.93C126.864 354.966 141.729 370.745 156.338 386.781C127.377 379.725 98.6724 371.9 69.7114 364.587C82.3979 356.762 95.3406 349.193 107.899 341.368Z" fill="#442259"/>
<path d="M23.1943 386.909C37.5467 380.11 51.7708 373.439 66.1232 366.64C74.1964 409.102 82.0133 451.565 89.8302 494.027C89.1894 493.258 88.5487 492.488 87.908 491.59C66.2513 456.696 44.7228 421.803 23.1943 386.909Z" fill="#27265A"/>
<path d="M67.6611 366.64C88.1645 387.679 108.54 408.846 129.043 430.013C129.812 431.039 131.734 432.194 130.453 433.477C117.638 454.515 104.695 475.554 91.7525 496.465C83.6793 453.104 75.7343 409.872 67.6611 366.64Z" fill="#27265A"/>
<path d="M71.3772 366.64C99.5693 373.696 127.761 381.008 155.825 388.32C148.137 402.047 140.32 415.902 132.631 429.628C128.787 426.421 125.583 422.444 121.995 418.852C105.208 401.662 88.2925 384.215 71.3772 366.64Z" fill="#442259"/>
<path d="M158.132 389.475C165.565 398.711 172.228 408.461 179.404 417.826C193.885 437.453 208.493 456.953 222.846 476.581C193.372 461.699 164.155 446.433 134.81 431.424C142.498 417.313 150.443 403.458 158.132 389.475Z" fill="#442259"/>
<path d="M160.567 389.731C182.352 397.172 204.136 404.741 225.921 412.31C225.793 424.368 225.152 436.299 225.024 448.229C224.768 457.851 225.281 467.344 225.152 476.965C203.624 447.973 182.095 418.852 160.567 389.731Z" fill="#442259"/>
<path d="M93.6746 498.646C106.745 476.709 120.201 455.157 133.528 433.477C163.77 449.256 194.397 464.65 224.64 480.557C180.942 486.587 137.372 492.616 93.6746 498.646Z" fill="#27265A"/>
<path d="M189.015 486.972C201.189 485.432 213.363 483.251 225.537 482.225C225.793 507.112 225.537 532 225.537 556.887C181.839 538.157 138.269 518.915 94.4436 500.313C106.233 498.004 118.407 496.85 130.324 495.054C149.931 492.36 169.537 489.666 189.015 486.972Z" fill="#27265A"/>
<path d="M372.392 42.5908C387 84.4119 401.865 125.976 416.218 167.797C407.888 164.077 399.687 160.229 391.357 156.508C385.206 118.536 378.543 80.6916 372.392 42.5908Z" fill="#442259"/>
<path d="M375.595 43.104C395.33 78.1259 414.808 113.148 434.414 148.298C436.208 151.505 438.131 154.712 439.668 158.048C432.877 161.511 426.341 165.36 419.549 168.952C407.76 135.47 396.099 102.115 384.309 68.6328C381.362 60.166 377.902 51.8274 375.595 43.104Z" fill="#27265A"/>
<path d="M381.49 228.092C384.95 205.257 388.154 182.294 391.87 159.459C400.071 163.436 408.401 167.028 416.602 170.748C403.531 201.408 389.948 231.812 376.621 262.344C377.646 250.926 379.824 239.509 381.49 228.092Z" fill="#442259"/>
<path d="M420.831 171.005C427.366 167.541 433.902 163.821 440.437 160.357C444.41 190.889 448.639 221.292 452.611 251.696C453.252 257.212 454.405 262.729 454.277 268.373C447.229 247.591 439.925 226.937 432.749 206.283C428.904 194.609 424.419 182.935 420.831 171.005Z" fill="#27265A"/>
<path d="M383.669 250.028C395.074 224.115 406.351 198.201 417.756 172.287C417.884 208.977 417.115 245.795 416.858 282.485C402.891 278.764 388.923 274.788 374.827 271.196C376.877 263.883 380.721 257.084 383.669 250.028Z" fill="#442259"/>
<path d="M420.19 214.365C420.318 201.28 420.19 188.195 420.575 175.11C431.467 206.924 442.616 238.483 453.636 270.297C442.36 274.146 430.955 277.738 419.55 281.587C419.806 259.137 419.421 236.815 420.19 214.365Z" fill="#27265A"/>
<path d="M419.678 284.152C430.955 280.432 442.231 276.584 453.508 272.992C433.133 301.471 412.63 329.822 392.255 358.301C391.358 359.584 390.332 360.867 389.435 362.022C399.174 335.98 409.682 310.194 419.678 284.152Z" fill="#27265A"/>
<path d="M374.186 273.505C388.282 277.481 402.378 281.202 416.474 285.05C406.735 310.579 396.612 335.98 386.744 361.38C385.591 358.558 385.463 355.479 385.078 352.528C381.49 326.23 377.902 299.931 374.186 273.505Z" fill="#442259"/>
<path d="M389.948 364.459C411.348 334.312 433.005 304.421 454.533 274.274C450.945 294.672 446.46 314.941 442.616 335.338C439.284 351.759 436.337 368.308 432.749 384.6C418.524 377.801 404.172 371.13 389.948 364.459Z" fill="#27265A"/>
<path d="M343.687 336.621C353.17 315.839 363.037 295.185 372.905 274.531C376.749 303.523 380.85 332.388 384.694 361.252C370.854 353.426 357.399 344.703 343.687 336.621Z" fill="#442259"/>
<path d="M298.195 386.909C312.804 370.745 327.925 354.966 342.534 338.802C352.145 344.575 361.756 350.476 371.495 356.377C375.852 359.199 380.593 361.508 384.566 364.716C355.733 372.156 327.028 379.725 298.195 386.909Z" fill="#442259"/>
<path d="M298.964 388.32C327.156 381.008 355.22 373.696 383.413 366.64C372.905 377.416 362.653 388.192 352.145 398.968C342.15 409.231 332.41 419.75 322.287 429.628C319.211 425.138 316.905 420.135 314.086 415.517C309.088 406.408 303.706 397.557 298.964 388.32Z" fill="#442259"/>
<path d="M363.037 496.465C363.037 496.465 336.639 453.617 323.44 432.194C344.584 410.385 365.856 388.448 387.001 366.512C383.797 385.754 379.953 404.997 376.364 424.24" fill="#27265A"/>
<path d="M388.666 366.64C403.019 373.311 417.243 380.11 431.467 386.909C411.861 419.109 391.87 451.052 372.136 483.251C369.829 487.1 367.266 490.82 365.216 494.797L388.666 366.64Z" fill="#27265A"/>
<path d="M229.125 412.181C250.781 404.869 272.31 397.172 293.967 389.86C282.049 406.537 269.619 422.957 257.445 439.506C248.09 451.95 238.992 464.778 229.509 477.094C229.637 469.91 229.509 462.726 229.894 455.542C229.509 441.045 229.125 426.549 229.125 412.181Z" fill="#442259"/>
<path d="M295.12 391.014C295.504 390.373 296.786 389.09 297.17 390.501C304.731 404.228 312.548 417.697 319.98 431.424C290.635 446.562 261.289 461.699 231.816 476.709C252.832 448.101 274.104 419.622 295.12 391.014Z" fill="#442259"/>
<path d="M255.779 467.216C277.564 455.927 299.477 444.766 321.262 433.477C334.589 455.157 347.916 476.965 361.243 498.646C317.674 492.616 273.976 486.715 230.406 480.557C238.608 475.683 247.321 471.706 255.779 467.216Z" fill="#27265A"/>
<path d="M229.253 482.097C248.219 484.278 267.056 487.228 286.022 489.794C310.754 493.129 335.358 496.721 360.09 499.928C354.195 503.136 347.916 505.316 341.893 508.139C304.346 524.431 266.672 540.723 229.125 556.887C229.253 532 228.869 506.984 229.253 482.097Z" fill="#27265A"/>
<path d="M42.1238 135.896L98.8381 103.921L52.3602 139.833L42.1238 135.896Z" fill="#7082C4"/>
<path d="M380.949 72.8889L320.411 65.3302L375.252 79.3073L380.949 72.8889Z" fill="#7082C4"/>
<path d="M362.653 186.27C362.653 159.972 362.525 133.802 362.653 107.503C363.806 105.835 365.472 104.553 366.882 103.013C365.216 101.217 361.756 97.8818 361.756 97.8818L360.218 99.5495L312.804 34.2522L315.111 31.9431L310.241 27.1965L307.038 30.2754L231.431 5.51628L232.072 4.87485L227.331 0L221.949 4.74657L222.718 5.64456C222.718 5.64456 172.228 22.1934 147.111 30.1471C146.086 29.1208 143.78 27.0682 143.78 27.0682L138.782 32.0714C138.782 32.0714 140.32 33.6108 141.089 34.3805C139.038 37.4594 136.732 40.4099 134.553 43.4888C120.97 62.0902 107.514 80.6916 93.9309 99.293C93.4184 98.7798 92.9058 98.2667 92.3932 97.6252C90.7273 99.4212 88.8051 100.961 87.2673 102.885C88.8051 104.296 90.2147 105.835 91.6243 107.375C91.4962 133.545 91.6243 186.014 91.6243 186.014L87.5236 190.247L87.2673 190.504C87.2673 190.504 90.7273 193.968 92.3932 195.635C92.9058 195.122 93.5465 194.609 94.0591 194.224C108.796 214.493 123.533 234.762 138.269 255.16C139.166 256.443 141.089 259.137 141.089 259.137L138.654 261.574C138.654 261.574 142.114 264.909 143.78 266.705C144.805 265.679 146.983 263.498 146.983 263.498C146.983 263.498 157.107 266.705 162.233 268.373C182.223 274.916 222.205 287.873 222.205 287.873L221.692 288.386L227.074 293.645L231.944 288.771L231.303 288.001C231.303 288.001 278.461 272.735 301.912 265.166C303.578 264.653 305.243 264.011 306.909 263.627C308.191 264.525 309.088 265.679 310.241 266.705C311.907 264.909 313.829 263.37 315.367 261.446C314.598 260.676 313.829 259.906 313.06 259.137C328.694 237.713 344.328 216.161 359.962 194.609C360.731 194.352 361.243 195.379 361.884 195.764C363.55 194.096 365.216 192.428 366.882 190.632C365.6 189.093 364.191 187.682 362.653 186.27ZM305.372 147.657H336.767L338.818 149.709L313.445 206.924L312.548 206.155L311.779 206.924L299.349 175.879L298.58 177.547C298.58 177.547 306.781 197.688 310.754 207.822C310.113 208.464 308.703 209.747 308.703 209.747C308.703 209.747 301.784 209.49 298.452 209.105C290.507 208.72 273.72 207.822 273.72 207.822L271.797 208.977L308.319 211.158C308.319 211.158 309.088 211.928 309.6 212.312C294.095 226.167 278.589 240.15 263.083 254.133C262.443 253.492 261.93 252.979 261.289 252.337C261.033 252.466 260.649 252.594 260.392 252.722C256.932 242.588 253.344 232.582 249.884 222.575C249.628 222.704 248.987 222.96 248.731 223.088C252.191 233.48 255.907 243.742 259.367 254.133C258.727 254.775 258.214 255.288 257.573 255.929C237.454 254.005 195.935 249.772 195.935 249.772L194.525 248.745C194.525 248.745 209.903 235.917 217.464 229.759C219.898 227.835 225.537 223.217 225.537 223.217L223.871 222.96L223.102 223.602L193.628 247.976L191.578 246.436C191.578 246.436 184.53 221.164 181.198 209.105C181.07 208.079 180.045 207.566 179.276 206.924C182.608 220.266 190.297 247.463 190.297 247.463L189.656 248.232L135.963 215.904L136.86 214.622L135.194 213.082L162.873 192.428L162.233 191.658C162.233 191.658 145.061 204.359 136.219 211.03C135.706 211.414 134.297 212.441 134.297 212.441L132.247 210.645C132.247 210.645 123.276 169.978 118.791 150.094C119.176 149.709 119.432 149.324 119.816 149.068C131.478 156.637 143.011 164.334 154.672 171.903C154.544 171.133 154.416 170.363 153.647 170.107C142.626 162.923 131.606 155.61 120.585 148.426C120.97 147.913 121.482 147.4 121.867 146.887C121.482 146.374 120.97 145.861 120.585 145.476C131.862 138.163 143.011 130.851 154.159 123.539C154.288 123.154 154.544 122.384 154.8 121.999C143.139 129.568 131.478 137.265 119.688 144.834C119.304 144.449 119.048 144.065 118.663 143.808C123.148 123.924 131.862 84.027 131.862 84.027L134.425 81.7178L162.873 102.885L163.258 101.987L135.066 80.9481L136.732 79.2804C136.732 79.2804 135.963 78.5107 135.578 78.2541C152.365 68.3761 169.153 58.6265 185.812 48.8768C186.965 48.2353 189.015 47.0808 189.015 47.0808L189.912 48.3636C189.912 48.3636 182.864 74.0207 179.276 86.721C179.789 86.4644 180.429 86.0795 180.942 85.6947C184.146 73.5076 190.937 49.2616 190.937 49.2616L193.628 47.0808L221.564 70.3004L223.486 70.4287L194.654 46.1828C194.654 46.1828 195.679 44.8999 196.576 44.7716C196.576 44.7716 237.07 40.6665 257.317 38.6139C257.958 39.2554 258.47 39.7685 259.111 40.4099C255.523 51.0576 248.09 72.353 248.09 72.353L249.5 72.4813C249.5 72.4813 250.781 68.6327 251.422 66.7084C254.241 58.3699 260.264 41.3079 260.264 41.3079L261.033 41.9493C261.033 41.9493 262.186 40.7948 262.827 40.1533C278.333 54.0082 309.344 81.9744 309.344 81.9744L308.063 83.2573C308.063 83.2573 284.099 84.5401 272.31 85.3098C272.694 85.5664 273.463 86.2078 273.848 86.5927C285.509 85.9512 297.042 85.1815 308.703 84.6684C309.344 85.3098 309.857 85.823 310.497 86.4644C307.038 95.4444 303.321 104.296 299.733 113.276C298.964 115.329 297.555 117.381 298.452 119.69C302.809 109.171 311.395 87.4907 311.395 87.4907L312.035 88.0038L313.06 87.2341L338.433 144.449L336.255 146.502L304.475 146.63L305.372 147.657ZM314.598 86.0795L314.47 85.823L315.111 85.1815C315.111 85.1815 335.742 93.3918 345.994 97.3687C349.838 98.9081 357.655 101.987 357.655 101.987L356.758 102.885C356.758 102.885 358.68 104.809 359.705 105.707C353.939 117.894 341.893 143.167 341.893 143.167L340.868 142.14L339.971 142.91C339.971 143.038 323.056 105.066 314.598 86.0795ZM311.651 35.5351L311.907 35.2785L313.189 37.0745L359.193 100.576L358.808 100.961L316.136 84.027L317.033 83.129C317.033 83.129 314.47 80.5633 313.317 79.4087C312.804 68.6327 312.42 57.985 311.907 47.209C311.907 43.3605 311.266 39.5119 311.651 35.5351ZM309.857 36.0482C309.857 36.0482 311.138 65.4256 311.907 79.537C311.523 79.9218 311.138 80.3067 310.882 80.6916C295.376 66.8367 279.871 52.8536 264.365 38.8705C264.878 38.3574 265.262 37.8442 265.775 37.4594C279.358 36.0482 306.781 33.2259 306.781 33.2259L309.857 36.0482ZM254.882 14.8811C270.9 20.1408 287.047 25.4005 303.065 30.5319C303.962 30.9168 306.269 31.6865 306.269 31.6865C306.269 31.6865 278.589 34.6371 264.878 36.0482C263.724 34.8936 261.289 32.4562 261.289 32.4562L259.111 34.3805C259.111 34.3805 239.633 16.0357 230.022 6.79913C238.479 9.36484 246.681 12.1871 254.882 14.8811ZM227.203 10.1346C227.203 10.1346 228.74 8.72342 229.509 7.9537C238.992 16.9337 258.598 35.2785 258.598 35.2785L257.061 36.8179C257.061 36.8179 216.182 41.0513 195.679 42.9756C195.422 42.7191 195.038 42.3342 194.782 42.0776C204.905 30.7885 225.28 8.08199 225.28 8.08199L227.203 10.1346ZM148.265 31.4299C148.265 31.4299 197.857 15.3943 222.461 7.31228L223.615 6.79913L224.127 7.31228C224.127 7.31228 210.544 22.5782 203.624 30.2754C200.292 33.8674 197.088 37.7159 193.628 41.3079C193.116 40.7948 191.963 39.6402 191.963 39.6402L188.374 42.5908L147.752 32.4562L148.393 31.8148L148.265 31.4299ZM143.652 36.5614L146.855 33.4825C146.855 33.4825 174.15 40.2816 187.477 43.6171C187.862 44.1302 188.246 44.7716 188.631 45.2848C170.818 55.6759 135.066 76.7147 135.066 76.7147L134.041 75.945C134.041 75.945 140.32 50.2879 143.523 37.5876L143.652 36.5614ZM141.986 36.0482C140.448 43.7453 138.398 51.1859 136.603 58.883C135.322 64.0144 132.631 75.047 132.631 75.047L132.375 74.7904L127.761 79.2804C127.761 79.2804 128.658 80.0501 129.043 80.435C117.766 87.2341 106.617 93.905 95.3405 100.576C110.846 78.8956 126.48 57.4719 141.986 36.0482ZM97.519 103.013C97.1346 102.5 96.622 101.987 96.2375 101.346C107.514 94.6747 118.663 87.8755 129.94 81.2047C130.196 81.4613 130.581 81.8461 130.837 82.1027C126.608 102.115 122.123 121.999 117.766 142.012C117.253 142.397 116.741 142.91 116.228 143.295C109.052 130.723 102.004 118.151 94.828 105.707C95.725 104.809 96.622 103.911 97.519 103.013ZM93.4184 186.912C93.1621 185.244 93.1621 183.576 93.1621 181.909C93.1621 157.278 93.1621 132.775 93.1621 108.145C93.2902 107.631 93.0339 106.605 93.8028 106.99C100.979 119.434 108.155 131.877 115.203 144.449C114.306 145.219 113.537 146.117 112.768 147.015C113.537 147.785 114.306 148.555 115.203 149.324C108.668 160.742 102.004 172.159 95.4687 183.576C95.0843 184.731 94.4435 186.014 93.4184 186.912ZM116.228 150.351C116.741 150.735 117.253 151.249 117.766 151.633C122.123 171.133 130.837 211.671 130.837 211.671L130.068 212.569C130.068 212.569 107.514 198.971 96.2375 192.172C96.7501 191.658 97.1346 191.145 97.6472 190.76C96.7501 189.862 95.8531 188.964 94.9561 188.066C101.876 175.238 109.18 162.794 116.228 150.351ZM95.2124 192.941C106.489 199.612 117.894 206.54 129.171 213.339C128.787 213.724 127.89 214.493 127.89 214.493L132.887 218.983C132.887 218.983 139.295 244.897 142.242 257.597C126.48 236.174 110.846 214.493 95.2124 192.941ZM143.395 256.186C143.395 256.186 137.116 230.657 133.912 217.957C134.169 217.7 134.553 217.187 134.681 216.931C152.622 227.322 188.887 248.489 188.887 248.489L187.606 250.028L147.24 259.906L143.395 256.186ZM219.258 285.05C195.679 277.353 148.265 261.959 148.265 261.959L148.906 261.317L148.521 260.933L189.015 251.055C190.04 252.081 191.066 253.107 192.091 254.133C192.603 253.492 193.116 252.979 193.757 252.466C200.42 259.65 206.827 267.09 213.491 274.274C217.079 278.379 220.923 282.356 224.383 286.59C222.589 286.333 220.923 285.563 219.258 285.05ZM227.331 283.511L225.152 285.435C225.152 285.435 204.777 262.857 194.654 251.568L195.422 250.67C195.422 250.67 236.942 254.903 256.933 256.827C257.445 257.469 258.727 258.11 257.83 259.008C248.603 267.603 229.381 285.563 229.381 285.563L227.331 283.511ZM255.138 278.636C246.809 281.33 238.608 284.152 230.278 286.59C239.889 277.353 249.628 268.373 259.239 259.265C260.008 259.906 260.521 260.676 261.418 261.061C262.699 260.035 263.724 258.752 264.878 257.597C274.488 258.623 284.228 259.521 293.839 260.548C297.939 261.061 302.04 261.061 306.012 261.959C289.097 267.603 272.054 272.991 255.138 278.636ZM309.857 256.571C309.088 257.982 307.678 259.008 306.525 260.035C304.859 260.163 303.193 259.906 301.527 259.778C289.61 258.623 277.564 257.469 265.646 256.314C265.134 255.801 264.749 255.288 264.237 254.903C279.742 241.048 295.248 227.065 310.754 213.082C311.138 213.467 311.523 213.852 311.779 214.108C311.138 228.22 310.626 242.46 309.857 256.571ZM337.664 222.575C329.079 234.378 320.493 246.18 312.035 257.982C311.138 257.084 311.523 255.929 311.523 254.775C312.163 241.305 312.676 227.835 313.317 214.365C314.598 213.082 317.161 210.645 317.161 210.645L316.392 209.618C316.392 209.618 343.815 198.586 357.271 193.198C357.911 192.941 358.552 192.813 359.321 192.685C352.273 202.691 344.841 212.569 337.664 222.575ZM356.758 190.504C357.014 190.76 357.399 191.274 357.655 191.402C343.559 197.046 329.591 202.819 315.495 208.336C315.367 208.079 314.983 207.694 314.726 207.438C323.184 188.451 331.513 169.465 340.099 150.479C340.355 150.735 340.74 150.992 341.124 151.377C341.381 151.12 341.893 150.607 342.15 150.351C348.044 162.666 353.939 174.981 359.834 187.297C358.68 188.58 357.655 189.606 356.758 190.504ZM361.115 133.802C361.115 147.272 361.115 160.742 361.115 174.083C361.115 178.188 361.243 182.422 360.987 186.527C359.834 184.859 359.065 182.935 358.168 181.139C353.17 170.491 347.916 160.1 342.918 149.453C343.815 148.683 344.712 147.785 345.609 146.759C344.712 145.861 343.815 145.091 342.918 144.193C346.891 135.469 351.12 126.874 355.22 118.279C357.143 114.431 358.68 110.454 360.859 106.862C361.243 115.842 360.987 124.822 361.115 133.802Z" fill="#CFC0C8"/>
<path d="M231.816 74.2773C224.64 72.7379 217.335 71.3268 210.159 69.7873C209.006 69.4025 208.109 70.3005 207.212 70.8136C201.958 74.2773 196.576 77.6128 191.322 81.2047C197.857 80.435 204.265 79.0239 210.672 77.9976C217.72 76.7148 224.768 75.6885 231.816 74.2773Z" fill="#CFC0C8"/>
<path d="M235.404 72.0964C235.66 72.7379 235.916 73.251 236.173 73.8924C241.683 73.3793 247.193 73.6359 252.704 72.8662C242.067 72.0964 231.431 71.0702 220.795 70.3004C219.001 70.1722 217.207 69.9156 215.413 70.0439C220.923 71.1984 226.562 72.353 232.072 73.5076C233.225 72.9944 234.251 72.6096 235.404 72.0964Z" fill="#CFC0C8"/>
<path d="M256.42 81.5896C262.699 83.6421 268.85 86.0795 275.129 88.0038C269.363 83.129 263.724 78.3824 257.958 73.6359C251.038 74.149 244.118 74.2773 237.198 74.6621C243.477 77.2278 249.884 79.2804 256.42 81.5896Z" fill="#CFC0C8"/>
<path d="M205.29 104.168L205.802 104.809C205.802 104.809 224.127 84.925 232.969 75.1753C229.509 75.4319 226.049 76.3299 222.589 76.843C211.953 78.639 201.445 80.435 190.809 82.231C190.681 82.3593 190.297 82.8724 190.168 83.0007C194.91 90.1847 204.393 104.681 204.393 104.681L205.29 104.168Z" fill="#CFC0C8"/>
<path d="M234.635 75.6885C233.61 76.0733 232.969 76.9713 232.328 77.7411C225.152 85.5665 217.976 93.3919 210.928 101.217C209.518 102.757 207.853 104.296 206.699 106.092C209.518 106.605 212.466 106.605 215.285 106.862C227.971 107.888 257.445 110.326 257.445 110.326L257.317 110.069L258.214 109.812C258.086 109.684 242.324 86.9776 234.635 75.6885Z" fill="#CFC0C8"/>
<path d="M240.786 76.9713C239.12 76.4582 237.582 75.6885 235.788 75.5602C243.477 86.8493 259.111 109.299 259.111 109.299L260.777 108.786C260.777 108.786 271.669 95.701 276.539 89.6716C274.745 88.7736 272.822 88.2604 271.028 87.619C260.777 84.1553 250.781 80.5633 240.786 76.9713Z" fill="#CFC0C8"/>
<path d="M163.001 117.638C176.2 114.174 203.239 106.605 203.239 106.605L202.727 105.835L203.496 105.322C203.496 105.322 194.013 90.6978 189.4 83.5138C188.631 83.8987 187.99 84.4118 187.477 85.1815C182.095 92.3655 176.713 99.4212 171.331 106.605C168.512 110.069 165.564 113.661 163.001 117.638Z" fill="#CFC0C8"/>
<path d="M187.221 83.6421C180.814 87.1058 174.663 90.6978 168.256 94.2898C167.23 94.6746 166.846 95.7009 166.718 96.5989C165.436 103.141 163.642 109.684 162.489 116.355C170.818 105.451 179.148 94.6746 187.221 83.6421Z" fill="#CFC0C8"/>
<path d="M261.802 111.352C261.802 111.352 274.36 117.509 280.639 120.588C286.406 123.282 292.044 126.233 297.811 128.799C294.607 122.769 291.404 116.74 288.2 110.71C284.612 104.039 281.28 97.2403 277.436 90.6978L261.417 110.069L261.802 111.352Z" fill="#CFC0C8"/>
<path d="M297.17 120.075C296.53 115.457 295.889 110.967 295.12 106.349C294.992 105.322 294.095 104.809 293.454 104.168C288.585 100.063 283.971 95.5727 279.102 91.4675C285.381 103.526 291.788 115.329 298.067 127.387C297.939 124.95 297.427 122.513 297.17 120.075Z" fill="#CFC0C8"/>
<path d="M159.413 117.638C159.413 117.638 160.823 116.996 161.464 116.74C162.617 112.122 163.642 107.375 164.667 102.628C164.924 101.474 165.18 100.319 165.308 99.293C164.283 101.217 163.514 103.398 162.617 105.451C158.388 115.585 154.031 125.72 149.931 135.983C153.391 131.108 160.31 119.947 160.31 119.947L159.413 117.638Z" fill="#CFC0C8"/>
<path d="M163.258 118.664L162.617 119.562C162.617 119.562 174.791 140.986 180.942 151.633C181.711 153.045 182.352 154.584 183.505 155.61C186.068 150.222 188.118 144.706 190.425 139.318C194.525 129.44 198.626 119.562 202.855 109.684C203.111 109.043 203.239 108.273 203.368 107.631C199.395 108.401 195.551 109.684 191.578 110.71C182.48 113.276 163.258 118.664 163.258 118.664Z" fill="#CFC0C8"/>
<path d="M212.978 118.536C218.36 127.259 228.997 144.578 228.997 144.578L230.662 144.193L257.958 112.122L257.701 111.48C257.701 111.48 228.74 109.043 214.26 107.76C211.953 107.76 206.699 107.118 206.699 107.118L206.443 107.375L212.978 118.536Z" fill="#CFC0C8"/>
<path d="M202.983 112.763C197.217 126.489 191.45 140.216 185.683 154.071C185.427 154.712 185.171 155.482 185.043 156.252C187.99 155.739 190.937 154.969 193.757 154.327C204.905 151.762 227.843 146.245 227.843 146.245L227.459 145.091L227.843 144.963C227.843 144.963 212.722 120.332 205.162 108.273C204.136 109.556 203.624 111.224 202.983 112.763Z" fill="#CFC0C8"/>
<path d="M274.104 161.64C282.049 151.249 289.994 140.857 297.939 130.595C297.683 130.466 297.298 130.081 297.042 129.825C285.381 124.18 262.186 112.891 262.186 112.891L261.546 112.635L260.777 112.891C264.749 129.44 268.594 145.989 272.438 162.538C272.951 162.281 273.72 162.153 274.104 161.64Z" fill="#CFC0C8"/>
<path d="M232.2 147.015C232.2 147.015 258.342 158.176 271.285 163.564C270.516 158.946 269.235 154.456 268.209 149.966C265.39 137.779 259.624 113.276 259.624 113.276L258.855 113.533C249.756 124.052 231.816 145.219 231.816 145.219L232.2 147.015Z" fill="#CFC0C8"/>
<path d="M300.758 130.081C300.758 130.081 300.374 127.259 299.99 125.848C298.964 121.743 298.196 117.509 296.914 113.404C297.427 118.151 298.964 127.901 298.964 127.901L300.758 130.081Z" fill="#CFC0C8"/>
<path d="M161.72 120.332C159.798 133.802 157.62 147.4 155.697 160.87C155.569 161.64 155.697 162.409 155.697 163.179C158.388 162.794 160.951 162.025 163.642 161.511C169.665 160.1 175.56 158.817 181.583 157.406C181.583 157.15 181.455 156.637 181.455 156.38C181.711 156.123 182.48 155.867 181.967 155.354C175.56 144.065 169.153 132.775 162.745 121.486C162.361 120.973 162.105 120.588 161.72 120.332Z" fill="#CFC0C8"/>
<path d="M160.567 120.845C156.594 126.746 152.878 132.904 148.905 138.933C148.265 139.703 148.393 140.601 148.649 141.499C150.315 147.528 152.109 153.429 153.903 159.459C154.031 160.1 154.416 160.742 154.672 161.383C156.594 147.913 158.901 134.443 160.567 120.845Z" fill="#CFC0C8"/>
<path d="M304.346 145.861C303.834 140.857 302.168 136.111 301.271 131.108C300.886 131.236 300.246 131.621 299.861 131.749C301.399 136.496 302.937 141.114 304.346 145.861Z" fill="#CFC0C8"/>
<path d="M298.324 131.877C289.994 142.269 282.177 153.045 273.848 163.564C273.976 164.077 274.232 164.462 274.488 164.975C282.049 168.182 289.61 171.646 297.17 174.981C297.555 169.209 297.555 163.436 297.811 157.663C297.811 149.068 298.452 140.473 298.324 131.877Z" fill="#CFC0C8"/>
<path d="M299.349 132.904C298.964 146.374 298.58 159.844 298.324 173.185C301.015 166.643 303.578 159.972 306.141 153.429C305.628 151.12 304.731 148.811 303.962 146.502C302.424 142.012 301.143 137.394 299.349 132.904Z" fill="#CFC0C8"/>
<path d="M225.409 183.833C226.434 172.672 228.612 148.939 228.612 148.939L228.228 147.528C228.228 147.528 199.651 154.199 185.555 157.535C185.94 158.048 186.068 158.689 186.58 159.202C199.267 170.107 211.825 181.011 224.383 191.915C225.152 189.221 225.024 186.527 225.409 183.833Z" fill="#CFC0C8"/>
<path d="M249.884 177.675C256.676 173.442 263.596 169.465 270.388 165.232C270.388 165.103 270.388 164.847 270.388 164.847C257.83 159.331 232.072 148.426 232.072 148.426L230.15 148.811C228.869 161.64 227.715 174.597 226.562 187.425C226.434 188.836 226.177 190.376 226.562 191.787C234.379 187.168 242.068 182.422 249.884 177.675Z" fill="#CFC0C8"/>
<path d="M150.956 152.66C151.725 155.995 152.365 159.459 153.391 162.794C154.159 162.025 153.519 160.87 153.262 159.972C152.494 157.535 151.981 154.969 150.956 152.66Z" fill="#CFC0C8"/>
<path d="M180.558 199.997C181.327 186.655 182.095 173.314 182.864 159.972C182.48 159.331 182.224 158.689 181.839 158.048C173.381 159.972 164.796 162.025 156.338 163.821C156.21 164.077 156.082 164.59 155.954 164.847C160.823 171.903 165.821 178.958 170.69 186.014C174.022 190.76 177.098 195.507 180.558 199.997Z" fill="#CFC0C8"/>
<path d="M185.94 199.997C198.242 197.688 210.672 195.379 223.102 193.07C222.974 192.685 222.846 192.3 222.718 191.915C211.184 182.037 199.78 172.159 188.246 162.153C186.965 160.998 185.683 159.715 184.274 158.946C183.249 172.801 182.736 186.655 181.711 200.51C183.121 200.767 184.53 200.254 185.94 199.997Z" fill="#CFC0C8"/>
<path d="M154.288 165.745C154.16 167.028 154.544 168.182 154.8 169.465C155.313 171.518 155.697 173.57 156.21 175.623C156.21 173.442 155.569 171.389 155.313 169.337C155.057 168.054 155.185 166.643 154.288 165.745Z" fill="#CFC0C8"/>
<path d="M172.612 190.247C166.974 182.165 161.336 173.955 155.569 166.001C156.594 172.801 158.004 179.471 159.157 186.27C159.285 187.168 159.67 188.195 160.567 188.58C166.846 192.428 172.997 196.277 179.276 199.997C177.226 196.662 174.791 193.454 172.612 190.247Z" fill="#CFC0C8"/>
<path d="M272.566 166.643C270.644 180.113 268.466 193.454 266.8 206.924C267.953 206.026 269.106 205 270.003 203.846C278.846 194.609 287.816 185.501 296.658 176.264C289.097 172.672 281.408 169.593 273.72 166.13C273.463 166.258 272.951 166.515 272.566 166.643Z" fill="#CFC0C8"/>
<path d="M230.406 194.609C242.068 198.971 253.601 203.461 265.262 207.822C266.159 205.77 266.031 203.461 266.543 201.152C268.209 189.862 269.875 178.573 271.413 167.413C271.285 167.156 270.9 166.643 270.772 166.386C256.292 175.238 241.683 183.961 227.203 192.941C227.972 193.968 229.253 194.096 230.406 194.609Z" fill="#CFC0C8"/>
<path d="M285.509 189.093C279.871 195.25 273.72 201.023 268.209 207.181C274.36 204.359 280.383 201.536 286.534 198.842C287.431 198.458 287.687 197.431 288.2 196.662C290.891 190.504 293.71 184.346 296.401 178.188C292.557 181.652 289.225 185.501 285.509 189.093Z" fill="#CFC0C8"/>
<path d="M180.173 203.846C179.789 202.819 179.404 201.793 178.892 200.895C178.251 200.254 177.482 199.869 176.713 199.356C172.1 196.533 167.615 193.711 163.001 191.017C164.539 192.685 166.461 194.096 168.127 195.635C175.047 201.665 182.095 207.694 189.015 213.724C190.553 215.006 191.834 216.289 193.5 217.316C189.656 212.569 185.811 207.951 181.839 203.204C181.198 203.332 180.686 203.589 180.173 203.846Z" fill="#CFC0C8"/>
<path d="M223.486 193.968C209.903 196.533 196.32 198.971 182.608 201.665C183.505 202.306 184.402 202.948 185.427 203.461C192.603 207.053 199.908 210.516 207.084 214.237C211.825 216.546 216.31 218.983 221.18 221.036C222.205 212.954 223.102 204.872 223.999 196.918C224.383 195.764 223.871 194.866 223.486 193.968Z" fill="#CFC0C8"/>
<path d="M264.109 208.849C261.93 207.566 259.367 206.924 257.061 206.026C247.065 202.178 237.07 198.458 227.075 194.609C226.818 194.737 226.177 194.994 225.921 195.122C225.28 199.484 224.896 203.717 224.255 208.079C223.743 212.441 223.102 216.802 222.846 221.164C226.049 220.394 228.997 219.368 232.2 218.47C242.708 215.135 253.473 212.056 264.109 208.849Z" fill="#CFC0C8"/>
<path d="M268.209 209.618C267.184 210.003 266.159 210.516 265.006 210.901C264.878 210.773 264.493 210.516 264.237 210.388C259.88 213.852 255.267 216.931 251.038 220.651C261.546 214.365 272.054 207.951 282.562 201.536C277.564 203.461 272.694 206.026 267.825 208.079C267.953 208.592 268.081 209.105 268.209 209.618Z" fill="#CFC0C8"/>
<path d="M195.935 218.983C196.576 220.138 197.985 219.753 199.139 220.01C205.93 220.266 212.594 221.164 219.386 221.164C207.212 215.263 195.166 209.105 183.12 203.204C187.221 208.592 191.706 213.724 195.935 218.983Z" fill="#CFC0C8"/>
<path d="M251.679 213.467C242.452 216.289 233.226 218.855 224.127 221.806C230.791 222.575 237.454 223.217 244.118 223.986C245.528 224.243 246.425 223.217 247.45 222.447C252.832 218.214 258.342 214.237 263.724 210.003C259.624 211.03 255.651 212.312 251.679 213.467Z" fill="#CFC0C8"/>
<path d="M383.807 73.563L377.505 80.8233L392.639 101.481L383.807 73.563Z" fill="#7082C4"/>
<path d="M394.882 103.284L386.378 74.2271L412.478 86.0597L394.882 103.284Z" fill="#7082C4"/>
<path d="M392.093 108.94L414.731 87.5757L427.532 109.015L392.093 108.94Z" fill="#7082C4"/>
<path d="M427.999 112.195L390.822 112.348L414.024 141.338L427.999 112.195Z" fill="#7082C4"/>
<path d="M411.93 143.566L389.849 115.478L368.232 173.982L411.93 143.566Z" fill="#7082C4"/>
<path d="M364.411 176.15L383.15 125.888L305.49 171.812L364.411 176.15Z" fill="#7082C4"/>
<path d="M299.367 173.901L359.726 178.289L238.827 216.389L299.367 173.901Z" fill="#7082C4"/>
<path d="M230.123 218.102L290.326 177.04L194.565 196.45L230.123 218.102Z" fill="#7082C4"/>
<path d="M224.625 218.774L188.491 197.103L143.156 224.873L224.625 218.774Z" fill="#7082C4"/>
<path d="M134.799 224.872L179.539 197.656L97.2271 194.809L134.799 224.872Z" fill="#7082C4"/>
<path d="M17.505 192.052L50.9309 175.375L49.5995 213.871L17.505 192.052Z" fill="#7082C4"/>
<path d="M127.317 224.613L92.9299 194.086L58.4419 216.478L127.317 224.613Z" fill="#7082C4"/>
<path d="M89.2183 193.094L54.1646 215.18L54.5531 178.952L89.2183 193.094Z" fill="#7082C4"/>
<path d="M39.8624 138.509L50.3904 142.804L46.4419 165.33L39.8624 138.509Z" fill="#7082C4"/>
<path d="M45.7253 169.389L37.5152 140.19L19.3351 162.012L45.7253 169.389Z" fill="#7082C4"/>
<path d="M49.3572 172.678L17.9513 164.345L17.1148 188.531L49.3572 172.678Z" fill="#7082C4"/>
</svg>
