<svg width="414" height="294" viewBox="0 0 414 294" fill="none" xmlns="http://www.w3.org/2000/svg">
<path d="M26.1238 135.896L82.8381 103.921L36.3602 139.833L26.1238 135.896Z" fill="#7082C4"/>
<path d="M364.949 72.8889L304.411 65.3302L359.252 79.3073L364.949 72.8889Z" fill="#7082C4"/>
<path d="M346.653 186.27C346.653 159.972 346.525 133.802 346.653 107.503C347.806 105.835 349.472 104.553 350.882 103.013C349.216 101.217 345.756 97.8818 345.756 97.8818L344.218 99.5495L296.804 34.2522L299.111 31.9431L294.241 27.1965L291.038 30.2754L215.431 5.51628L216.072 4.87485L211.331 0L205.949 4.74657L206.718 5.64456C206.718 5.64456 156.228 22.1934 131.111 30.1471C130.086 29.1208 127.78 27.0682 127.78 27.0682L122.782 32.0714C122.782 32.0714 124.32 33.6108 125.089 34.3805C123.038 37.4594 120.732 40.4099 118.553 43.4888C104.97 62.0902 91.5144 80.6916 77.9309 99.293C77.4184 98.7798 76.9058 98.2667 76.3932 97.6252C74.7273 99.4212 72.8051 100.961 71.2673 102.885C72.8051 104.296 74.2147 105.835 75.6243 107.375C75.4962 133.545 75.6243 186.014 75.6243 186.014L71.5236 190.247L71.2673 190.504C71.2673 190.504 74.7273 193.968 76.3932 195.635C76.9058 195.122 77.5465 194.609 78.0591 194.224C92.7959 214.493 107.533 234.762 122.269 255.16C123.166 256.443 125.089 259.137 125.089 259.137L122.654 261.574C122.654 261.574 126.114 264.909 127.78 266.705C128.805 265.679 130.983 263.498 130.983 263.498C130.983 263.498 141.107 266.705 146.233 268.373C166.223 274.916 206.205 287.873 206.205 287.873L205.692 288.386L211.074 293.645L215.944 288.771L215.303 288.001C215.303 288.001 262.461 272.735 285.912 265.166C287.578 264.653 289.243 264.011 290.909 263.627C292.191 264.525 293.088 265.679 294.241 266.705C295.907 264.909 297.829 263.37 299.367 261.446C298.598 260.676 297.829 259.906 297.06 259.137C312.694 237.713 328.328 216.161 343.962 194.609C344.731 194.352 345.243 195.379 345.884 195.764C347.55 194.096 349.216 192.428 350.882 190.632C349.6 189.093 348.191 187.682 346.653 186.27ZM289.372 147.657H320.767L322.818 149.709L297.445 206.924L296.548 206.155L295.779 206.924L283.349 175.879L282.58 177.547C282.58 177.547 290.781 197.688 294.754 207.822C294.113 208.464 292.703 209.747 292.703 209.747C292.703 209.747 285.784 209.49 282.452 209.105C274.507 208.72 257.72 207.822 257.72 207.822L255.797 208.977L292.319 211.158C292.319 211.158 293.088 211.928 293.6 212.312C278.095 226.167 262.589 240.15 247.083 254.133C246.443 253.492 245.93 252.979 245.289 252.337C245.033 252.466 244.649 252.594 244.392 252.722C240.932 242.588 237.344 232.582 233.884 222.575C233.628 222.704 232.987 222.96 232.731 223.088C236.191 233.48 239.907 243.742 243.367 254.133C242.727 254.775 242.214 255.288 241.573 255.929C221.454 254.005 179.935 249.772 179.935 249.772L178.525 248.745C178.525 248.745 193.903 235.917 201.464 229.759C203.898 227.835 209.537 223.217 209.537 223.217L207.871 222.96L207.102 223.602L177.628 247.976L175.578 246.436C175.578 246.436 168.53 221.164 165.198 209.105C165.07 208.079 164.045 207.566 163.276 206.924C166.608 220.266 174.297 247.463 174.297 247.463L173.656 248.232L119.963 215.904L120.86 214.622L119.194 213.082L146.873 192.428L146.233 191.658C146.233 191.658 129.061 204.359 120.219 211.03C119.706 211.414 118.297 212.441 118.297 212.441L116.247 210.645C116.247 210.645 107.276 169.978 102.791 150.094C103.176 149.709 103.432 149.324 103.816 149.068C115.478 156.637 127.011 164.334 138.672 171.903C138.544 171.133 138.416 170.363 137.647 170.107C126.626 162.923 115.606 155.61 104.585 148.426C104.97 147.913 105.482 147.4 105.867 146.887C105.482 146.374 104.97 145.861 104.585 145.476C115.862 138.163 127.011 130.851 138.159 123.539C138.288 123.154 138.544 122.384 138.8 121.999C127.139 129.568 115.478 137.265 103.688 144.834C103.304 144.449 103.048 144.065 102.663 143.808C107.148 123.924 115.862 84.027 115.862 84.027L118.425 81.7178L146.873 102.885L147.258 101.987L119.066 80.9481L120.732 79.2804C120.732 79.2804 119.963 78.5107 119.578 78.2541C136.365 68.3761 153.153 58.6265 169.812 48.8768C170.965 48.2353 173.015 47.0808 173.015 47.0808L173.912 48.3636C173.912 48.3636 166.864 74.0207 163.276 86.721C163.789 86.4644 164.429 86.0795 164.942 85.6947C168.146 73.5076 174.937 49.2616 174.937 49.2616L177.628 47.0808L205.564 70.3004L207.486 70.4287L178.654 46.1828C178.654 46.1828 179.679 44.8999 180.576 44.7716C180.576 44.7716 221.07 40.6665 241.317 38.6139C241.958 39.2554 242.47 39.7685 243.111 40.4099C239.523 51.0576 232.09 72.353 232.09 72.353L233.5 72.4813C233.5 72.4813 234.781 68.6327 235.422 66.7084C238.241 58.3699 244.264 41.3079 244.264 41.3079L245.033 41.9493C245.033 41.9493 246.186 40.7948 246.827 40.1533C262.333 54.0082 293.344 81.9744 293.344 81.9744L292.063 83.2573C292.063 83.2573 268.099 84.5401 256.31 85.3098C256.694 85.5664 257.463 86.2078 257.848 86.5927C269.509 85.9512 281.042 85.1815 292.703 84.6684C293.344 85.3098 293.857 85.823 294.497 86.4644C291.038 95.4444 287.321 104.296 283.733 113.276C282.964 115.329 281.555 117.381 282.452 119.69C286.809 109.171 295.395 87.4907 295.395 87.4907L296.035 88.0038L297.06 87.2341L322.433 144.449L320.255 146.502L288.475 146.63L289.372 147.657ZM298.598 86.0795L298.47 85.823L299.111 85.1815C299.111 85.1815 319.742 93.3918 329.994 97.3687C333.838 98.9081 341.655 101.987 341.655 101.987L340.758 102.885C340.758 102.885 342.68 104.809 343.705 105.707C337.939 117.894 325.893 143.167 325.893 143.167L324.868 142.14L323.971 142.91C323.971 143.038 307.056 105.066 298.598 86.0795ZM295.651 35.5351L295.907 35.2785L297.189 37.0745L343.193 100.576L342.808 100.961L300.136 84.027L301.033 83.129C301.033 83.129 298.47 80.5633 297.317 79.4087C296.804 68.6327 296.42 57.985 295.907 47.209C295.907 43.3605 295.266 39.5119 295.651 35.5351ZM293.857 36.0482C293.857 36.0482 295.138 65.4256 295.907 79.537C295.523 79.9218 295.138 80.3067 294.882 80.6916C279.376 66.8367 263.871 52.8536 248.365 38.8705C248.878 38.3574 249.262 37.8442 249.775 37.4594C263.358 36.0482 290.781 33.2259 290.781 33.2259L293.857 36.0482ZM238.882 14.8811C254.9 20.1408 271.047 25.4005 287.065 30.5319C287.962 30.9168 290.269 31.6865 290.269 31.6865C290.269 31.6865 262.589 34.6371 248.878 36.0482C247.724 34.8936 245.289 32.4562 245.289 32.4562L243.111 34.3805C243.111 34.3805 223.633 16.0357 214.022 6.79913C222.479 9.36484 230.681 12.1871 238.882 14.8811ZM211.203 10.1346C211.203 10.1346 212.74 8.72342 213.509 7.9537C222.992 16.9337 242.598 35.2785 242.598 35.2785L241.061 36.8179C241.061 36.8179 200.182 41.0513 179.679 42.9756C179.422 42.7191 179.038 42.3342 178.782 42.0776C188.905 30.7885 209.28 8.08199 209.28 8.08199L211.203 10.1346ZM132.265 31.4299C132.265 31.4299 181.857 15.3943 206.461 7.31228L207.615 6.79913L208.127 7.31228C208.127 7.31228 194.544 22.5782 187.624 30.2754C184.292 33.8674 181.088 37.7159 177.628 41.3079C177.116 40.7948 175.963 39.6402 175.963 39.6402L172.374 42.5908L131.752 32.4562L132.393 31.8148L132.265 31.4299ZM127.652 36.5614L130.855 33.4825C130.855 33.4825 158.15 40.2816 171.477 43.6171C171.862 44.1302 172.246 44.7716 172.631 45.2848C154.818 55.6759 119.066 76.7147 119.066 76.7147L118.041 75.945C118.041 75.945 124.32 50.2879 127.523 37.5876L127.652 36.5614ZM125.986 36.0482C124.448 43.7453 122.398 51.1859 120.603 58.883C119.322 64.0144 116.631 75.047 116.631 75.047L116.375 74.7904L111.761 79.2804C111.761 79.2804 112.658 80.0501 113.043 80.435C101.766 87.2341 90.6174 93.905 79.3405 100.576C94.8462 78.8956 110.48 57.4719 125.986 36.0482ZM81.519 103.013C81.1346 102.5 80.622 101.987 80.2375 101.346C91.5144 94.6747 102.663 87.8755 113.94 81.2047C114.196 81.4613 114.581 81.8461 114.837 82.1027C110.608 102.115 106.123 121.999 101.766 142.012C101.253 142.397 100.741 142.91 100.228 143.295C93.0521 130.723 86.0041 118.151 78.828 105.707C79.725 104.809 80.622 103.911 81.519 103.013ZM77.4184 186.912C77.1621 185.244 77.1621 183.576 77.1621 181.909C77.1621 157.278 77.1621 132.775 77.1621 108.145C77.2902 107.631 77.0339 106.605 77.8028 106.99C84.979 119.434 92.1551 131.877 99.2032 144.449C98.3061 145.219 97.5373 146.117 96.7684 147.015C97.5373 147.785 98.3061 148.555 99.2032 149.324C92.6677 160.742 86.0041 172.159 79.4687 183.576C79.0843 184.731 78.4435 186.014 77.4184 186.912ZM100.228 150.351C100.741 150.735 101.253 151.249 101.766 151.633C106.123 171.133 114.837 211.671 114.837 211.671L114.068 212.569C114.068 212.569 91.5144 198.971 80.2375 192.172C80.7501 191.658 81.1346 191.145 81.6472 190.76C80.7501 189.862 79.8531 188.964 78.9561 188.066C85.876 175.238 93.1803 162.794 100.228 150.351ZM79.2124 192.941C90.4892 199.612 101.894 206.54 113.171 213.339C112.787 213.724 111.89 214.493 111.89 214.493L116.887 218.983C116.887 218.983 123.295 244.897 126.242 257.597C110.48 236.174 94.8462 214.493 79.2124 192.941ZM127.395 256.186C127.395 256.186 121.116 230.657 117.912 217.957C118.169 217.7 118.553 217.187 118.681 216.931C136.622 227.322 172.887 248.489 172.887 248.489L171.606 250.028L131.24 259.906L127.395 256.186ZM203.258 285.05C179.679 277.353 132.265 261.959 132.265 261.959L132.906 261.317L132.521 260.933L173.015 251.055C174.04 252.081 175.066 253.107 176.091 254.133C176.603 253.492 177.116 252.979 177.757 252.466C184.42 259.65 190.827 267.09 197.491 274.274C201.079 278.379 204.923 282.356 208.383 286.59C206.589 286.333 204.923 285.563 203.258 285.05ZM211.331 283.511L209.152 285.435C209.152 285.435 188.777 262.857 178.654 251.568L179.422 250.67C179.422 250.67 220.942 254.903 240.933 256.827C241.445 257.469 242.727 258.11 241.83 259.008C232.603 267.603 213.381 285.563 213.381 285.563L211.331 283.511ZM239.138 278.636C230.809 281.33 222.608 284.152 214.278 286.59C223.889 277.353 233.628 268.373 243.239 259.265C244.008 259.906 244.521 260.676 245.418 261.061C246.699 260.035 247.724 258.752 248.878 257.597C258.488 258.623 268.228 259.521 277.839 260.548C281.939 261.061 286.04 261.061 290.012 261.959C273.097 267.603 256.054 272.991 239.138 278.636ZM293.857 256.571C293.088 257.982 291.678 259.008 290.525 260.035C288.859 260.163 287.193 259.906 285.527 259.778C273.61 258.623 261.564 257.469 249.646 256.314C249.134 255.801 248.749 255.288 248.237 254.903C263.742 241.048 279.248 227.065 294.754 213.082C295.138 213.467 295.523 213.852 295.779 214.108C295.138 228.22 294.626 242.46 293.857 256.571ZM321.664 222.575C313.079 234.378 304.493 246.18 296.035 257.982C295.138 257.084 295.523 255.929 295.523 254.775C296.163 241.305 296.676 227.835 297.317 214.365C298.598 213.082 301.161 210.645 301.161 210.645L300.392 209.618C300.392 209.618 327.815 198.586 341.271 193.198C341.911 192.941 342.552 192.813 343.321 192.685C336.273 202.691 328.841 212.569 321.664 222.575ZM340.758 190.504C341.014 190.76 341.399 191.274 341.655 191.402C327.559 197.046 313.591 202.819 299.495 208.336C299.367 208.079 298.983 207.694 298.726 207.438C307.184 188.451 315.513 169.465 324.099 150.479C324.355 150.735 324.74 150.992 325.124 151.377C325.381 151.12 325.893 150.607 326.15 150.351C332.044 162.666 337.939 174.981 343.834 187.297C342.68 188.58 341.655 189.606 340.758 190.504ZM345.115 133.802C345.115 147.272 345.115 160.742 345.115 174.083C345.115 178.188 345.243 182.422 344.987 186.527C343.834 184.859 343.065 182.935 342.168 181.139C337.17 170.491 331.916 160.1 326.918 149.453C327.815 148.683 328.712 147.785 329.609 146.759C328.712 145.861 327.815 145.091 326.918 144.193C330.891 135.469 335.12 126.874 339.22 118.279C341.143 114.431 342.68 110.454 344.859 106.862C345.243 115.842 344.987 124.822 345.115 133.802Z" fill="#CFC0C8"/>
<path d="M215.816 74.2773C208.64 72.7379 201.335 71.3268 194.159 69.7873C193.006 69.4025 192.109 70.3005 191.212 70.8136C185.958 74.2773 180.576 77.6128 175.322 81.2047C181.857 80.435 188.265 79.0239 194.672 77.9976C201.72 76.7148 208.768 75.6885 215.816 74.2773Z" fill="#CFC0C8"/>
<path d="M219.404 72.0964C219.66 72.7379 219.916 73.251 220.173 73.8924C225.683 73.3793 231.193 73.6359 236.704 72.8662C226.067 72.0964 215.431 71.0702 204.795 70.3004C203.001 70.1722 201.207 69.9156 199.413 70.0439C204.923 71.1984 210.562 72.353 216.072 73.5076C217.225 72.9944 218.251 72.6096 219.404 72.0964Z" fill="#CFC0C8"/>
<path d="M240.42 81.5896C246.699 83.6421 252.85 86.0795 259.129 88.0038C253.363 83.129 247.724 78.3824 241.958 73.6359C235.038 74.149 228.118 74.2773 221.198 74.6621C227.477 77.2278 233.884 79.2804 240.42 81.5896Z" fill="#CFC0C8"/>
<path d="M189.29 104.168L189.802 104.809C189.802 104.809 208.127 84.925 216.969 75.1753C213.509 75.4319 210.049 76.3299 206.589 76.843C195.953 78.639 185.445 80.435 174.809 82.231C174.681 82.3593 174.297 82.8724 174.168 83.0007C178.91 90.1847 188.393 104.681 188.393 104.681L189.29 104.168Z" fill="#CFC0C8"/>
<path d="M218.635 75.6885C217.61 76.0733 216.969 76.9713 216.328 77.7411C209.152 85.5665 201.976 93.3919 194.928 101.217C193.518 102.757 191.853 104.296 190.699 106.092C193.518 106.605 196.466 106.605 199.285 106.862C211.971 107.888 241.445 110.326 241.445 110.326L241.317 110.069L242.214 109.812C242.086 109.684 226.324 86.9776 218.635 75.6885Z" fill="#CFC0C8"/>
<path d="M224.786 76.9713C223.12 76.4582 221.582 75.6885 219.788 75.5602C227.477 86.8493 243.111 109.299 243.111 109.299L244.777 108.786C244.777 108.786 255.669 95.701 260.539 89.6716C258.745 88.7736 256.822 88.2604 255.028 87.619C244.777 84.1553 234.781 80.5633 224.786 76.9713Z" fill="#CFC0C8"/>
<path d="M147.001 117.638C160.2 114.174 187.239 106.605 187.239 106.605L186.727 105.835L187.496 105.322C187.496 105.322 178.013 90.6978 173.4 83.5138C172.631 83.8987 171.99 84.4118 171.477 85.1815C166.095 92.3655 160.713 99.4212 155.331 106.605C152.512 110.069 149.564 113.661 147.001 117.638Z" fill="#CFC0C8"/>
<path d="M171.221 83.6421C164.814 87.1058 158.663 90.6978 152.256 94.2898C151.23 94.6746 150.846 95.7009 150.718 96.5989C149.436 103.141 147.642 109.684 146.489 116.355C154.818 105.451 163.148 94.6746 171.221 83.6421Z" fill="#CFC0C8"/>
<path d="M245.802 111.352C245.802 111.352 258.36 117.509 264.639 120.588C270.406 123.282 276.044 126.233 281.811 128.799C278.607 122.769 275.404 116.74 272.2 110.71C268.612 104.039 265.28 97.2403 261.436 90.6978L245.417 110.069L245.802 111.352Z" fill="#CFC0C8"/>
<path d="M281.17 120.075C280.53 115.457 279.889 110.967 279.12 106.349C278.992 105.322 278.095 104.809 277.454 104.168C272.585 100.063 267.971 95.5727 263.102 91.4675C269.381 103.526 275.788 115.329 282.067 127.387C281.939 124.95 281.427 122.513 281.17 120.075Z" fill="#CFC0C8"/>
<path d="M143.413 117.638C143.413 117.638 144.823 116.996 145.464 116.74C146.617 112.122 147.642 107.375 148.667 102.628C148.924 101.474 149.18 100.319 149.308 99.293C148.283 101.217 147.514 103.398 146.617 105.451C142.388 115.585 138.031 125.72 133.931 135.983C137.391 131.108 144.31 119.947 144.31 119.947L143.413 117.638Z" fill="#CFC0C8"/>
<path d="M147.258 118.664L146.617 119.562C146.617 119.562 158.791 140.986 164.942 151.633C165.711 153.045 166.352 154.584 167.505 155.61C170.068 150.222 172.118 144.706 174.425 139.318C178.525 129.44 182.626 119.562 186.855 109.684C187.111 109.043 187.239 108.273 187.368 107.631C183.395 108.401 179.551 109.684 175.578 110.71C166.48 113.276 147.258 118.664 147.258 118.664Z" fill="#CFC0C8"/>
<path d="M196.978 118.536C202.36 127.259 212.997 144.578 212.997 144.578L214.662 144.193L241.958 112.122L241.701 111.48C241.701 111.48 212.74 109.043 198.26 107.76C195.953 107.76 190.699 107.118 190.699 107.118L190.443 107.375L196.978 118.536Z" fill="#CFC0C8"/>
<path d="M186.983 112.763C181.217 126.489 175.45 140.216 169.683 154.071C169.427 154.712 169.171 155.482 169.043 156.252C171.99 155.739 174.937 154.969 177.757 154.327C188.905 151.762 211.843 146.245 211.843 146.245L211.459 145.091L211.843 144.963C211.843 144.963 196.722 120.332 189.162 108.273C188.136 109.556 187.624 111.224 186.983 112.763Z" fill="#CFC0C8"/>
<path d="M258.104 161.64C266.049 151.249 273.994 140.857 281.939 130.595C281.683 130.466 281.298 130.081 281.042 129.825C269.381 124.18 246.186 112.891 246.186 112.891L245.546 112.635L244.777 112.891C248.749 129.44 252.594 145.989 256.438 162.538C256.951 162.281 257.72 162.153 258.104 161.64Z" fill="#CFC0C8"/>
<path d="M216.2 147.015C216.2 147.015 242.342 158.176 255.285 163.564C254.516 158.946 253.235 154.456 252.209 149.966C249.39 137.779 243.624 113.276 243.624 113.276L242.855 113.533C233.756 124.052 215.816 145.219 215.816 145.219L216.2 147.015Z" fill="#CFC0C8"/>
<path d="M284.758 130.081C284.758 130.081 284.374 127.259 283.99 125.848C282.964 121.743 282.196 117.509 280.914 113.404C281.427 118.151 282.964 127.901 282.964 127.901L284.758 130.081Z" fill="#CFC0C8"/>
<path d="M145.72 120.332C143.798 133.802 141.62 147.4 139.697 160.87C139.569 161.64 139.697 162.409 139.697 163.179C142.388 162.794 144.951 162.025 147.642 161.511C153.665 160.1 159.56 158.817 165.583 157.406C165.583 157.15 165.455 156.637 165.455 156.38C165.711 156.123 166.48 155.867 165.967 155.354C159.56 144.065 153.153 132.775 146.745 121.486C146.361 120.973 146.105 120.588 145.72 120.332Z" fill="#CFC0C8"/>
<path d="M144.567 120.845C140.594 126.746 136.878 132.904 132.905 138.933C132.265 139.703 132.393 140.601 132.649 141.499C134.315 147.528 136.109 153.429 137.903 159.459C138.031 160.1 138.416 160.742 138.672 161.383C140.594 147.913 142.901 134.443 144.567 120.845Z" fill="#CFC0C8"/>
<path d="M288.346 145.861C287.834 140.857 286.168 136.111 285.271 131.108C284.886 131.236 284.246 131.621 283.861 131.749C285.399 136.496 286.937 141.114 288.346 145.861Z" fill="#CFC0C8"/>
<path d="M282.324 131.877C273.994 142.269 266.177 153.045 257.848 163.564C257.976 164.077 258.232 164.462 258.488 164.975C266.049 168.182 273.61 171.646 281.17 174.981C281.555 169.209 281.555 163.436 281.811 157.663C281.811 149.068 282.452 140.473 282.324 131.877Z" fill="#CFC0C8"/>
<path d="M283.349 132.904C282.964 146.374 282.58 159.844 282.324 173.185C285.015 166.643 287.578 159.972 290.141 153.429C289.628 151.12 288.731 148.811 287.962 146.502C286.424 142.012 285.143 137.394 283.349 132.904Z" fill="#CFC0C8"/>
<path d="M209.409 183.833C210.434 172.672 212.612 148.939 212.612 148.939L212.228 147.528C212.228 147.528 183.651 154.199 169.555 157.535C169.94 158.048 170.068 158.689 170.58 159.202C183.267 170.107 195.825 181.011 208.383 191.915C209.152 189.221 209.024 186.527 209.409 183.833Z" fill="#CFC0C8"/>
<path d="M233.884 177.675C240.676 173.442 247.596 169.465 254.388 165.232C254.388 165.103 254.388 164.847 254.388 164.847C241.83 159.331 216.072 148.426 216.072 148.426L214.15 148.811C212.869 161.64 211.715 174.597 210.562 187.425C210.434 188.836 210.177 190.376 210.562 191.787C218.379 187.168 226.068 182.422 233.884 177.675Z" fill="#CFC0C8"/>
<path d="M134.956 152.66C135.725 155.995 136.365 159.459 137.391 162.794C138.159 162.025 137.519 160.87 137.262 159.972C136.494 157.535 135.981 154.969 134.956 152.66Z" fill="#CFC0C8"/>
<path d="M164.558 199.997C165.327 186.655 166.095 173.314 166.864 159.972C166.48 159.331 166.224 158.689 165.839 158.048C157.381 159.972 148.796 162.025 140.338 163.821C140.21 164.077 140.082 164.59 139.954 164.847C144.823 171.903 149.821 178.958 154.69 186.014C158.022 190.76 161.098 195.507 164.558 199.997Z" fill="#CFC0C8"/>
<path d="M169.94 199.997C182.242 197.688 194.672 195.379 207.102 193.07C206.974 192.685 206.846 192.3 206.718 191.915C195.184 182.037 183.78 172.159 172.246 162.153C170.965 160.998 169.683 159.715 168.274 158.946C167.249 172.801 166.736 186.655 165.711 200.51C167.121 200.767 168.53 200.254 169.94 199.997Z" fill="#CFC0C8"/>
<path d="M138.288 165.745C138.16 167.028 138.544 168.182 138.8 169.465C139.313 171.518 139.697 173.57 140.21 175.623C140.21 173.442 139.569 171.389 139.313 169.337C139.057 168.054 139.185 166.643 138.288 165.745Z" fill="#CFC0C8"/>
<path d="M156.612 190.247C150.974 182.165 145.336 173.955 139.569 166.001C140.594 172.801 142.004 179.471 143.157 186.27C143.285 187.168 143.67 188.195 144.567 188.58C150.846 192.428 156.997 196.277 163.276 199.997C161.226 196.662 158.791 193.454 156.612 190.247Z" fill="#CFC0C8"/>
<path d="M256.566 166.643C254.644 180.113 252.466 193.454 250.8 206.924C251.953 206.026 253.106 205 254.003 203.846C262.846 194.609 271.816 185.501 280.658 176.264C273.097 172.672 265.408 169.593 257.72 166.13C257.463 166.258 256.951 166.515 256.566 166.643Z" fill="#CFC0C8"/>
<path d="M214.406 194.609C226.068 198.971 237.601 203.461 249.262 207.822C250.159 205.77 250.031 203.461 250.543 201.152C252.209 189.862 253.875 178.573 255.413 167.413C255.285 167.156 254.9 166.643 254.772 166.386C240.292 175.238 225.683 183.961 211.203 192.941C211.972 193.968 213.253 194.096 214.406 194.609Z" fill="#CFC0C8"/>
<path d="M269.509 189.093C263.871 195.25 257.72 201.023 252.209 207.181C258.36 204.359 264.383 201.536 270.534 198.842C271.431 198.458 271.687 197.431 272.2 196.662C274.891 190.504 277.71 184.346 280.401 178.188C276.557 181.652 273.225 185.501 269.509 189.093Z" fill="#CFC0C8"/>
<path d="M164.173 203.846C163.789 202.819 163.404 201.793 162.892 200.895C162.251 200.254 161.482 199.869 160.713 199.356C156.1 196.533 151.615 193.711 147.001 191.017C148.539 192.685 150.461 194.096 152.127 195.635C159.047 201.665 166.095 207.694 173.015 213.724C174.553 215.006 175.834 216.289 177.5 217.316C173.656 212.569 169.811 207.951 165.839 203.204C165.198 203.332 164.686 203.589 164.173 203.846Z" fill="#CFC0C8"/>
<path d="M207.486 193.968C193.903 196.533 180.32 198.971 166.608 201.665C167.505 202.306 168.402 202.948 169.427 203.461C176.603 207.053 183.908 210.516 191.084 214.237C195.825 216.546 200.31 218.983 205.18 221.036C206.205 212.954 207.102 204.872 207.999 196.918C208.383 195.764 207.871 194.866 207.486 193.968Z" fill="#CFC0C8"/>
<path d="M248.109 208.849C245.93 207.566 243.367 206.924 241.061 206.026C231.065 202.178 221.07 198.458 211.075 194.609C210.818 194.737 210.177 194.994 209.921 195.122C209.28 199.484 208.896 203.717 208.255 208.079C207.743 212.441 207.102 216.802 206.846 221.164C210.049 220.394 212.997 219.368 216.2 218.47C226.708 215.135 237.473 212.056 248.109 208.849Z" fill="#CFC0C8"/>
<path d="M252.209 209.618C251.184 210.003 250.159 210.516 249.006 210.901C248.878 210.773 248.493 210.516 248.237 210.388C243.88 213.852 239.267 216.931 235.038 220.651C245.546 214.365 256.054 207.951 266.562 201.536C261.564 203.461 256.694 206.026 251.825 208.079C251.953 208.592 252.081 209.105 252.209 209.618Z" fill="#CFC0C8"/>
<path d="M179.935 218.983C180.576 220.138 181.985 219.753 183.139 220.01C189.93 220.266 196.594 221.164 203.386 221.164C191.212 215.263 179.166 209.105 167.12 203.204C171.221 208.592 175.706 213.724 179.935 218.983Z" fill="#CFC0C8"/>
<path d="M235.679 213.467C226.452 216.289 217.226 218.855 208.127 221.806C214.791 222.575 221.454 223.217 228.118 223.986C229.528 224.243 230.425 223.217 231.45 222.447C236.832 218.214 242.342 214.237 247.724 210.003C243.624 211.03 239.651 212.312 235.679 213.467Z" fill="#CFC0C8"/>
<path d="M367.807 73.563L361.505 80.8233L376.639 101.481L367.807 73.563Z" fill="#7082C4"/>
<path d="M378.882 103.284L370.378 74.2271L396.478 86.0597L378.882 103.284Z" fill="#7082C4"/>
<path d="M376.093 108.94L398.731 87.5757L411.532 109.015L376.093 108.94Z" fill="#7082C4"/>
<path d="M411.999 112.195L374.822 112.348L398.024 141.338L411.999 112.195Z" fill="#7082C4"/>
<path d="M395.93 143.566L373.849 115.478L352.232 173.982L395.93 143.566Z" fill="#7082C4"/>
<path d="M348.411 176.15L367.15 125.888L289.49 171.812L348.411 176.15Z" fill="#7082C4"/>
<path d="M283.367 173.901L343.726 178.289L222.827 216.389L283.367 173.901Z" fill="#7082C4"/>
<path d="M214.123 218.102L274.326 177.04L178.565 196.45L214.123 218.102Z" fill="#7082C4"/>
<path d="M208.625 218.774L172.491 197.103L127.156 224.873L208.625 218.774Z" fill="#7082C4"/>
<path d="M118.799 224.872L163.539 197.656L81.2271 194.809L118.799 224.872Z" fill="#7082C4"/>
<path d="M1.50504 192.052L34.9309 175.375L33.5995 213.871L1.50504 192.052Z" fill="#7082C4"/>
<path d="M111.317 224.613L76.9299 194.086L42.4419 216.478L111.317 224.613Z" fill="#7082C4"/>
<path d="M73.2183 193.094L38.1646 215.18L38.5531 178.952L73.2183 193.094Z" fill="#7082C4"/>
<path d="M23.8624 138.509L34.3904 142.804L30.4419 165.33L23.8624 138.509Z" fill="#7082C4"/>
<path d="M29.7253 169.389L21.5152 140.19L3.33509 162.012L29.7253 169.389Z" fill="#7082C4"/>
<path d="M33.3572 172.678L1.95132 164.345L1.1148 188.531L33.3572 172.678Z" fill="#7082C4"/>
</svg>
