<svg width="69" height="57" viewBox="0 0 69 57" fill="none" xmlns="http://www.w3.org/2000/svg">
    <g clip-path="url(#clip0_1134_77)">
    <mask id="mask0_1134_77" style="mask-type:luminance" maskUnits="userSpaceOnUse" x="0" y="0" width="69" height="57">
    <path d="M69 0H0V57H69V0Z" fill="white"/>
    </mask>
    <g mask="url(#mask0_1134_77)">
    <path d="M18.2286 36.4782C28.296 36.4782 36.4572 28.3123 36.4572 18.2391C36.4572 8.16593 28.296 0 18.2286 0C8.16123 0 0 8.16593 0 18.2391C0 28.3123 8.16123 36.4782 18.2286 36.4782Z" fill="white"/>
    <path d="M29.2353 39.23C27.8684 39.23 26.4967 39.6354 25.6613 40.4847V39.5726H22.4336V51.734H25.6594V45.6533C25.6594 42.9015 27.5886 42.2578 28.8079 42.2578C30.3687 42.2578 31.342 43.1602 31.342 45.1823V51.734H34.5658V44.3985C34.5658 42.8086 34.0816 41.548 33.1131 40.617C32.1484 39.6952 30.7902 39.23 29.2353 39.23Z" fill="white"/>
    <path d="M42.7776 39.2571C40.8985 39.2571 39.3528 39.8684 38.1406 41.091C36.9284 42.3135 36.322 43.8389 36.3213 45.6669C36.3213 47.5124 36.9448 49.046 38.1917 50.268C39.4387 51.4899 41.0101 52.1012 42.9059 52.1018C44.2003 52.1131 45.468 51.7337 46.5435 51.0131C47.6364 50.2863 48.3069 49.3076 48.7853 48.077H45.4207C45.2188 48.4175 44.9432 48.7084 44.6142 48.9283C44.0783 49.2791 43.4487 49.4592 42.8085 49.4447C41.8679 49.4447 41.0654 49.1416 40.447 48.5354C39.9607 48.0561 39.6582 47.421 39.5924 46.7412H49.0544C49.0985 46.3671 49.1156 45.9903 49.1056 45.6138C49.1056 43.8019 48.5165 42.2897 47.3384 41.0775C46.1602 39.8652 44.64 39.2584 42.7776 39.2571ZM39.7544 44.333C39.802 43.9998 39.9175 43.6799 40.0937 43.3932C40.2699 43.1064 40.5031 42.859 40.7789 42.6662C41.3573 42.2399 42.0593 42.0149 42.7776 42.0253C43.5493 42.0253 44.1982 42.2347 44.7242 42.6536C45.2501 43.0657 45.5912 43.6697 45.6724 44.333H39.7544Z" fill="white"/>
    <path d="M65.6526 39.5764L62.3102 47.1627L59.1829 39.5764H55.5674L60.5565 50.981L57.8102 56.9999H61.2375L68.9999 39.5764H65.6526Z" fill="white"/>
    <path d="M54.1583 33.4939H50.9297V51.733H54.1583V33.4939Z" fill="white"/>
    <path d="M8.5851 39.229C7.21895 39.2282 5.89037 39.6765 4.80375 40.505V39.5726H1.57031V56.9691H4.79893V50.8344C5.85423 51.6374 6.81404 52.1104 8.5851 52.1104C12.0809 52.1104 14.915 49.2457 14.915 45.6697C14.9102 42.0049 12.1697 39.229 8.5851 39.229ZM8.21661 49.0932C7.54161 49.0932 6.88177 48.8929 6.32053 48.5177C5.75928 48.1425 5.32185 47.6092 5.06354 46.9852C4.80523 46.3612 4.73764 45.6746 4.86933 45.0122C5.00101 44.3498 5.32606 43.7413 5.80335 43.2637C6.28065 42.7862 6.88876 42.4609 7.55079 42.3292C8.21282 42.1974 8.89904 42.265 9.52266 42.5235C10.1463 42.7819 10.6793 43.2196 11.0543 43.7812C11.4293 44.3428 11.6295 45.003 11.6295 45.6784C11.6295 46.1272 11.541 46.5717 11.3692 46.9863C11.1974 47.4009 10.9456 47.7776 10.6282 48.0947C10.3107 48.4119 9.93394 48.6633 9.51931 48.8346C9.10469 49.006 8.66038 49.0938 8.21179 49.0932H8.21661Z" fill="white"/>
    <path d="M19.8433 39.5754H16.6147V51.7387H19.8433V39.5754Z" fill="white"/>
    </g>
    </g>
    <defs>
    <clipPath id="clip0_1134_77">
    <rect width="69" height="57" fill="white"/>
    </clipPath>
    </defs>
    </svg>