<svg width="67" height="67" viewBox="0 0 67 67" fill="none" xmlns="http://www.w3.org/2000/svg">
<path d="M66.6564 50.164L58.3243 50.164L51.3254 40.1656L39.3273 40.1656L49.9923 66.8281L39.9938 66.8281L21.3301 40.1656L6.66565 40.1656C4.83259 40.1656 3.26395 39.5123 1.9597 38.2059C0.655461 36.8994 0.0022279 35.3308 6.04628e-06 33.4999C-0.00221581 31.6691 0.651017 30.0993 1.9597 28.7907C3.26839 27.482 4.83704 26.8299 6.66565 26.8343L21.3301 26.8343L39.9938 0.171742L49.9923 0.171742L39.3273 26.8343L51.3254 26.8343L58.3243 16.8358L66.6564 16.8358L61.6572 33.4999L66.6564 50.164Z" fill="white"/>
</svg>
