<svg width="333" height="754" viewBox="0 0 333 754" fill="none" xmlns="http://www.w3.org/2000/svg">
<path d="M286.256 455.506C287.692 456.631 289.386 457.339 291.16 457.566V450.179V443.147H284.679L286.123 454.673C286.196 454.942 286.243 455.219 286.256 455.506Z" fill="white" fill-opacity="0.2" stroke="#3389FE" stroke-width="3"/>
<path d="M291.157 457.567C289.385 457.338 287.69 456.631 286.253 455.506C286.255 455.561 286.27 455.612 286.27 455.667L286.236 456.994C287.722 457.98 289.406 458.614 291.156 458.813L291.157 457.567Z" fill="white" fill-opacity="0.2" stroke="#3389FE" stroke-width="3"/>
<path d="M301.041 589.894C298.358 586.992 295.33 584.507 292.056 582.495V582.742H291.245V582.015C287.4 579.775 283.24 578.18 278.923 577.316C278.395 577.684 277.754 577.903 277.062 577.903H276.368L276.363 578.112C285.97 579.392 295.014 584.484 301.573 592.345C301.395 591.528 301.212 590.712 301.041 589.894Z" fill="white" fill-opacity="0.2" stroke="#3389FE" stroke-width="3"/>
<path d="M291.159 487.813L291.125 488.314C291.123 488.458 291.102 492.076 291.245 498.18V478.461H291.157L291.159 487.813Z" fill="white" fill-opacity="0.2" stroke="#3389FE" stroke-width="3"/>
<path d="M303.349 592.894C292.945 545.602 292.735 494.33 292.744 488.813L292.778 488.794V478.461H292.055V517.939C292.84 531.6 294.284 548.737 296.932 566.648H298.154V567.459H297.053C298.164 574.879 299.475 582.418 301.039 589.893C301.211 590.712 301.393 591.527 301.57 592.344C301.675 592.829 301.779 593.314 301.886 593.797L303.349 592.894Z" fill="white" fill-opacity="0.2" stroke="#3389FE" stroke-width="3"/>
<path d="M291.159 458.813V463.603H292.78V450.18H291.159V457.566V458.813Z" fill="white" fill-opacity="0.2" stroke="#3389FE" stroke-width="3"/>
<path d="M292.78 421.901H292.737V435.322H292.78V421.901Z" fill="white" fill-opacity="0.2" stroke="#3389FE" stroke-width="3"/>
<path d="M292.78 195.667H291.159V209.088H292.78V195.667Z" fill="white" fill-opacity="0.2" stroke="#3389FE" stroke-width="3"/>
<path d="M292.78 393.623H292.737V407.044H292.78V393.623Z" fill="white" fill-opacity="0.2" stroke="#3389FE" stroke-width="3"/>
<path d="M292.152 281.282L292.738 283.012V293.927H292.78V280.506H291.159V281.913L292.152 281.282Z" fill="white" fill-opacity="0.2" stroke="#3389FE" stroke-width="3"/>
<path d="M292.779 180.81V157.604H291.382V127.635H292.779V122.58C292.779 99.9255 295.757 77.7554 301.63 56.6844C302.965 51.8795 304.39 47.3242 305.87 43.1093C305.602 42.9845 305.322 42.8759 305.059 42.7479L305.591 41.6552C305.815 41.7638 306.053 41.8562 306.278 41.9616C311.198 28.111 316.806 17.5025 322.96 10.4475C324.48 8.66756 326.132 7.05455 327.753 5.73174C330.196 4.37164 333.262 3.6227 336.391 3.6227C339.839 3.6227 343.156 4.51756 345.74 6.14352L345.845 6.22131C347.054 7.26368 348.239 8.4179 349.368 9.65642C355.935 16.8525 361.928 28.1029 367.189 43.0915C367.427 42.9926 367.675 42.9083 367.91 42.8078L368.385 43.9248C368.124 44.035 367.85 44.1306 367.587 44.2376C368.528 46.9935 369.476 49.9601 370.41 53.0823C374.262 66.15 377.013 79.6407 378.588 93.185C379.146 97.7062 379.569 102.539 379.884 107.958C380.175 112.727 380.323 117.736 380.323 122.851V180.812H381.944V122.851C381.944 117.706 381.795 112.662 381.503 107.862C381.189 102.409 380.761 97.5425 380.2 92.9921C378.614 79.3619 375.845 65.7787 371.966 52.6203C370.956 49.2468 369.928 46.0435 368.915 43.0996C363.536 27.6279 357.361 16.0079 350.567 8.56218C349.368 7.24423 348.103 6.01707 346.814 4.9131L346.672 4.81097C343.822 2.99858 340.171 2 336.392 2C332.993 2 329.645 2.82189 326.85 4.39273C325.038 5.85496 323.315 7.53766 321.734 9.38571C315.373 16.679 309.595 27.6295 304.561 41.9292C302.992 46.3515 301.483 51.1678 300.071 56.2483C294.157 77.4603 291.16 99.778 291.16 122.58V180.812H292.779V180.81Z" fill="white" fill-opacity="0.2" stroke="#3389FE" stroke-width="3"/>
<path d="M329.902 692.792C329.743 690.652 329.455 688.178 329.037 685.414C328.314 680.528 327.219 675.005 325.767 668.887L324.177 669.21C325.615 675.257 326.712 680.776 327.435 685.653C327.861 688.48 328.153 691.002 328.307 693.158C328.406 694.429 328.998 695.609 329.98 696.582L329.902 692.792Z" fill="white" fill-opacity="0.2" stroke="#3389FE" stroke-width="3"/>
<path d="M292.78 365.344H292.737V378.765H292.78V365.344Z" fill="white" fill-opacity="0.2" stroke="#3389FE" stroke-width="3"/>
<path d="M292.78 252.226H291.159V265.649H292.78V252.226Z" fill="white" fill-opacity="0.2" stroke="#3389FE" stroke-width="3"/>
<path d="M292.78 223.946H291.159V237.367H292.78V223.946Z" fill="white" fill-opacity="0.2" stroke="#3389FE" stroke-width="3"/>
<path d="M292.78 337.064H292.737V350.485H292.78V337.064Z" fill="white" fill-opacity="0.2" stroke="#3389FE" stroke-width="3"/>
<path d="M292.78 308.784H292.737V322.205H292.78V308.784Z" fill="white" fill-opacity="0.2" stroke="#3389FE" stroke-width="3"/>
<path d="M337.032 171.356V171.964H352.888V170.748H320.176V171.964H335.816V171.356H337.032Z" fill="white" fill-opacity="0.2" stroke="#3389FE" stroke-width="3"/>
<path d="M314.582 106.666C319.168 88.1968 328.126 76.7259 337.961 76.7259C347.841 76.7259 356.809 88.2114 361.367 106.702L361.434 106.969L373.535 113.246L373.381 112.087C369.021 79.417 354.455 56.5968 337.961 56.5968C321.564 56.5968 307.029 79.2743 302.616 111.746L302.462 112.88L314.514 106.938L314.582 106.666ZM338.608 57.2063V57.8434C344.503 58.0688 350.13 61.3774 355.079 67.1129L355.145 66.9653L356.257 67.4598L355.949 68.1504C360.516 73.7966 364.462 81.5438 367.451 90.8489L367.792 90.669L368.362 91.7421L367.829 92.0258C369.62 97.8407 371.044 104.238 372.016 111.092L362.483 106.146C361.615 102.673 360.587 99.4472 359.428 96.4871L359.234 96.5892L358.663 95.5161L358.96 95.3588C356.502 89.411 353.487 84.6304 350.107 81.2521L349.992 81.5114L349.436 81.265L348.881 81.0186L349.181 80.3475C345.911 77.3857 342.332 75.7338 338.608 75.5588V76.0062H338H337.392V75.5539C333.669 75.7095 330.083 77.3517 326.805 80.3134L327.118 81.017L326.006 81.5114L325.876 81.2212C322.491 84.598 319.468 89.3835 316.999 95.341L317.333 95.5177L317.047 96.0543L316.762 96.5908L316.529 96.4676C315.368 99.4196 314.338 102.638 313.466 106.1L303.976 110.78C304.947 104.037 306.359 97.7402 308.128 92.0064L307.634 91.7438L307.919 91.2072L308.204 90.6706L308.506 90.8311C311.502 81.5179 315.455 73.7642 320.03 68.1179L319.738 67.463L320.849 66.9686L320.899 67.082C325.86 61.3434 331.493 58.0445 337.388 57.8434V57.2112H338.608V57.2063Z" fill="white" fill-opacity="0.2"/>
<path d="M338 76.0062H338.608V75.5588C342.332 75.7338 345.911 77.3857 349.181 80.3475L348.881 81.0186L349.436 81.265L349.992 81.5114L350.107 81.2521C353.487 84.6304 356.502 89.411 358.96 95.3588L358.663 95.5161L359.234 96.5892L359.428 96.4871C360.587 99.4472 361.615 102.673 362.483 106.146L372.016 111.092C371.044 104.238 369.62 97.8407 367.829 92.0258L368.362 91.7421L367.792 90.669L367.451 90.8489C364.462 81.5438 360.516 73.7966 355.949 68.1504L356.257 67.4598L355.145 66.9653L355.079 67.1129C350.13 61.3774 344.503 58.0688 338.608 57.8434V57.2063V57.2112H337.388V57.8434C331.493 58.0445 325.86 61.3434 320.899 67.082L320.849 66.9686L319.738 67.463L320.03 68.1179C315.455 73.7642 311.502 81.5179 308.506 90.8311L308.204 90.6706L307.919 91.2072L307.634 91.7438L308.128 92.0064C306.359 97.7402 304.947 104.037 303.976 110.78L313.466 106.1C314.338 102.638 315.368 99.4196 316.529 96.4676L316.762 96.5908L317.047 96.0543L317.333 95.5177L316.999 95.341C319.468 89.3835 322.491 84.598 325.876 81.2212L326.006 81.5114L327.118 81.017L326.805 80.3134C330.083 77.3517 333.669 75.7095 337.392 75.5539V76.0062H338ZM338 76.0062C338 76.0062 338 76.0062 338 76.0078M314.582 106.666C319.168 88.1968 328.126 76.7259 337.961 76.7259C347.841 76.7259 356.809 88.2114 361.367 106.702L361.434 106.969L373.535 113.246L373.381 112.087C369.021 79.417 354.455 56.5968 337.961 56.5968C321.564 56.5968 307.029 79.2743 302.616 111.746L302.462 112.88L314.514 106.938L314.582 106.666Z" stroke="#3389FE" stroke-width="3"/>
<path d="M307.923 91.2027H307.922" stroke="#3389FE" stroke-width="3" stroke-linecap="round" stroke-linejoin="round"/>
<path d="M308.207 90.6654L307.922 91.202L307.636 91.7402L308.131 92.0028L316.53 96.4641L316.763 96.5873L317.048 96.0507L317.334 95.5141L316.998 95.3358L308.507 90.8259L308.207 90.6654Z" fill="white" fill-opacity="0.2" stroke="#3389FE" stroke-width="3"/>
<path d="M320.85 66.9642L319.739 67.4587L320.031 68.1136L325.875 81.2185L326.005 81.5087L327.117 81.0143L326.802 80.3107L320.901 67.0777L320.85 66.9642Z" fill="white" fill-opacity="0.2" stroke="#3389FE" stroke-width="3"/>
<path d="M367.585 44.2357C367.847 44.1287 368.123 44.0331 368.382 43.9228L367.907 42.8059C367.672 42.9064 367.424 42.9907 367.186 43.0896C358.521 46.6528 348.456 48.5478 337.992 48.5478C326.362 48.5478 315.424 46.2621 306.275 41.9597C306.05 41.8543 305.811 41.7619 305.588 41.6533L305.056 42.7459C305.32 42.874 305.601 42.9826 305.866 43.1074C315.155 47.452 326.231 49.7636 337.99 49.7636C348.589 49.762 358.792 47.8427 367.585 44.2357Z" fill="white" fill-opacity="0.2" stroke="#3389FE" stroke-width="3"/>
<path d="M310.73 152.775V132.463C310.73 129.799 308.563 127.633 305.901 127.633H292.78H291.382V157.603H292.78H305.901C308.563 157.603 310.73 155.438 310.73 152.775ZM293.004 129.254H305.901C307.671 129.254 309.109 130.694 309.109 132.463V152.775C309.109 154.544 307.67 155.983 305.901 155.983H293.004V129.254Z" fill="white" fill-opacity="0.2" stroke="#3389FE" stroke-width="3"/>
<path d="M292.78 195.668H295.364C297.364 195.668 298.993 194.039 298.993 192.038V184.442C298.993 182.442 297.364 180.812 295.364 180.812H292.78H291.159V195.67H292.78V195.668ZM292.78 182.432H295.364C296.473 182.432 297.372 183.333 297.372 184.44V192.037C297.372 193.146 296.471 194.045 295.364 194.045H292.78V182.432Z" fill="white" fill-opacity="0.2" stroke="#3389FE" stroke-width="3"/>
<path d="M292.78 223.946H295.364C297.364 223.946 298.993 222.317 298.993 220.316V212.718C298.993 210.718 297.364 209.089 295.364 209.089H292.78H291.159V223.946H292.78ZM292.78 210.71H295.364C296.473 210.71 297.372 211.611 297.372 212.718V220.316C297.372 221.425 296.471 222.325 295.364 222.325H292.78V210.71Z" fill="white" fill-opacity="0.2" stroke="#3389FE" stroke-width="3"/>
<path d="M292.78 252.226H295.364C297.364 252.226 298.993 250.597 298.993 248.596V241C298.993 238.999 297.364 237.37 295.364 237.37H292.78H291.159V252.227L292.78 252.226ZM292.78 238.99H295.364C296.473 238.99 297.372 239.891 297.372 240.998V248.594C297.372 249.703 296.471 250.603 295.364 250.603H292.78V238.99Z" fill="white" fill-opacity="0.2" stroke="#3389FE" stroke-width="3"/>
<path d="M292.78 280.506H295.364C297.364 280.506 298.993 278.877 298.993 276.876V269.28C298.993 267.28 297.364 265.65 295.364 265.65H292.78H291.159V280.508H292.78V280.506ZM292.78 267.27H295.364C296.473 267.27 297.372 268.171 297.372 269.278V276.875C297.372 277.984 296.471 278.883 295.364 278.883H292.78V267.27Z" fill="white" fill-opacity="0.2" stroke="#3389FE" stroke-width="3"/>
<path d="M295.364 308.784C297.364 308.784 298.993 307.155 298.993 305.155V297.557C298.993 295.556 297.364 293.927 295.364 293.927H292.78H292.737V308.784H292.78H295.364ZM297.372 305.155C297.372 306.264 296.471 307.163 295.364 307.163H292.78V295.548H295.364C296.472 295.548 297.372 296.45 297.372 297.557V305.155Z" fill="white" fill-opacity="0.2" stroke="#3389FE" stroke-width="3"/>
<path d="M295.364 337.064C297.364 337.064 298.993 335.435 298.993 333.435V325.838C298.993 323.838 297.364 322.209 295.364 322.209H292.78H292.737V337.066H292.78H295.364V337.064ZM297.372 333.433C297.372 334.542 296.471 335.442 295.364 335.442H292.78V323.826H295.364C296.472 323.826 297.372 324.728 297.372 325.835V333.433Z" fill="white" fill-opacity="0.2" stroke="#3389FE" stroke-width="3"/>
<path d="M295.364 365.345C297.364 365.345 298.993 363.716 298.993 361.715V354.115C298.993 352.115 297.364 350.486 295.364 350.486H292.78H292.737V365.345H292.78H295.364ZM297.372 361.715C297.372 362.824 296.471 363.724 295.364 363.724H292.78V352.107H295.364C296.472 352.107 297.372 353.008 297.372 354.115V361.715Z" fill="white" fill-opacity="0.2" stroke="#3389FE" stroke-width="3"/>
<path d="M295.364 393.622C297.364 393.622 298.993 391.993 298.993 389.993V382.396C298.993 380.396 297.364 378.767 295.364 378.767H292.78H292.737V393.624H292.78H295.364V393.622ZM297.372 389.993C297.372 391.102 296.471 392.001 295.364 392.001H292.78V380.386H295.364C296.472 380.386 297.372 381.288 297.372 382.395V389.993Z" fill="white" fill-opacity="0.2" stroke="#3389FE" stroke-width="3"/>
<path d="M295.364 421.901C297.364 421.901 298.993 420.272 298.993 418.272V410.674C298.993 408.673 297.364 407.044 295.364 407.044H292.78H292.737V421.901H292.78H295.364ZM297.372 418.272C297.372 419.38 296.471 420.28 295.364 420.28H292.78V408.665H295.364C296.472 408.665 297.372 409.566 297.372 410.674V418.272Z" fill="white" fill-opacity="0.2" stroke="#3389FE" stroke-width="3"/>
<path d="M292.78 450.181H295.364C297.364 450.181 298.993 448.552 298.993 446.551V438.955C298.993 436.955 297.364 435.325 295.364 435.325H292.78H292.738V443.15H291.159V450.183H292.78V450.181ZM297.372 446.551C297.372 447.66 296.471 448.56 295.364 448.56H292.78V436.945H295.364C296.473 436.945 297.372 437.846 297.372 438.953V446.551Z" fill="white" fill-opacity="0.2" stroke="#3389FE" stroke-width="3"/>
<path d="M298.993 474.831V467.233C298.993 465.233 297.364 463.604 295.364 463.604H292.78H291.159V474.039H292.057V478.461H292.78H295.364C297.364 478.461 298.993 476.832 298.993 474.831ZM292.78 465.225H295.364C296.473 465.225 297.372 466.126 297.372 467.233V474.831C297.372 475.94 296.471 476.84 295.364 476.84H292.78V465.225Z" fill="white" fill-opacity="0.2" stroke="#3389FE" stroke-width="3"/>
<path d="M291.246 474.849H291.159V478.461H291.246V474.849Z" fill="white" fill-opacity="0.2" stroke="#3389FE" stroke-width="3"/>
<path d="M163.266 349.92H162.813C159.462 349.92 156.734 352.648 156.734 355.999V367.21L157.95 366.439V355.999C157.95 353.318 160.132 351.136 162.813 351.136H163.266C165.947 351.136 168.129 353.318 168.129 355.999V359.98L169.345 359.209V356C169.345 352.648 166.618 349.92 163.266 349.92Z" fill="white" fill-opacity="0.2" stroke="#3389FE" stroke-width="3"/>
<path d="M168.13 359.981L157.951 366.439L156.735 367.211L17.9963 455.246C13.3323 458.206 9.38812 462.276 6.58844 467.015C4.97705 469.74 3.73851 472.653 2.90849 475.672C2.07037 478.708 1.64726 481.837 1.64726 484.969V491.881C1.54513 492.319 1.49487 492.782 1.49487 493.26V520.07C1.49487 521.798 2.1725 523.429 3.40456 524.661C4.63661 525.893 6.26746 526.571 7.99557 526.571C11.5896 526.571 14.5141 523.654 14.5141 520.07V514.001L226.028 443.151H236.54L236.742 441.53H225.897L121.135 476.6V477.155H120.325V476.873L28.4865 507.617V508.81H27.676V507.888L12.8962 512.835V520.07C12.8962 522.76 10.6996 524.95 7.99881 524.95C6.70192 524.95 5.47797 524.441 4.55393 523.515C3.62989 522.591 3.11924 521.367 3.11924 520.07V493.259C3.11924 492.883 3.16301 492.505 3.24731 492.171L3.27162 484.969C3.27162 481.981 3.6769 478.998 4.47612 476.1C5.2656 473.221 6.4474 470.44 7.98747 467.838C10.6445 463.338 14.3893 459.472 18.8117 456.651V455.311H19.6223V456.134L57.5743 432.053V430.795H58.3849V431.537L118.002 393.707V392.526H118.812V393.193L178.431 355.364V354.396H179.241V354.848L238.858 317.018V315.986H239.668V316.504L291.116 283.859V294.774L291.716 294.394L292.151 295.078L291.116 295.732V406.84L291.489 407.109L291.116 407.623V428.418H291.462V429.229H291.116V441.526H284.475L284.677 443.148H291.158H292.737V435.323V421.901V407.044V393.623V378.766V365.345V350.486V337.065V322.207V308.786V293.929V283.014L292.154 281.286L291.16 281.917L169.347 359.21L168.13 359.981Z" fill="white" fill-opacity="0.2" stroke="#3389FE" stroke-width="3"/>
<path d="M261.686 313.808V314.348L291.115 295.733L292.148 295.079L291.715 294.395L291.115 294.776L261.024 313.808H261.686Z" fill="white" fill-opacity="0.2" stroke="#3389FE" stroke-width="3"/>
<path d="M260.875 313.901L239.666 327.316V328.086H238.855V327.828L179.239 365.536V366.496L260.875 314.859V313.901Z" fill="white" fill-opacity="0.2" stroke="#3389FE" stroke-width="3"/>
<path d="M161.333 377.821V376.908H162.144V377.309L164.428 375.863V374.939H165.239V375.351L179.239 366.496H178.428V366.049L118.81 403.759V404.624H117.999V404.271L58.3807 441.979V442.894H57.5701V442.493L19.6181 466.497V456.133V455.309H18.8075V456.65V467.969L161.333 377.821Z" fill="white" fill-opacity="0.2" stroke="#3389FE" stroke-width="3"/>
<path d="M99.9569 465.509V466.377L120.321 458.538V476.869V477.153H121.132V476.598V457.358L99.9569 465.509Z" fill="white" fill-opacity="0.2" stroke="#3389FE" stroke-width="3"/>
<path d="M99.5634 466.53H99.1467V465.822L27.9325 493.235L27.6731 493.335V507.886V508.808H28.4837V507.615V493.893L99.5634 466.53Z" fill="white" fill-opacity="0.2" stroke="#3389FE" stroke-width="3"/>
<path d="M280.939 429.23H291.117H291.463V428.419H291.117H280.836L280.939 429.23Z" fill="white" fill-opacity="0.2" stroke="#3389FE" stroke-width="3"/>
<path d="M225.821 428.419L121.638 467.839L121.925 468.596L225.97 429.23H240.275L240.375 428.419H225.821Z" fill="white" fill-opacity="0.2" stroke="#3389FE" stroke-width="3"/>
<path d="M164.796 394.512L165.239 394.472V375.351V374.939H164.428V375.863V436.983C164.428 437.614 163.916 438.126 163.286 438.126C162.655 438.126 162.144 437.614 162.144 436.983V377.309V376.909H161.334V377.822V395.693L161.663 396.25L161.334 396.445V436.985C161.334 438.061 162.209 438.938 163.286 438.938C164.362 438.938 165.239 438.061 165.239 436.985V395.287L164.871 395.321L164.796 394.512Z" fill="white" fill-opacity="0.2" stroke="#3389FE" stroke-width="3"/>
<path d="M269.496 392.21L291.013 407.766L291.115 407.625L291.488 407.111L291.115 406.842L269.966 391.552C269.821 391.778 269.662 391.996 269.496 392.21Z" fill="white" fill-opacity="0.2" stroke="#3389FE" stroke-width="3"/>
<path d="M260.877 375.47C260.993 375.467 261.107 375.452 261.225 375.452C261.381 375.452 261.533 375.469 261.687 375.477V314.349V313.809H261.026H260.877V313.903V314.861V375.47Z" fill="white" fill-opacity="0.2" stroke="#3389FE" stroke-width="3"/>
<path d="M238.857 328.086H239.667V327.316V316.505V315.988H238.857V317.019V327.829V328.086Z" fill="white" fill-opacity="0.2" stroke="#3389FE" stroke-width="3"/>
<path d="M178.429 366.496H179.239V365.537V354.849V354.396H178.429V355.364V366.049V366.496Z" fill="white" fill-opacity="0.2" stroke="#3389FE" stroke-width="3"/>
<path d="M118 404.625H118.81V403.759V393.194V392.525H118V393.708V404.271V404.625Z" fill="white" fill-opacity="0.2" stroke="#3389FE" stroke-width="3"/>
<path d="M57.571 442.894H58.3816V441.979V431.536V430.794H57.571V432.052V442.493V442.894Z" fill="white" fill-opacity="0.2" stroke="#3389FE" stroke-width="3"/>
<path d="M165.24 394.473L164.797 394.513L164.873 395.321L165.241 395.286L250.914 387.369C250.875 387.103 250.848 386.834 250.83 386.562L165.24 394.473Z" fill="white" fill-opacity="0.2" stroke="#3389FE" stroke-width="3"/>
<path d="M161.333 395.693L161.25 395.553L99.3454 432.133L99.146 432.25V465.821V466.53H99.5626H99.9565V466.377V465.508V432.712L161.333 396.443L161.662 396.249L161.333 395.693Z" fill="white" fill-opacity="0.2" stroke="#3389FE" stroke-width="3"/>
<path d="M280.834 428.42L280.663 427.053C280.663 425.226 279.178 423.741 277.351 423.741H243.864C242.037 423.741 240.552 425.226 240.558 426.952L240.375 428.42L240.275 429.23L239.955 431.788C240.356 431.641 240.782 431.548 241.234 431.548H241.612L242.173 427.055C242.173 426.122 242.932 425.364 243.864 425.364H277.351C278.283 425.364 279.041 426.122 279.048 427.157L279.599 431.55H279.98C280.431 431.55 280.857 431.642 281.256 431.79L280.935 429.232L280.834 428.42Z" fill="white" fill-opacity="0.2" stroke="#3389FE" stroke-width="3"/>
<path d="M237.02 452.335L238.718 438.712H238.35V438.307H238.769L239.15 435.252C239.15 434.103 240.085 433.168 241.234 433.168H279.98C281.13 433.168 282.065 434.103 282.071 435.355L283.287 445.058H283.931V445.464H283.338L284.198 452.337C285.132 452.804 285.836 453.647 286.119 454.675L284.675 443.149L284.472 441.528L283.686 435.254C283.686 433.66 282.67 432.312 281.256 431.788C280.857 431.641 280.431 431.548 279.98 431.548H279.599H275.694V432.12H275.289V431.548H246.513V432.36H246.107V431.548H241.614H241.236C240.785 431.548 240.357 431.641 239.957 431.788C238.545 432.308 237.532 433.639 237.537 435.153L236.742 441.529L236.54 443.15L235.103 454.667C235.39 453.639 236.091 452.799 237.02 452.335Z" fill="white" fill-opacity="0.2" stroke="#3389FE" stroke-width="3"/>
<path d="M234.944 455.92C234.944 455.948 234.952 455.972 234.952 455.998L234.949 455.88L234.944 455.92Z" fill="white" fill-opacity="0.2" stroke="#3389FE" stroke-width="3"/>
<path d="M274.746 577.903L274.39 591.188C274.39 591.788 273.902 592.276 273.302 592.276H271.191V593.02H270.786V592.276H250.37V593.1H249.965V592.276H247.912C247.312 592.276 246.825 591.788 246.825 591.166L246.468 577.902H244.847L245.203 591.187C245.203 592.68 246.419 593.896 247.912 593.896H273.3C274.793 593.896 276.009 592.68 276.009 591.209L276.361 578.109L276.366 577.9H274.746V577.903Z" fill="white" fill-opacity="0.2" stroke="#3389FE" stroke-width="3"/>
<path d="M246.471 577.904H274.747H276.369H277.062C277.755 577.904 278.395 577.685 278.923 577.317C279.773 576.729 280.331 575.753 280.331 574.654L280.622 561.839C280.413 561.875 280.201 561.904 279.98 561.904H279L278.779 571.554H279.47V571.96H278.769L278.708 574.634C278.708 575.544 277.969 576.283 277.059 576.283H244.151C243.241 576.283 242.502 575.544 242.502 574.617L242.212 561.904H241.231C241.011 561.904 240.798 561.877 240.589 561.839L240.881 574.634C240.881 576.437 242.347 577.904 244.151 577.904H244.845H246.471Z" fill="white" fill-opacity="0.2" stroke="#3389FE" stroke-width="3"/>
<path d="M242.216 561.903H258.286V561.266H258.691V561.903H279H279.981C280.202 561.903 280.414 561.874 280.623 561.838C282.361 561.534 283.687 560.023 283.687 558.218L285.788 474.849H285.219V474.038H285.809L286.239 456.994L286.273 455.666C286.273 455.611 286.26 455.561 286.256 455.506C286.243 455.219 286.196 454.942 286.122 454.674C285.838 453.646 285.135 452.803 284.201 452.337C283.705 452.089 283.155 451.936 282.565 451.936H238.651C238.063 451.936 237.515 452.087 237.02 452.335C236.092 452.799 235.391 453.637 235.103 454.663C235.01 454.99 234.945 455.329 234.945 455.686L234.95 455.88L234.954 455.999L237.529 558.196C237.529 560.019 238.856 561.532 240.593 561.837C240.802 561.874 241.015 561.902 241.235 561.902H242.216V561.903ZM236.179 464.15H236.779L236.565 455.666C236.565 454.504 237.5 453.559 238.65 453.559H282.564C283.713 453.559 284.648 454.504 284.648 455.645L283.479 502.015H284.253V502.826H283.46L282.066 558.197C282.066 559.347 281.13 560.282 279.981 560.282H277.104V561.025H276.293V560.282H243.098V560.302H242.287V560.282H241.235C240.086 560.282 239.151 559.347 239.151 558.176L236.802 464.96H236.181V464.15H236.179Z" fill="white" fill-opacity="0.2" stroke="#3389FE" stroke-width="3"/>
<path d="M252.417 464.96V548.56H242.288V560.282V560.302H243.099V560.282V549.371H252.822V548.56H253.228V488.356H253.224V487.545H253.228V464.15H236.78H236.18V464.96H236.801H252.417Z" fill="white" fill-opacity="0.2" stroke="#3389FE" stroke-width="3"/>
<path d="M277.104 548.56H253.228H252.823V549.371H253.228H276.293V560.283V561.025H277.104V560.283V548.56Z" fill="white" fill-opacity="0.2" stroke="#3389FE" stroke-width="3"/>
<path d="M279.18 502.014V487.545H253.228H253.225V488.356H253.228H278.37V502.824H283.462H284.254V502.014H283.483H279.18Z" fill="white" fill-opacity="0.2" stroke="#3389FE" stroke-width="3"/>
<path d="M258.693 571.554V561.904V561.265H258.288V561.904V566.529H258.692V566.934H258.288V571.96H278.772H279.472V571.554H278.782H258.693Z" fill="white" fill-opacity="0.2" stroke="#3389FE" stroke-width="3"/>
<path d="M249.967 584.538V592.277V593.101H250.372V592.277V584.943H270.788V592.277V593.021H271.193V592.277V584.538H249.967Z" fill="white" fill-opacity="0.2" stroke="#3389FE" stroke-width="3"/>
<path d="M259.733 438.713V445.465H283.34H283.933V445.06H283.29H260.139V438.308H238.769H238.351V438.713H238.719H259.733Z" fill="white" fill-opacity="0.2" stroke="#3389FE" stroke-width="3"/>
<path d="M275.693 427.453H246.107V431.548V432.36H246.512V431.548V427.859H275.288V431.548V432.119H275.693V431.548V427.453Z" fill="white" fill-opacity="0.2" stroke="#3389FE" stroke-width="3"/>
<path d="M242.45 566.529V566.934H258.286H258.69V566.529H258.286H242.45Z" fill="white" fill-opacity="0.2" stroke="#3389FE" stroke-width="3"/>
<path d="M292.056 474.039H291.158H285.809H285.219V474.849H285.788H291.158H291.246V478.461V498.18V582.016V582.743H292.056V582.496V517.939V478.461V474.039Z" fill="white" fill-opacity="0.2" stroke="#3389FE" stroke-width="3"/>
<path d="M292.135 567.46H297.055H298.156V566.65H296.933H292.135V567.46Z" fill="white" fill-opacity="0.2" stroke="#3389FE" stroke-width="3"/>
<path d="M271.655 385.882C271.655 380.286 267.224 375.719 261.688 375.476C261.534 375.47 261.382 375.452 261.226 375.452C261.108 375.452 260.995 375.465 260.878 375.47C255.288 375.656 250.796 380.247 250.796 385.882C250.796 386.112 250.816 386.336 250.83 386.561C250.848 386.834 250.876 387.101 250.915 387.369C251.639 392.417 255.981 396.314 261.226 396.314C264.597 396.314 267.589 394.699 269.497 392.212C269.663 391.999 269.821 391.78 269.969 391.553C271.031 389.917 271.655 387.972 271.655 385.882ZM261.225 395.502C255.922 395.502 251.605 391.186 251.605 385.88C251.605 380.578 255.921 376.261 261.225 376.261C266.527 376.261 270.844 380.576 270.844 385.88C270.844 391.186 266.529 395.502 261.225 395.502Z" fill="white" fill-opacity="0.2" stroke="#3389FE" stroke-width="3"/>
<path d="M325.767 668.888L329.397 668.154L329.363 666.507L284.033 675.685L284.19 676.212L283.415 676.444L283.237 675.847L227.313 687.171L224.22 688.463C224.1 688.636 223.972 688.805 223.857 688.98L223.519 688.754L223.182 688.529C223.32 688.323 223.469 688.124 223.612 687.918L188.946 694.937L187.754 695.608V695.837H186.944V695.342L182.127 696.318V669.684L327.584 579.83L327.545 577.949L303.352 592.894L301.889 593.797L180.505 668.779V698.301L324.177 669.212L325.767 668.888Z" fill="white" fill-opacity="0.2" stroke="#3389FE" stroke-width="3"/>
<path d="M290.889 606.589L186.941 671.021V695.342V695.837H187.751V695.608V671.475L291.317 607.279C297.764 603.282 306.988 603.084 313.748 606.792L328.302 614.873L328.283 613.934L314.139 606.081C307.132 602.238 297.571 602.447 290.889 606.589Z" fill="white" fill-opacity="0.2" stroke="#3389FE" stroke-width="3"/>
<path d="M252.312 668.192C239.871 672.091 229.718 679.084 223.61 687.918C223.469 688.122 223.318 688.323 223.18 688.529L223.518 688.754L223.855 688.979C223.972 688.804 224.1 688.636 224.218 688.462C230.219 679.738 240.246 672.825 252.555 668.967L326.509 645.737L328.92 644.98L328.902 644.135L252.312 668.192Z" fill="white" fill-opacity="0.2" stroke="#3389FE" stroke-width="3"/>
<path d="M279.532 660.576L278.757 660.808L280.048 665.141L283.237 675.845L283.415 676.442L284.19 676.211L284.032 675.685L280.798 664.827L279.532 660.576Z" fill="white" fill-opacity="0.2" stroke="#3389FE" stroke-width="3"/>
<path d="M332.666 729.043L332.65 728.946L332.666 728.847C332.765 728.244 332.812 727.599 332.812 726.877V708.548C332.621 707.599 332.423 706.659 332.226 705.727L331.892 704.143C331.809 703.733 331.77 703.321 331.731 702.952L328.093 525.706V524.151C328.093 475.94 331.877 449.532 335.816 446.901V445.18C327.163 447.973 326.472 506.042 326.472 524.151V525.722L327.544 577.946L327.583 579.826L328.283 613.932L328.303 614.871L328.337 616.502L328.904 644.132L328.922 644.976L329.364 666.506L329.398 668.153L329.904 692.792L329.982 696.582L330.115 703.047C330.162 703.537 330.212 703.999 330.305 704.471L330.64 706.064C331.396 709.63 332.175 713.318 332.462 717.062C332.563 717.999 332.611 718.987 332.611 720.083V746.102C332.611 746.724 332.694 747.308 332.814 747.864V730.998C332.811 730.29 332.764 729.649 332.666 729.043Z" fill="white" fill-opacity="0.2" stroke="#3389FE" stroke-width="3"/>
<path d="M340.246 729.159L340.263 729.06L340.246 728.963C340.147 728.368 340.1 727.729 340.1 727.009V708.676V652.123C340.1 650.236 338.77 648.675 337.032 648.372V648.915H335.816V648.372C334.114 648.678 332.812 650.238 332.812 652.121V708.548V726.878C332.812 727.599 332.765 728.245 332.666 728.848L332.65 728.947L332.666 729.044C332.765 729.65 332.812 730.291 332.812 731.001V747.866V748.186C332.812 750.29 334.453 752 336.468 752C338.47 752 340.1 750.288 340.1 748.186V747.836V731.129C340.1 730.399 340.149 729.756 340.246 729.159ZM338.885 652.123V727.008C338.885 727.755 338.932 728.428 339.031 729.06C338.932 729.694 338.885 730.373 338.885 731.129V748.186C338.885 749.595 337.777 750.784 336.468 750.784C335.122 750.784 334.028 749.617 334.028 748.186V731.001C334.028 730.261 333.981 729.589 333.882 728.947C333.981 728.306 334.028 727.629 334.028 726.88V652.123C334.028 650.69 335.103 649.524 336.424 649.524C337.781 649.524 338.885 650.69 338.885 652.123Z" fill="white" fill-opacity="0.2" stroke="#3389FE" stroke-width="3"/>
</svg>
