<svg width="759" height="768" viewBox="0 0 759 768" fill="none" xmlns="http://www.w3.org/2000/svg">
<path d="M238.728 0.387386C241.181 0.000719706 243.661 -0.065947 246.155 0.054053C246.941 2.04072 248.048 4.00072 247.928 6.20072C248.101 46.8141 247.341 87.4674 248.621 128.041C255.835 128.001 263.035 127.907 270.235 127.974C270.755 110.841 269.955 93.6807 270.622 76.5607C271.448 73.6407 274.715 75.2274 276.888 75.1741C277.435 92.8274 276.782 110.507 277.115 128.161C290.635 129.907 304.222 131.054 317.756 132.774C323.796 133.707 330.196 134.387 335.423 137.894C335.849 139.374 336.316 140.841 336.796 142.307C333.196 154.241 327.183 165.241 323.342 177.094C319.076 191.321 315.356 205.734 312.929 220.401C323.476 220.707 334.036 220.561 344.596 220.641C345.476 221.681 346.356 222.721 347.263 223.774C346.97 224.467 346.356 225.841 346.05 226.534C337.969 227.681 329.823 226.987 321.716 227.041C263.288 226.747 204.847 227.307 146.42 227.041C146.166 235.307 147.02 243.587 146.3 251.854C145.833 252.601 144.913 254.107 144.46 254.854C142.966 254.801 141.473 254.734 140.006 254.667C138.913 244.841 138.74 234.827 139.3 224.961C139.286 211.441 137.673 197.774 139.566 184.334C140.46 183.947 142.246 183.187 143.153 182.801C143.913 183.267 145.446 184.201 146.206 184.667C146.66 196.574 146.446 208.481 146.62 220.401C155.167 220.934 163.74 220.681 172.313 220.761C170.42 208.081 167.167 195.654 163.247 183.481C159.26 171.827 153.86 160.774 149.5 149.281C149.233 148.561 148.727 147.107 148.473 146.387C147.993 144.467 147.82 142.507 147.686 140.547C148.126 139.894 149.006 138.574 149.433 137.921C154.367 134.441 160.567 134.041 166.34 133.174C183.994 131.267 201.674 129.787 219.341 128.081C219.821 107.694 219.088 87.2807 219.808 66.9074C221.794 67.0007 223.874 66.8007 225.794 67.5207C226.768 70.1207 226.528 72.9607 226.581 75.6807C226.421 93.174 226.314 110.681 226.488 128.174C230.061 128.067 233.648 128.014 237.234 128.121C237.501 91.0541 237.315 54.0007 237.288 16.9341C237.341 11.3874 236.648 5.68072 238.728 0.387386ZM226.261 141.934C242.075 142.614 257.915 141.321 273.715 142.481C286.249 142.801 298.515 145.707 311.036 146.254C316.902 146.347 323.276 148.707 328.623 145.214C328.836 144.147 329.063 143.081 329.303 142.027C295.595 135.227 261.048 133.854 226.754 134.134C226.448 136.721 226.421 139.334 226.261 141.934ZM181.687 138.547C172.5 139.214 163.38 140.561 154.287 142.014C154.327 142.574 154.393 143.681 154.433 144.241C155.66 145.614 156.607 147.854 158.873 147.374C179.26 146.921 199.261 141.987 219.674 141.681C219.634 139.321 219.621 136.974 219.634 134.627C206.927 135.321 194.301 136.907 181.687 138.547ZM181.967 152.187C185.047 165.201 188.18 178.201 191.967 191.027C200.021 190.854 208.021 189.987 216.061 189.654C213.408 176.227 212.327 162.427 207.927 149.414C199.207 149.441 190.62 151.254 181.967 152.187ZM214.954 148.507C218.474 162.134 219.861 176.214 223.648 189.774C236.034 189.694 248.435 189.881 260.835 189.654C263.048 176.001 264.262 162.161 267.368 148.654C249.901 148.334 232.421 148.481 214.954 148.507ZM273.542 149.054C272.328 155.267 271.408 161.521 270.688 167.801C269.955 175.187 267.768 182.374 267.702 189.827C275.982 190.814 284.329 190.654 292.662 191.081C295.329 178.121 298.942 165.374 302.476 152.627C292.929 150.774 283.235 149.801 273.542 149.054ZM159.58 154.401C164.58 166.867 168.58 179.694 173.02 192.374C176.62 191.961 180.487 192.521 183.94 191.267C184.114 190.027 184.06 188.801 183.754 187.587C181.22 176.041 178.154 164.614 174.327 153.427C169.407 153.801 164.487 154.027 159.58 154.401ZM309.102 153.294C305.302 165.654 302.595 178.307 299.315 190.801C303.382 192.654 308.036 192.081 312.396 192.294C316.129 179.401 320.689 166.761 324.169 153.787C319.142 153.787 314.116 153.547 309.102 153.294ZM174.02 198.787C176.22 206.014 177.86 213.414 180.527 220.494C222.048 220.481 263.582 221.361 305.089 220.321C307.316 213.361 308.502 206.134 310.502 199.121C304.836 198.974 299.209 198.467 293.582 197.867C273.168 196.814 252.715 197.161 232.274 197.094C212.847 197.027 193.407 197.547 174.02 198.787Z" fill="#CEE3FF" fill-opacity="0.2"/>
<path d="M163.007 232.814C215.541 231.254 268.115 231.561 320.636 232.747C322.556 233.281 324.329 234.254 326.089 235.174C326.463 235.961 327.196 237.534 327.569 238.334C328.129 246.121 324.756 253.414 323.943 261.054C324.223 261.867 324.783 263.507 325.063 264.321C334.489 265.067 343.93 261.841 353.223 264.347C358.25 267.254 357.57 273.641 356.636 278.534C355.85 282.254 352.543 284.587 348.956 285.161C343.743 285.907 338.449 285.467 333.209 285.481C330.716 292.814 327.663 300.041 326.583 307.761C326.183 310.281 327.436 312.627 328.009 315.014C335.436 316.627 343.45 313.014 350.543 316.254C356.143 321.401 352.01 330.134 348.65 335.467C347.703 335.307 345.823 334.987 344.89 334.827C344.41 330.681 345.116 326.534 346.156 322.534C288.235 322.427 230.314 322.787 172.394 322.494C160.86 322.694 149.34 321.854 137.806 322.067C138.713 326.307 140.273 330.481 139.766 334.894C138.1 335.054 136.433 335.201 134.78 335.347C132.526 330.441 129.246 325.361 130.233 319.734C130.98 316.481 134.926 315.721 137.713 315.281C144.126 314.801 150.567 315.361 156.98 314.827C157.58 304.614 152.82 295.121 150.38 285.414C144.54 285.521 138.7 285.361 132.873 285.574C126.886 281.294 127.18 273.467 127.966 266.961C128.38 266.427 129.193 265.361 129.606 264.827C131.393 264.347 133.166 263.841 134.94 263.281C142.846 262.814 150.767 263.761 158.673 263.081C159.233 253.907 154.113 245.401 155.66 236.201C157.727 234.387 160.127 232.801 163.007 232.814ZM162.02 240.561C163.647 247.561 164.62 254.681 166.26 261.681C178.914 261.734 191.554 261.961 204.207 261.947C203.941 254.161 201.927 246.614 200.941 238.934C187.954 239.254 174.9 238.547 162.02 240.561ZM207.661 238.787C209.074 246.401 210.007 254.107 211.741 261.681C232.088 261.574 252.421 262.147 272.755 261.614C274.168 254.107 275.022 246.507 275.488 238.881C252.875 238.414 230.261 238.867 207.661 238.787ZM282.102 238.801C281.409 246.454 280.889 254.147 279.662 261.734C292.169 261.961 304.662 261.961 317.169 261.774C319.022 254.761 319.822 247.521 321.262 240.414C308.249 238.987 295.169 238.934 282.102 238.801ZM176.327 268.627C162.433 269.787 148.473 269.227 134.553 269.561C134.553 272.307 134.553 275.054 134.54 277.814C160.887 279.547 187.34 278.707 213.728 279.561C221.688 280.587 229.674 278.801 237.648 279.841C275.008 278.681 312.462 279.654 349.81 277.881C350.036 275.534 350.25 273.201 350.516 270.867C328.996 268.521 307.249 270.321 285.689 268.614C249.235 268.254 212.781 268.214 176.327 268.627ZM207.421 285.374C209.327 286.147 209.607 288.321 210.074 290.094C211.167 296.281 212.314 302.454 213.501 308.641C232.381 309.307 251.261 309.001 270.155 309.201C272.102 301.441 272.942 293.481 273.542 285.521C251.501 285.587 229.448 285.787 207.421 285.374ZM280.675 285.627C279.609 293.321 277.995 300.961 277.862 308.761C291.769 308.801 305.689 308.601 319.582 309.494C319.862 308.707 320.423 307.134 320.702 306.347C321.396 299.254 323.756 292.507 325.476 285.641C310.542 285.547 295.609 285.627 280.675 285.627ZM157.62 285.601C159.9 293.321 162.02 301.094 164.26 308.814C167.727 309.694 171.434 308.974 174.994 309.067C185.514 308.441 196.061 309.201 206.581 308.547C205.221 300.841 203.847 293.147 202.367 285.481C187.447 285.627 172.527 285.441 157.62 285.601ZM172.394 316.361C208.821 316.094 245.261 317.027 281.675 316.401C289.982 316.307 298.302 315.681 306.609 316.294C302.422 314.907 297.969 315.601 293.662 315.414C253.248 315.374 212.768 313.854 172.394 316.361Z" fill="#CEE3FF" fill-opacity="0.2"/>
<path d="M153.167 329.827C168.007 329.054 182.914 329.627 197.794 329.454C200.541 328.961 202.167 331.614 203.274 333.681C206.621 342.094 207.207 351.214 209.008 360.001C210.061 360.067 212.154 360.201 213.208 360.267C212.608 350.867 209.328 341.747 210.448 332.214C211.368 331.294 212.301 330.374 213.248 329.467C233.968 329.387 254.702 329.374 275.409 329.507C281.262 338.961 276.142 350.187 276.835 360.414C279.089 358.614 279.609 355.641 280.929 353.201C281.075 350.921 281.329 348.641 282.262 346.534C281.475 340.334 284.302 334.467 287.742 329.507C299.049 329.667 310.382 330.027 321.663 328.854C324.476 328.481 327.223 329.361 329.889 330.147C331.369 337.214 327.009 343.561 325.236 350.107C324.703 348.294 324.156 346.481 323.543 344.707C324.103 349.961 324.223 355.374 322.209 360.374C326.903 363.254 332.756 361.187 337.903 360.907C338.529 361.467 339.77 362.587 340.396 363.147C340.93 363.121 341.983 363.081 342.516 363.054C342.436 363.534 342.276 364.507 342.183 364.987C345.076 368.481 343.143 373.441 343.583 377.574L342.636 377.321C342.183 377.827 341.276 378.854 340.836 379.361L341.13 380.187C335.289 384.947 327.423 381.387 320.929 384.254C321.129 386.681 321.249 389.147 321.903 391.521C322.063 418.401 321.983 445.281 322.503 472.147C324.289 487.654 322.783 503.361 324.583 518.867C325.383 541.827 326.903 564.761 328.543 587.667C330.089 611.401 331.809 635.134 334.303 658.774C335.089 659.081 336.663 659.694 337.45 660.001C348.303 662.334 359.116 665.014 369.41 669.254C374.077 671.574 377.89 666.654 381.743 664.721C402.677 652.441 426.731 645.667 450.971 644.961C495.972 643.547 540.173 661.961 573.973 691.067C583.667 700.161 593.24 709.667 600.014 721.201C600.32 721.614 600.934 722.441 601.24 722.854C601.547 723.441 602.187 724.627 602.494 725.214C602.854 725.734 603.56 726.747 603.907 727.267C604.147 727.254 604.6 727.241 604.84 727.227C604.547 729.987 607.667 730.747 608.854 732.774C612.76 738.881 615.907 745.467 619 752.027C658.121 751.614 697.255 752.267 736.362 751.814C743.189 751.561 751.616 749.614 756.963 755.107C757.336 756.694 757.736 758.281 758.189 759.881C756.576 763.427 754.149 767.761 749.549 767.121C565.573 767.147 381.597 767.201 197.621 767.294C68.2987 767.281 -61.0233 767.067 -190.345 767.227C-195.012 767.841 -199.065 764.001 -199.985 759.654C-200.265 755.814 -197.159 751.867 -193.105 752.081C-179.732 751.627 -166.345 752.041 -152.958 751.881C-140.971 751.881 -128.984 751.907 -116.997 751.881C-105.717 751.894 -94.4371 751.814 -83.1569 752.041C-73.4235 730.867 -57.3032 712.521 -36.9296 701.054C-22.6493 692.787 -6.72911 687.267 9.71114 685.587C27.6848 684.374 46.2584 685.201 63.112 692.174C65.4187 692.774 67.9654 694.907 70.3921 693.574C94.5391 677.467 121.406 665.654 149.193 657.414C150.233 657.107 150.887 656.481 151.153 655.534C152.047 631.561 154.62 607.681 155.753 583.734C157.94 551.774 159.193 519.761 160.3 487.747C161.527 453.147 161.207 418.507 161.313 383.881C154.127 383.414 144.833 385.401 139.833 378.854C138.553 374.014 138.406 369.041 139.793 364.214C140.407 363.761 141.633 362.841 142.246 362.374C148.22 359.521 154.913 360.947 161.287 360.547C161.06 359.254 160.847 357.961 160.633 356.681C158.233 350.174 155.66 343.721 153.3 337.187C152.287 334.841 152.967 332.267 153.167 329.827ZM160.807 336.054C163.5 344.121 166.287 352.161 168.7 360.321C179.954 360.307 191.221 360.441 202.487 360.161C200.527 352.067 198.287 344.027 196.141 335.974C184.367 335.907 172.58 335.934 160.807 336.054ZM217.968 336.054C217.928 344.067 217.941 352.094 218.248 360.107C223.301 360.641 228.381 360.694 233.448 360.467C235.381 360.414 237.528 360.094 239.128 361.534C242.608 361.507 246.448 362.427 249.568 360.401C254.302 360.294 259.035 360.281 263.782 360.121L263.515 361.761C266.248 361.641 268.995 361.587 271.755 361.614C271.462 356.934 272.062 352.214 271.395 347.574C269.969 343.867 270.342 339.894 270.422 336.014C252.928 335.841 235.448 335.881 217.968 336.054ZM291.662 336.214C290.022 339.721 288.849 343.441 287.342 347.014L286.235 346.694C286.289 348.961 286.329 351.241 286.382 353.521L285.035 353.494C285.009 355.921 284.955 358.334 284.862 360.774C291.782 360.001 298.729 360.894 305.662 360.427C309.596 359.974 313.249 361.974 317.182 361.961C317.116 360.041 317.049 358.121 316.996 356.214L318.236 356.534C318.329 354.067 318.569 351.601 319.329 349.254C319.956 344.761 321.503 340.494 322.649 336.134C312.316 336.054 301.982 335.854 291.662 336.214ZM187.007 367.321C173.02 368.134 159.007 367.854 145.02 368.347C145.353 371.174 145.9 373.961 146.447 376.761C152.033 376.921 157.633 376.467 163.207 376.854C167.327 377.747 167.954 382.694 167.767 386.214C167.327 422.694 168.767 459.227 166.54 495.667C164.887 549.147 161.527 602.574 156.833 655.867C162.753 655.054 168.594 653.707 174.46 652.534C174.9 561.987 174.914 471.441 174.02 380.894C174.914 379.734 175.834 378.561 176.754 377.414C182.86 377.547 188.981 376.267 195.047 376.974C199.087 377.174 202.381 380.801 202.061 384.881C202.501 440.454 201.887 496.041 201.527 551.614C201.981 583.601 201.887 615.601 203.021 647.574C204.821 617.374 204.701 587.107 204.954 556.867C205.061 499.561 203.941 442.267 204.607 384.961C204.461 382.361 205.274 379.374 207.634 377.987C216.434 377.294 225.221 377.561 234.035 377.801C234.061 381.161 234.075 384.521 234.461 387.881C236.595 397.401 235.395 407.254 236.515 416.907C237.101 445.347 238.528 473.747 238.235 502.201C238.035 531.147 238.688 560.134 237.315 589.054C236.848 646.414 236.181 703.801 237.035 761.161C238.408 761.161 241.168 761.161 242.541 761.161C242.408 638.867 242.621 516.587 242.448 394.294C242.301 392.494 242.715 390.747 243.608 389.187C243.688 386.027 243.741 382.881 243.795 379.734C245.235 378.947 246.541 377.734 248.248 377.561C256.582 378.014 264.888 376.907 273.209 377.881C273.089 378.401 272.835 379.441 272.702 379.961C273.355 380.187 274.662 380.654 275.315 380.881C277.075 398.161 276.635 415.547 276.809 432.894C277.249 495.481 275.902 558.094 277.102 620.654C277.835 619.107 278.169 617.481 278.115 615.774C279.209 538.827 277.515 461.867 278.409 384.921C278.582 382.361 278.742 377.907 282.555 379.067L282.435 377.881C290.715 377.414 298.996 377.361 307.289 377.961C308.209 379.721 309.542 381.454 309.289 383.574C309.316 473.561 309.356 563.561 308.956 653.547C315.076 654.987 321.263 656.254 327.516 656.907C326.223 641.361 324.929 625.854 323.649 610.307C321.649 584.974 320.649 559.574 319.036 534.227C317.996 524.081 318.796 513.827 317.409 503.707C316.903 490.827 317.236 477.894 316.089 465.054C315.729 441.494 315.569 417.947 315.622 394.387C315.943 390.014 315.422 385.454 316.916 381.267L316.889 380.214L318.769 380.374C318.649 379.801 318.409 378.667 318.289 378.094C319.729 377.827 321.183 377.574 322.649 377.334C326.276 377.761 329.943 377.747 333.609 377.654C334.476 377.187 336.223 376.254 337.103 375.787C337.209 373.241 337.289 370.707 337.37 368.174C332.383 366.454 327.116 366.974 321.969 367.134C314.729 366.547 307.529 367.827 300.329 366.854C292.462 367.734 284.542 366.001 276.755 367.747C276.355 367.214 275.542 366.161 275.129 365.641C269.728 365.681 264.328 365.627 258.928 365.761C252.382 368.907 244.995 365.787 238.088 366.894C221.048 366.281 204.047 367.547 187.007 367.321ZM180.58 384.107C181.314 473.267 180.74 562.427 180.98 651.587C186.247 651.307 191.554 650.987 196.714 649.774C196.101 632.174 196.034 614.561 195.981 596.961C195.781 525.867 196.794 454.774 195.554 383.681C190.554 383.161 185.567 383.961 180.58 384.107ZM210.034 382.801C211.301 395.494 210.368 408.267 210.608 421.001C210.408 496.881 210.714 572.761 210.274 648.627C217.088 648.587 223.888 648.454 230.701 648.294C231.035 572.934 230.701 497.561 230.861 422.201C230.915 412.987 230.581 403.761 231.515 394.574C231.715 390.654 231.955 386.734 232.035 382.814C224.701 382.987 217.354 382.961 210.034 382.801ZM248.875 383.841C249.208 472.014 249.115 560.187 248.955 648.361C256.395 648.427 263.822 649.107 271.262 649.227C271.608 621.601 270.688 593.961 271.182 566.347C271.115 510.774 271.835 455.201 270.595 399.641C270.688 396.147 269.915 392.414 271.542 389.174C271.635 387.027 271.755 384.881 271.902 382.747C264.248 383.507 256.355 381.961 248.875 383.841ZM283.315 382.787C283.502 387.134 284.809 391.334 284.942 395.681C285.009 480.441 284.835 565.214 284.835 649.961C290.875 651.481 297.156 651.907 303.356 652.507C303.302 587.761 303.356 523.014 303.342 458.267C303.636 433.067 302.689 407.841 303.929 382.681C300.089 382.881 296.262 383.001 292.462 383.467C289.435 382.961 286.355 382.881 283.315 382.787ZM419.077 656.907C405.997 660.481 393.117 665.441 381.97 673.294C422.958 689.761 460.838 716.147 486.785 752.281C510.412 751.987 534.053 750.427 557.68 751.934C575.133 752.001 592.587 752.067 610.04 751.907C607.134 743.614 601.494 736.694 597.88 728.761C594.56 725.374 591.827 721.494 588.947 717.761C575.307 700.721 558.88 685.654 539.679 675.107C504.052 653.587 459.451 644.761 419.077 656.907ZM204.234 656.587C204.007 691.467 204.181 726.347 203.914 761.227C213.141 760.947 222.408 761.721 231.581 760.467C231.221 725.267 231.835 690.054 231.181 654.854C222.181 655.001 213.034 654.347 204.234 656.587ZM248.955 654.947C249.142 690.121 248.955 725.307 249.021 760.494C257.062 761.667 265.195 760.907 273.275 761.281C274.782 748.747 273.275 736.081 274.369 723.521C274.942 715.147 273.995 706.761 274.529 698.401C273.355 684.374 274.249 670.281 273.502 656.241C265.355 655.214 257.155 654.907 248.955 654.947ZM180.967 658.027C180.5 692.227 180.82 726.441 180.834 760.641C183.327 760.854 185.82 761.121 188.327 761.334C191.154 761.214 193.981 760.907 196.794 760.521C196.327 726.121 196.594 691.707 196.607 657.307C191.394 656.414 186.194 658.161 180.967 658.027ZM283.955 657.401C284.049 668.334 283.995 679.267 284.062 690.214C283.342 703.121 283.209 716.081 284.089 728.987C284.329 739.707 283.942 750.454 284.662 761.174C290.982 761.294 297.302 761.081 303.596 760.494C303.142 726.827 303.542 693.147 303.396 659.481C296.929 658.667 290.475 657.614 283.955 657.401ZM156.66 662.761C153.7 686.214 151.7 709.801 150.473 733.414C150.18 742.734 148.593 751.974 148.82 761.321C157.313 760.027 165.847 761.947 174.34 760.694C174.314 727.081 174.287 693.481 174.514 659.881C168.5 660.454 162.593 661.721 156.66 662.761ZM309.262 661.027C309.249 694.227 309.329 727.427 309.302 760.627C316.969 760.761 324.649 760.721 332.316 760.694C336.743 760.747 341.143 761.294 345.583 761.174C372.743 760.814 399.917 761.521 427.091 761.107C434.584 760.281 442.078 761.614 449.585 761.134C460.691 760.214 471.865 761.227 482.972 760.414C482.545 759.307 481.718 758.841 480.518 759.001C436.931 757.027 393.277 758.307 349.676 758.694C346.09 758.694 342.116 759.001 339.023 756.921C332.343 747.161 335.103 734.694 333.849 723.641C331.676 712.201 331.943 700.467 330.543 688.934C330.303 680.841 328.663 672.867 328.676 664.761C322.276 663.187 315.849 661.574 309.262 661.027ZM110.433 678.827C98.8592 683.787 88.379 690.881 77.5255 697.201C83.6856 702.174 90.6458 706.107 96.5792 711.374C111.926 724.374 125.46 740.827 130.726 760.587C134.486 761.387 138.3 760.854 142.073 760.481C142.166 751.254 143.62 742.134 144.02 732.934C146.313 710.347 147.407 687.641 150.407 665.147C136.353 666.987 123.486 673.641 110.433 678.827ZM335.223 666.614C335.743 679.414 337.89 692.094 338.196 704.921C346.063 694.134 354.93 683.974 365.197 675.414C364.81 675.094 364.037 674.454 363.637 674.134C360.757 673.254 357.89 672.401 355.076 671.401C348.476 669.707 341.903 667.921 335.223 666.614ZM373.623 677.587C360.277 688.441 348.023 701.094 339.703 716.267C339.983 727.947 340.343 739.867 343.343 751.254C363.237 751.201 383.077 752.267 402.971 751.987C427.598 752.254 452.185 751.467 476.798 751.214C455.425 723.201 426.371 701.814 394.797 686.574C387.864 683.281 380.93 679.974 373.623 677.587ZM-30.2495 704.654C-49.2364 715.161 -64.5033 731.814 -74.2635 751.121C-59.1832 751.454 -44.103 751.054 -29.0228 751.334C-17.0493 752.121 -5.00906 752.641 6.99112 752.347C12.1245 752.561 16.1112 748.827 18.8846 744.934C31.0981 727.614 46.205 712.454 62.512 699.014C32.6448 688.547 -2.32904 688.654 -30.2495 704.654ZM69.0987 703.294C54.6052 714.827 40.3916 727.134 29.6181 742.347C25.6048 747.561 22.7914 753.907 17.2446 757.761C11.1912 758.414 5.08441 757.974 -0.982346 758.041C-10.7692 758.001 -20.5693 758.027 -30.3561 758.081C-35.6629 758.121 -40.983 757.827 -46.2764 758.347C-52.9431 759.027 -59.5966 757.801 -66.2633 757.987C-69.2367 758.107 -73.0634 757.161 -74.7568 760.361C-39.0896 761.561 -3.36905 761.134 32.3115 761.214C37.1916 761.161 42.0717 760.641 46.9517 760.747C72.6055 761.067 98.2725 760.027 123.9 761.307C122.206 756.454 120.473 751.574 117.846 747.161C117.153 747.001 115.766 746.694 115.073 746.547C115.713 746.574 117.006 746.614 117.646 746.641C107.366 728.387 90.8857 714.521 73.1254 703.867C71.9388 703.227 70.3254 702.134 69.0987 703.294ZM747.309 758.681C730.309 759.081 713.335 757.774 696.335 758.001C657.654 757.934 618.974 758.027 580.293 758.001C555.453 758.707 530.546 758.721 505.652 758.507C500.679 758.654 495.692 758.241 490.759 758.761C490.439 759.174 489.772 759.974 489.439 760.374C502.372 761.374 515.399 760.121 528.346 761.107C535.026 761.521 541.706 760.374 548.386 761.027C560.36 761.774 572.346 760.227 584.32 761.147C639.521 761.414 694.668 760.974 749.856 760.627C750.109 759.587 750.376 758.561 750.669 757.547C749.536 757.921 748.416 758.294 747.309 758.681ZM-192.359 760.587C-154.958 761.294 -117.531 761.587 -80.1302 760.547C-80.4369 760.147 -81.0502 759.334 -81.3569 758.934C-87.397 758.027 -93.5038 757.641 -99.5839 758.374C-129.864 757.681 -160.211 758.107 -190.505 758.054C-190.972 758.694 -191.892 759.961 -192.359 760.587Z" fill="#CEE3FF" fill-opacity="0.2"/>
</svg>
