<svg width="38" height="34" viewBox="0 0 38 34" fill="none" xmlns="http://www.w3.org/2000/svg">
<path d="M18.834 33.6667L26.4174 13.6667H29.9174L37.5007 33.6667H34.0007L32.209 28.5833H24.1257L22.334 33.6667H18.834ZM5.66736 28.6667L3.33403 26.3333L11.7507 17.9167C10.7785 16.9445 9.89653 15.8333 9.10486 14.5833C8.31319 13.3333 7.58403 11.9167 6.91736 10.3333H10.4174C10.9729 11.4167 11.5285 12.3611 12.084 13.1667C12.6396 13.9722 13.3062 14.7778 14.084 15.5833C15.0007 14.6667 15.9521 13.382 16.9382 11.7292C17.9243 10.0764 18.6674 8.50001 19.1674 7.00001H0.667358V3.66668H12.334V0.333344H15.6674V3.66668H27.334V7.00001H22.5007C21.9174 9.00001 21.0424 11.0556 19.8757 13.1667C18.709 15.2778 17.5562 16.8889 16.4174 18L20.4174 22.0833L19.1674 25.5L14.084 20.2917L5.66736 28.6667ZM25.1674 25.6667H31.1674L28.1674 17.1667L25.1674 25.6667Z" fill="#1E356F"/>
</svg>
